<svg xmlns="http://www.w3.org/2000/svg" xmlns:xlink="http://www.w3.org/1999/xlink" width="500" zoomAndPan="magnify" viewBox="0 0 375 374.999991" height="500" preserveAspectRatio="xMidYMid meet" version="1.0"><path fill="#fcfaef" d="M 187.585938 -0.171875 C 84 -0.171875 0 83.828125 0 187.414062 C 0 291 84 375 187.585938 375 C 291.199219 375 375.171875 291.027344 375.171875 187.414062 C 375.171875 83.828125 291.171875 -0.171875 187.585938 -0.171875 Z M 187.585938 333.308594 C 106.992188 333.308594 41.691406 267.980469 41.691406 187.414062 C 41.691406 106.820312 106.992188 41.519531 187.585938 41.519531 C 268.152344 41.519531 333.480469 106.820312 333.480469 187.414062 C 333.480469 267.980469 268.152344 333.308594 187.585938 333.308594 Z M 184.019531 78.515625 L 222.273438 78.515625 L 222.273438 297.707031 L 176.453125 297.707031 L 176.453125 149.988281 C 166.472656 152.992188 154.34375 154.46875 139.859375 154.46875 L 129.449219 154.46875 L 129.449219 113.984375 L 139.859375 113.984375 C 173.339844 113.984375 180.179688 98.558594 182.40625 86.96875 Z M 184.019531 78.515625 " fill-opacity="1" fill-rule="nonzero"/></svg>