<svg xmlns="http://www.w3.org/2000/svg" xmlns:xlink="http://www.w3.org/1999/xlink" width="500" zoomAndPan="magnify" viewBox="0 0 375 374.999991" height="500" preserveAspectRatio="xMidYMid meet" version="1.0"><path fill="#76b1af" d="M 187.5 0 C 83.953125 0 0 83.953125 0 187.5 C 0 291.046875 83.953125 375 187.5 375 C 291.046875 375 375 291.046875 375 187.5 C 375 83.953125 291.046875 0 187.5 0 Z M 211.03125 264.5625 L 178.78125 264.5625 L 178.78125 141.84375 L 176.859375 141.84375 L 139.046875 167.90625 L 139.046875 137.890625 L 178.890625 110.4375 L 211.046875 110.4375 L 211.046875 264.5625 Z M 343.75 187.5 C 343.75 273.796875 273.796875 343.75 187.5 343.75 C 101.203125 343.75 31.25 273.796875 31.25 187.5 C 31.25 101.203125 101.203125 31.25 187.5 31.25 C 273.796875 31.25 343.75 101.203125 343.75 187.5 Z M 343.75 187.5 " fill-opacity="1" fill-rule="nonzero"/></svg>