<svg xmlns="http://www.w3.org/2000/svg" xmlns:xlink="http://www.w3.org/1999/xlink" width="500" zoomAndPan="magnify" viewBox="0 0 375 374.999991" height="500" preserveAspectRatio="xMidYMid meet" version="1.0"><defs><clipPath id="7cde489668"><path d="M 0 0 L 375 0 L 375 374.722656 L 0 374.722656 Z M 0 0 " clip-rule="nonzero"/></clipPath></defs><g clip-path="url(#7cde489668)"><path fill="#76b1af" d="M 188.25 -1.777344 C 84.289062 -1.777344 0 82.511719 0 186.472656 C 0 290.433594 84.289062 374.722656 188.25 374.722656 C 292.210938 374.722656 376.5 290.433594 376.5 186.472656 C 376.5 82.511719 292.210938 -1.777344 188.25 -1.777344 Z M 187.496094 267.8125 C 152.96875 267.8125 129.59375 248.722656 128.199219 219.558594 L 159.195312 219.558594 C 160.167969 232.640625 171.214844 240.894531 187.828125 240.894531 C 204.015625 240.894531 215.28125 231.777344 215.28125 218.585938 C 215.28125 205.078125 204.660156 196.703125 187.292969 196.703125 L 168.089844 196.703125 L 168.089844 172.574219 L 186.964844 172.574219 C 201.664062 172.574219 211.625 163.992188 211.625 151.332031 C 211.625 138.894531 201.976562 130.953125 186.855469 130.953125 C 171.839844 130.953125 161.863281 139.425781 161.015625 152.839844 L 131.101562 152.839844 C 132.167969 123.566406 153.941406 105.117188 187.714844 105.117188 C 219.453125 105.117188 242.292969 122.484375 242.292969 146.832031 C 242.292969 164.746094 231.03125 178.675781 213.773438 182.222656 L 213.773438 184.152344 C 235.015625 186.503906 248.300781 200.671875 248.300781 221.046875 C 248.300781 248.1875 222.777344 267.8125 187.496094 267.8125 Z M 345.125 186.472656 C 345.125 273.113281 274.890625 343.347656 188.25 343.347656 C 101.609375 343.347656 31.375 273.113281 31.375 186.472656 C 31.375 99.832031 101.609375 29.597656 188.25 29.597656 C 274.890625 29.597656 345.125 99.832031 345.125 186.472656 Z M 345.125 186.472656 " fill-opacity="1" fill-rule="nonzero"/></g></svg>