<svg xmlns="http://www.w3.org/2000/svg" xmlns:xlink="http://www.w3.org/1999/xlink" width="215" zoomAndPan="magnify" viewBox="0 0 161.25 161.249997" height="215" preserveAspectRatio="xMidYMid meet" version="1.0"><defs><filter x="0%" y="0%" width="100%" height="100%" id="8915548723"><feColorMatrix values="0 0 0 0 1 0 0 0 0 1 0 0 0 0 1 0 0 0 1 0" color-interpolation-filters="sRGB"/></filter><g/><clipPath id="3c7be439c9"><path d="M 0 0 L 160.503906 0 L 160.503906 160.503906 L 0 160.503906 Z M 0 0 " clip-rule="nonzero"/></clipPath><mask id="f966b63fb5"><g filter="url(#8915548723)"><rect x="-16.125" width="193.5" fill="#000000" y="-16.125" height="193.499996" fill-opacity="0.0863"/></g></mask><clipPath id="42439fdcdf"><path d="M 0.269531 0.46875 L 160.292969 0.46875 L 160.292969 160.492188 L 0.269531 160.492188 Z M 0.269531 0.46875 " clip-rule="nonzero"/></clipPath><clipPath id="01a6d9eb72"><path d="M 80.28125 0.46875 C 36.09375 0.46875 0.269531 36.289062 0.269531 80.480469 C 0.269531 124.667969 36.09375 160.492188 80.28125 160.492188 C 124.46875 160.492188 160.292969 124.667969 160.292969 80.480469 C 160.292969 36.289062 124.46875 0.46875 80.28125 0.46875 " clip-rule="nonzero"/></clipPath><clipPath id="2b70c164ae"><rect x="0" width="161" y="0" height="161"/></clipPath><mask id="3ce6677515"><g filter="url(#8915548723)"><rect x="-16.125" width="193.5" fill="#000000" y="-16.125" height="193.499996" fill-opacity="0.1569"/></g></mask><clipPath id="617f5d1b6d"><path d="M 0.664062 0.863281 L 143.898438 0.863281 L 143.898438 144.097656 L 0.664062 144.097656 Z M 0.664062 0.863281 " clip-rule="nonzero"/></clipPath><clipPath id="eeb5175437"><path d="M 72.28125 0.863281 C 32.726562 0.863281 0.664062 32.925781 0.664062 72.480469 C 0.664062 112.03125 32.726562 144.097656 72.28125 144.097656 C 111.835938 144.097656 143.898438 112.03125 143.898438 72.480469 C 143.898438 32.925781 111.835938 0.863281 72.28125 0.863281 " clip-rule="nonzero"/></clipPath><clipPath id="8a3428efe1"><rect x="0" width="144" y="0" height="145"/></clipPath><mask id="8b3adeaaa8"><g filter="url(#8915548723)"><rect x="-16.125" width="193.5" fill="#000000" y="-16.125" height="193.499996" fill-opacity="0.4275"/></g></mask><clipPath id="53a2b306e6"><path d="M 0.914062 0.113281 L 129.648438 0.113281 L 129.648438 128.847656 L 0.914062 128.847656 Z M 0.914062 0.113281 " clip-rule="nonzero"/></clipPath><clipPath id="8d00999ccb"><path d="M 65.28125 0.113281 C 29.730469 0.113281 0.914062 28.929688 0.914062 64.480469 C 0.914062 100.027344 29.730469 128.847656 65.28125 128.847656 C 100.832031 128.847656 129.648438 100.027344 129.648438 64.480469 C 129.648438 28.929688 100.832031 0.113281 65.28125 0.113281 " clip-rule="nonzero"/></clipPath><clipPath id="89b2e4ef2e"><rect x="0" width="130" y="0" height="130"/></clipPath><clipPath id="a6d6df3780"><path d="M 24.402344 24.601562 L 136.160156 24.601562 L 136.160156 136.359375 L 24.402344 136.359375 Z M 24.402344 24.601562 " clip-rule="nonzero"/></clipPath><clipPath id="0d43c8d8a9"><path d="M 80.28125 24.601562 C 49.417969 24.601562 24.402344 49.617188 24.402344 80.480469 C 24.402344 111.339844 49.417969 136.359375 80.28125 136.359375 C 111.144531 136.359375 136.160156 111.339844 136.160156 80.480469 C 136.160156 49.617188 111.144531 24.601562 80.28125 24.601562 " clip-rule="nonzero"/></clipPath></defs><g clip-path="url(#3c7be439c9)"><g mask="url(#f966b63fb5)"><g><g clip-path="url(#2b70c164ae)"><g clip-path="url(#42439fdcdf)"><g clip-path="url(#01a6d9eb72)"><path fill="#fcfaef" d="M 0.269531 0.46875 L 160.292969 0.46875 L 160.292969 160.492188 L 0.269531 160.492188 Z M 0.269531 0.46875 " fill-opacity="1" fill-rule="nonzero"/></g></g></g></g></g></g><g mask="url(#3ce6677515)"><g transform="matrix(1, 0, 0, 1, 8, 8)"><g clip-path="url(#8a3428efe1)"><g clip-path="url(#617f5d1b6d)"><g clip-path="url(#eeb5175437)"><path fill="#fcfaef" d="M 0.664062 0.863281 L 143.898438 0.863281 L 143.898438 144.097656 L 0.664062 144.097656 Z M 0.664062 0.863281 " fill-opacity="1" fill-rule="nonzero"/></g></g></g></g></g><g mask="url(#8b3adeaaa8)"><g transform="matrix(1, 0, 0, 1, 15, 16)"><g clip-path="url(#89b2e4ef2e)"><g clip-path="url(#53a2b306e6)"><g clip-path="url(#8d00999ccb)"><path fill="#122e49" d="M 0.914062 0.113281 L 129.648438 0.113281 L 129.648438 128.847656 L 0.914062 128.847656 Z M 0.914062 0.113281 " fill-opacity="1" fill-rule="nonzero"/></g></g></g></g></g><g clip-path="url(#a6d6df3780)"><g clip-path="url(#0d43c8d8a9)"><path fill="#2adcaa" d="M 24.402344 24.601562 L 136.160156 24.601562 L 136.160156 136.359375 L 24.402344 136.359375 Z M 24.402344 24.601562 " fill-opacity="1" fill-rule="nonzero"/></g></g><g fill="#fcfaef" fill-opacity="1"><g transform="translate(58.112063, 99.833976)"><g><path d="M 0.324219 0 L 11.40625 0 L 14.121094 -6.789062 L 28.785156 -6.789062 L 31.554688 0 L 42.855469 0 L 26.667969 -38.292969 L 16.511719 -38.292969 Z M 17.21875 -14.992188 L 21.507812 -25.800781 L 25.746094 -14.992188 Z M 17.21875 -14.992188 "/></g></g></g></svg>