<svg xmlns="http://www.w3.org/2000/svg" xmlns:xlink="http://www.w3.org/1999/xlink" width="215" zoomAndPan="magnify" viewBox="0 0 161.25 161.999997" height="216" preserveAspectRatio="xMidYMid meet" version="1.0"><defs><filter x="0%" y="0%" width="100%" height="100%" id="d5e72d40da"><feColorMatrix values="0 0 0 0 1 0 0 0 0 1 0 0 0 0 1 0 0 0 1 0" color-interpolation-filters="sRGB"/></filter><g/><clipPath id="cb9b911213"><path d="M 0 1 L 160.503906 1 L 160.503906 161.625 L 0 161.625 Z M 0 1 " clip-rule="nonzero"/></clipPath><mask id="feac9cea34"><g filter="url(#d5e72d40da)"><rect x="-16.125" width="193.5" fill="#000000" y="-16.2" height="194.399996" fill-opacity="0.0863"/></g></mask><clipPath id="557fb9687a"><path d="M 0.269531 0.101562 L 160.292969 0.101562 L 160.292969 160.125 L 0.269531 160.125 Z M 0.269531 0.101562 " clip-rule="nonzero"/></clipPath><clipPath id="7fd15f665a"><path d="M 80.28125 0.101562 C 36.09375 0.101562 0.269531 35.921875 0.269531 80.113281 C 0.269531 124.300781 36.09375 160.125 80.28125 160.125 C 124.46875 160.125 160.292969 124.300781 160.292969 80.113281 C 160.292969 35.921875 124.46875 0.101562 80.28125 0.101562 " clip-rule="nonzero"/></clipPath><clipPath id="40af5af67d"><rect x="0" width="161" y="0" height="161"/></clipPath><mask id="35e64bb31f"><g filter="url(#d5e72d40da)"><rect x="-16.125" width="193.5" fill="#000000" y="-16.2" height="194.399996" fill-opacity="0.1569"/></g></mask><clipPath id="94657f4bf2"><path d="M 0.664062 0.496094 L 143.898438 0.496094 L 143.898438 143.730469 L 0.664062 143.730469 Z M 0.664062 0.496094 " clip-rule="nonzero"/></clipPath><clipPath id="cc7a724e25"><path d="M 72.28125 0.496094 C 32.726562 0.496094 0.664062 32.558594 0.664062 72.113281 C 0.664062 111.664062 32.726562 143.730469 72.28125 143.730469 C 111.835938 143.730469 143.898438 111.664062 143.898438 72.113281 C 143.898438 32.558594 111.835938 0.496094 72.28125 0.496094 " clip-rule="nonzero"/></clipPath><clipPath id="23b5db0356"><rect x="0" width="144" y="0" height="144"/></clipPath><mask id="0a5bdbb432"><g filter="url(#d5e72d40da)"><rect x="-16.125" width="193.5" fill="#000000" y="-16.2" height="194.399996" fill-opacity="0.4275"/></g></mask><clipPath id="1e50f47e21"><path d="M 0.914062 0.746094 L 129.648438 0.746094 L 129.648438 129.480469 L 0.914062 129.480469 Z M 0.914062 0.746094 " clip-rule="nonzero"/></clipPath><clipPath id="788a0f8908"><path d="M 65.28125 0.746094 C 29.730469 0.746094 0.914062 29.5625 0.914062 65.113281 C 0.914062 100.660156 29.730469 129.480469 65.28125 129.480469 C 100.832031 129.480469 129.648438 100.660156 129.648438 65.113281 C 129.648438 29.5625 100.832031 0.746094 65.28125 0.746094 " clip-rule="nonzero"/></clipPath><clipPath id="746fcabeaf"><rect x="0" width="130" y="0" height="130"/></clipPath><clipPath id="adf7f4518f"><path d="M 24.402344 25.234375 L 136.160156 25.234375 L 136.160156 136.992188 L 24.402344 136.992188 Z M 24.402344 25.234375 " clip-rule="nonzero"/></clipPath><clipPath id="fef29a607c"><path d="M 80.28125 25.234375 C 49.417969 25.234375 24.402344 50.25 24.402344 81.113281 C 24.402344 111.972656 49.417969 136.992188 80.28125 136.992188 C 111.144531 136.992188 136.160156 111.972656 136.160156 81.113281 C 136.160156 50.25 111.144531 25.234375 80.28125 25.234375 " clip-rule="nonzero"/></clipPath></defs><g clip-path="url(#cb9b911213)"><g mask="url(#feac9cea34)"><g transform="matrix(1, 0, 0, 1, 0, 1)"><g clip-path="url(#40af5af67d)"><g clip-path="url(#557fb9687a)"><g clip-path="url(#7fd15f665a)"><path fill="#fcfaef" d="M 0.269531 0.101562 L 160.292969 0.101562 L 160.292969 160.125 L 0.269531 160.125 Z M 0.269531 0.101562 " fill-opacity="1" fill-rule="nonzero"/></g></g></g></g></g></g><g mask="url(#35e64bb31f)"><g transform="matrix(1, 0, 0, 1, 8, 9)"><g clip-path="url(#23b5db0356)"><g clip-path="url(#94657f4bf2)"><g clip-path="url(#cc7a724e25)"><path fill="#fcfaef" d="M 0.664062 0.496094 L 143.898438 0.496094 L 143.898438 143.730469 L 0.664062 143.730469 Z M 0.664062 0.496094 " fill-opacity="1" fill-rule="nonzero"/></g></g></g></g></g><g mask="url(#0a5bdbb432)"><g transform="matrix(1, 0, 0, 1, 15, 16)"><g clip-path="url(#746fcabeaf)"><g clip-path="url(#1e50f47e21)"><g clip-path="url(#788a0f8908)"><path fill="#122e49" d="M 0.914062 0.746094 L 129.648438 0.746094 L 129.648438 129.480469 L 0.914062 129.480469 Z M 0.914062 0.746094 " fill-opacity="1" fill-rule="nonzero"/></g></g></g></g></g><g clip-path="url(#adf7f4518f)"><g clip-path="url(#fef29a607c)"><path fill="#14a3fe" d="M 24.402344 25.234375 L 136.160156 25.234375 L 136.160156 136.992188 L 24.402344 136.992188 Z M 24.402344 25.234375 " fill-opacity="1" fill-rule="nonzero"/></g></g><g fill="#fcfaef" fill-opacity="1"><g transform="translate(59.862859, 100.46683)"><g><path d="M 21.671875 0.761719 C 30.089844 0.761719 34.925781 -2.878906 38.507812 -7.820312 L 30.578125 -13.46875 C 28.296875 -10.699219 25.960938 -8.851562 21.996094 -8.851562 C 16.675781 -8.851562 12.925781 -13.308594 12.925781 -19.011719 L 12.925781 -19.117188 C 12.925781 -24.660156 16.675781 -29.167969 21.996094 -29.167969 C 25.636719 -29.167969 28.132812 -27.429688 30.308594 -24.714844 L 38.238281 -30.851562 C 34.871094 -35.519531 29.871094 -38.78125 22.105469 -38.78125 C 10.589844 -38.78125 2.0625 -30.089844 2.0625 -19.011719 L 2.0625 -18.902344 C 2.0625 -7.550781 10.808594 0.761719 21.671875 0.761719 Z M 21.671875 0.761719 "/></g></g></g></svg>