<svg width="182" height="182" viewBox="0 0 182 182" fill="none" xmlns="http://www.w3.org/2000/svg">
<circle cx="91" cy="91" r="91" fill="white" fill-opacity="0.05"/>
<circle cx="91" cy="91" r="79" fill="white" fill-opacity="0.2"/>
<circle cx="91" cy="91" r="68" fill="#14a3fe"/>
<path d="M92.89 132.54C70.89 132.54 53.18 115.71 53.18 92.72V92.5C53.18 70.06 70.45 52.46 93.77 52.46C109.5 52.46 119.62 59.06 126.44 68.52L110.38 80.95C105.98 75.45 100.92 71.93 93.55 71.93C82.77 71.93 75.18 81.06 75.18 92.28V92.5C75.18 104.05 82.77 113.07 93.55 113.07C101.58 113.07 106.31 109.33 110.93 103.72L126.99 115.16C119.73 125.17 109.94 132.54 92.89 132.54Z" fill="#fcfaef"/>
</svg>
