<svg xmlns="http://www.w3.org/2000/svg" xmlns:xlink="http://www.w3.org/1999/xlink" width="215" zoomAndPan="magnify" viewBox="0 0 161.25 161.999997" height="216" preserveAspectRatio="xMidYMid meet" version="1.0"><defs><filter x="0%" y="0%" width="100%" height="100%" id="a7e15ad1ea"><feColorMatrix values="0 0 0 0 1 0 0 0 0 1 0 0 0 0 1 0 0 0 1 0" color-interpolation-filters="sRGB"/></filter><g/><clipPath id="ca7b06e839"><path d="M 0 0.375 L 160.503906 0.375 L 160.503906 161.625 L 0 161.625 Z M 0 0.375 " clip-rule="nonzero"/></clipPath><mask id="681c69146f"><g filter="url(#a7e15ad1ea)"><rect x="-16.125" width="193.5" fill="#000000" y="-16.2" height="194.399996" fill-opacity="0.0863"/></g></mask><clipPath id="b6ca574ffa"><path d="M 0.269531 1.007812 L 160.292969 1.007812 L 160.292969 161.027344 L 0.269531 161.027344 Z M 0.269531 1.007812 " clip-rule="nonzero"/></clipPath><clipPath id="68d66ac7c7"><path d="M 80.28125 1.007812 C 36.09375 1.007812 0.269531 36.828125 0.269531 81.019531 C 0.269531 125.207031 36.09375 161.027344 80.28125 161.027344 C 124.46875 161.027344 160.292969 125.207031 160.292969 81.019531 C 160.292969 36.828125 124.46875 1.007812 80.28125 1.007812 " clip-rule="nonzero"/></clipPath><clipPath id="c4267398f9"><rect x="0" width="161" y="0" height="162"/></clipPath><mask id="36348582fb"><g filter="url(#a7e15ad1ea)"><rect x="-16.125" width="193.5" fill="#000000" y="-16.2" height="194.399996" fill-opacity="0.1569"/></g></mask><clipPath id="596606f429"><path d="M 0.664062 0.402344 L 143.898438 0.402344 L 143.898438 143.636719 L 0.664062 143.636719 Z M 0.664062 0.402344 " clip-rule="nonzero"/></clipPath><clipPath id="578532de46"><path d="M 72.28125 0.402344 C 32.726562 0.402344 0.664062 32.464844 0.664062 72.019531 C 0.664062 111.570312 32.726562 143.636719 72.28125 143.636719 C 111.835938 143.636719 143.898438 111.570312 143.898438 72.019531 C 143.898438 32.464844 111.835938 0.402344 72.28125 0.402344 " clip-rule="nonzero"/></clipPath><clipPath id="c88afcfd4b"><rect x="0" width="144" y="0" height="144"/></clipPath><mask id="2f62b1a8d5"><g filter="url(#a7e15ad1ea)"><rect x="-16.125" width="193.5" fill="#000000" y="-16.2" height="194.399996" fill-opacity="0.4275"/></g></mask><clipPath id="b31edb309a"><path d="M 0.914062 0.648438 L 129.648438 0.648438 L 129.648438 129.386719 L 0.914062 129.386719 Z M 0.914062 0.648438 " clip-rule="nonzero"/></clipPath><clipPath id="68bf6bd7f9"><path d="M 65.28125 0.648438 C 29.730469 0.648438 0.914062 29.46875 0.914062 65.019531 C 0.914062 100.566406 29.730469 129.386719 65.28125 129.386719 C 100.832031 129.386719 129.648438 100.566406 129.648438 65.019531 C 129.648438 29.46875 100.832031 0.648438 65.28125 0.648438 " clip-rule="nonzero"/></clipPath><clipPath id="9d33a7796b"><rect x="0" width="130" y="0" height="130"/></clipPath><clipPath id="227b03bf19"><path d="M 24.402344 25.136719 L 136.160156 25.136719 L 136.160156 136.898438 L 24.402344 136.898438 Z M 24.402344 25.136719 " clip-rule="nonzero"/></clipPath><clipPath id="e8a924ed57"><path d="M 80.28125 25.136719 C 49.417969 25.136719 24.402344 50.15625 24.402344 81.019531 C 24.402344 111.878906 49.417969 136.898438 80.28125 136.898438 C 111.144531 136.898438 136.160156 111.878906 136.160156 81.019531 C 136.160156 50.15625 111.144531 25.136719 80.28125 25.136719 " clip-rule="nonzero"/></clipPath></defs><g clip-path="url(#ca7b06e839)"><g mask="url(#681c69146f)"><g transform="matrix(1, 0, 0, 1, 0, -0.00000000000000222)"><g clip-path="url(#c4267398f9)"><g clip-path="url(#b6ca574ffa)"><g clip-path="url(#68d66ac7c7)"><path fill="#fcfaef" d="M 0.269531 1.007812 L 160.292969 1.007812 L 160.292969 161.027344 L 0.269531 161.027344 Z M 0.269531 1.007812 " fill-opacity="1" fill-rule="nonzero"/></g></g></g></g></g></g><g mask="url(#36348582fb)"><g transform="matrix(1, 0, 0, 1, 8, 9)"><g clip-path="url(#c88afcfd4b)"><g clip-path="url(#596606f429)"><g clip-path="url(#578532de46)"><path fill="#fcfaef" d="M 0.664062 0.402344 L 143.898438 0.402344 L 143.898438 143.636719 L 0.664062 143.636719 Z M 0.664062 0.402344 " fill-opacity="1" fill-rule="nonzero"/></g></g></g></g></g><g mask="url(#2f62b1a8d5)"><g transform="matrix(1, 0, 0, 1, 15, 16)"><g clip-path="url(#9d33a7796b)"><g clip-path="url(#b31edb309a)"><g clip-path="url(#68bf6bd7f9)"><path fill="#122e49" d="M 0.914062 0.648438 L 129.648438 0.648438 L 129.648438 129.386719 L 0.914062 129.386719 Z M 0.914062 0.648438 " fill-opacity="1" fill-rule="nonzero"/></g></g></g></g></g><g clip-path="url(#227b03bf19)"><g clip-path="url(#e8a924ed57)"><path fill="#ff3131" d="M 24.402344 25.136719 L 136.160156 25.136719 L 136.160156 136.898438 L 24.402344 136.898438 Z M 24.402344 25.136719 " fill-opacity="1" fill-rule="nonzero"/></g></g><g fill="#fcfaef" fill-opacity="1"><g transform="translate(58.907879, 100.372068)"><g><path d="M 3.367188 0 L 17.816406 0 C 31.503906 0 39.488281 -8.148438 39.488281 -19.117188 L 39.488281 -19.226562 C 39.488281 -30.199219 31.609375 -38.019531 18.03125 -38.019531 L 3.367188 -38.019531 Z M 13.90625 -9.34375 L 13.90625 -28.679688 L 18.195312 -28.679688 C 24.496094 -28.679688 28.679688 -25.148438 28.679688 -19.0625 L 28.679688 -18.957031 C 28.679688 -12.816406 24.496094 -9.34375 18.195312 -9.34375 Z M 13.90625 -9.34375 "/></g></g></g></svg>