<svg xmlns="http://www.w3.org/2000/svg" xmlns:xlink="http://www.w3.org/1999/xlink" width="500" zoomAndPan="magnify" viewBox="0 0 375 149.999998" height="200" preserveAspectRatio="xMidYMid meet" version="1.0"><defs><filter x="0%" y="0%" width="100%" height="100%" id="e6c15bd920"><feColorMatrix values="0 0 0 0 1 0 0 0 0 1 0 0 0 0 1 0 0 0 1 0" color-interpolation-filters="sRGB"/></filter><g/><clipPath id="b76dff50f0"><path d="M 283 110 L 338 110 L 338 132.738281 L 283 132.738281 Z M 283 110 " clip-rule="nonzero"/></clipPath><clipPath id="f0d51b85b5"><path d="M 257 50 L 360 50 L 360 132.738281 L 257 132.738281 Z M 257 50 " clip-rule="nonzero"/></clipPath><clipPath id="0bb828c39c"><path d="M 286 17.238281 L 317 17.238281 L 317 42 L 286 42 Z M 286 17.238281 " clip-rule="nonzero"/></clipPath><clipPath id="77412ed08b"><path d="M 317 127 L 354 127 L 354 132.738281 L 317 132.738281 Z M 317 127 " clip-rule="nonzero"/></clipPath><mask id="2955f0d856"><g filter="url(#e6c15bd920)"><rect x="-37.5" width="450" fill="#000000" y="-15" height="179.999997" fill-opacity="0.4196"/></g></mask><clipPath id="64e0461f87"><path d="M 0.078125 0.398438 L 22.878906 0.398438 L 22.878906 36.160156 L 0.078125 36.160156 Z M 0.078125 0.398438 " clip-rule="nonzero"/></clipPath><clipPath id="07e81f6aaa"><rect x="0" width="23" y="0" height="37"/></clipPath></defs><path fill="#c6302c" d="M 266.785156 61.183594 C 262.941406 62.695312 258.386719 62.261719 254.898438 60.054688 C 253.773438 59.34375 252.683594 58.324219 252.542969 57 C 252.40625 55.679688 253.789062 54.25 255 54.800781 C 252.234375 52.066406 251.402344 47.566406 253.015625 44.03125 C 253.144531 43.742188 253.316406 43.441406 253.609375 43.328125 C 253.945312 43.199219 254.320312 43.363281 254.675781 43.339844 C 255.289062 43.300781 255.726562 42.742188 256.039062 42.214844 C 257.359375 39.980469 257.988281 37.40625 259.132812 35.074219 C 260.277344 32.742188 262.183594 30.519531 264.75 30.101562 C 268.390625 29.511719 271.671875 32.703125 275.359375 32.769531 C 276.207031 30.152344 279.046875 28.757812 281.707031 28.054688 C 284.175781 27.402344 286.734375 27.09375 289.285156 27.136719 C 290.148438 27.152344 291.035156 27.214844 291.808594 27.59375 C 293.164062 28.25 293.921875 29.777344 294.066406 31.277344 C 294.210938 32.773438 293.84375 34.269531 293.480469 35.726562 C 295.4375 35.035156 298.019531 34.507812 299.261719 36.171875 C 300.09375 37.285156 299.835938 38.84375 299.496094 40.191406 C 298.730469 43.183594 297.546875 45.992188 296.351562 48.859375 C 295.292969 51.382812 292.921875 52.65625 290.636719 53.921875 C 287.886719 55.441406 284.785156 56.191406 281.726562 56.929688 C 277.1875 58.019531 271.128906 59.472656 266.785156 61.183594 Z M 266.785156 61.183594 " fill-opacity="1" fill-rule="nonzero"/><g clip-path="url(#b76dff50f0)"><path fill="#f55d4e" d="M 283.804688 113.808594 C 284.15625 114.941406 284.421875 115.976562 284.925781 117.171875 C 286.023438 119.796875 288.464844 121.578125 290.808594 123.195312 C 292.34375 124.253906 294.199219 125.207031 296.019531 125.613281 C 293.1875 126.449219 290.261719 126.824219 287.324219 127.152344 C 291.328125 128.132812 295.550781 128.636719 299.667969 128.453125 C 304.296875 129.957031 309.023438 132.09375 313.890625 132.09375 C 321.757812 132.09375 329.933594 132.058594 337.957031 132.039062 C 334.496094 125.417969 332.300781 118.171875 331.773438 110.550781 C 315.90625 112.203125 299.742188 112.691406 283.804688 113.808594 Z M 283.804688 113.808594 " fill-opacity="1" fill-rule="nonzero"/></g><g clip-path="url(#f0d51b85b5)"><path fill="#fcfaef" d="M 359 107.53125 C 357.367188 100.492188 355.046875 93.636719 352.734375 86.789062 C 349.921875 78.476562 347.113281 70.164062 344.300781 61.851562 C 343.988281 60.929688 343.65625 59.976562 342.96875 59.292969 C 342.273438 58.601562 341.304688 58.273438 340.371094 57.96875 C 332.75 55.480469 325.132812 52.992188 317.511719 50.503906 C 312.621094 53.304688 307.691406 56.011719 302.65625 58.550781 C 293.617188 63.109375 284.554688 67.6875 276.128906 73.296875 C 274.570312 74.332031 273.015625 75.421875 271.816406 76.855469 C 270.570312 78.339844 269.757812 80.128906 268.851562 81.839844 C 265.59375 87.976562 260.96875 93.324219 257.878906 99.546875 C 257.371094 100.570312 256.921875 101.855469 257.574219 102.796875 C 257.914062 103.285156 258.484375 103.558594 259.046875 103.753906 C 260.007812 104.089844 261.414062 103.859375 262.414062 104.019531 C 269.175781 105.113281 275.675781 106.566406 282.28125 108.371094 C 282.429688 109.863281 282.9375 111.296875 283.441406 112.710938 C 283.578125 113.09375 283.695312 113.453125 283.804688 113.808594 C 299.742188 112.691406 315.90625 112.203125 331.773438 110.550781 C 332.300781 118.171875 334.496094 125.417969 337.957031 132.039062 C 340.699219 132.035156 343.421875 132.03125 346.109375 132.03125 C 353.183594 129.488281 359.339844 123.292969 359.941406 115.8125 C 360.164062 113.03125 359.632812 110.25 359 107.53125 Z M 359 107.53125 " fill-opacity="1" fill-rule="nonzero"/></g><path fill="#f55d4e" d="M 261.238281 58.867188 C 264.371094 61.066406 267.519531 63.28125 270.214844 66 C 271.734375 67.535156 273.167969 69.386719 273.269531 71.542969 C 274.546875 70.402344 275.253906 69.425781 276.390625 68.140625 C 280.867188 70.320312 285 72.550781 289.816406 73.832031 C 289.710938 73.75 289.921875 73.914062 289.816406 73.832031 C 290.136719 73.605469 290.226562 73.515625 290.445312 73.191406 C 292.292969 70.414062 293.726562 67.367188 294.691406 64.179688 C 297.238281 63.566406 299.449219 63.375 302.019531 63.871094 C 302.917969 62.578125 303.792969 60.839844 303.933594 59.273438 C 304.296875 55.199219 304.949219 51.628906 304.210938 47.609375 C 299.972656 47.585938 295.632812 47.308594 291.929688 47.171875 C 291.929688 47.171875 291.730469 46.089844 291.546875 45.222656 C 291.277344 43.960938 290.300781 42.304688 289.414062 41.367188 C 288.292969 40.179688 286.609375 39.507812 284.988281 39.71875 C 283.367188 39.929688 281.875 41.070312 281.359375 42.621094 C 281.1875 43.140625 281.121094 43.707031 281.246094 44.246094 C 281.523438 45.449219 282.660156 46.242188 283.753906 46.820312 C 282.539062 46.257812 281.234375 46.875 280.175781 47.695312 C 279.121094 48.515625 278.578125 49.949219 278.828125 51.261719 C 278.882812 51.539062 278.96875 51.820312 278.914062 52.097656 C 278.820312 52.558594 278.378906 52.855469 277.949219 53.046875 C 276.464844 53.699219 274.78125 53.664062 273.164062 53.796875 C 272.941406 53.8125 272.691406 53.851562 272.570312 54.039062 C 272.476562 54.1875 272.496094 54.378906 272.496094 54.554688 C 272.503906 55.941406 271.054688 56.839844 269.753906 57.335938 C 267.179688 58.316406 263.992188 58.855469 261.238281 58.867188 Z M 261.238281 58.867188 " fill-opacity="1" fill-rule="nonzero"/><path fill="#91cdca" d="M 283.851562 73.6875 C 285.804688 74.742188 287.335938 76.558594 288.113281 79.371094 C 288.273438 79.949219 288.40625 80.554688 288.765625 81.035156 C 289.21875 81.640625 289.972656 81.964844 290.722656 82.058594 C 291.472656 82.152344 292.230469 82.046875 292.980469 81.9375 C 292.886719 82.429688 292.6875 82.898438 292.398438 83.304688 C 292.613281 86.976562 291.1875 91.125 288.277344 93.378906 C 285.4375 95.574219 281.761719 96.304688 278.234375 96.96875 C 276.003906 97.390625 273.773438 99.265625 271.539062 99.683594 C 269.496094 100.070312 267.253906 98.972656 265.445312 97.945312 C 264.59375 97.460938 263.925781 96.710938 263.335938 95.933594 C 260.351562 91.992188 259.171875 85.777344 261.328125 81.175781 C 264.632812 74.148438 276.75 69.835938 283.851562 73.6875 Z M 283.851562 73.6875 " fill-opacity="1" fill-rule="nonzero"/><path fill="#4f8987" d="M 281.742188 87.761719 C 284.980469 85.691406 288.816406 84.8125 292.582031 84.03125 C 292.953125 83.953125 293.347656 83.878906 293.707031 84.003906 C 294.511719 84.277344 294.691406 85.363281 294.46875 86.183594 C 294.246094 87 293.765625 87.765625 293.761719 88.617188 C 293.753906 89.878906 294.835938 90.925781 296.027344 91.351562 C 297.21875 91.78125 298.515625 91.738281 299.777344 91.796875 C 302.460938 91.917969 305.117188 92.527344 307.585938 93.578125 C 309.460938 94.378906 311.230469 95.433594 313.164062 96.074219 C 316.1875 97.078125 319.492188 97.035156 322.496094 98.089844 C 325.214844 99.042969 327.539062 100.839844 329.8125 102.605469 C 331.039062 103.558594 332.265625 104.515625 333.496094 105.46875 C 335.363281 106.921875 337.359375 108.566406 337.859375 110.878906 C 338.359375 113.175781 337.238281 115.484375 336.15625 117.570312 C 335.703125 118.4375 335.242188 119.324219 334.550781 120.015625 C 333.96875 120.601562 333.246094 121.027344 332.511719 121.402344 C 330.019531 122.679688 327.273438 123.453125 324.480469 123.667969 C 320.960938 123.9375 317.445312 123.328125 313.96875 122.722656 C 312.035156 122.382812 310.101562 122.046875 308.164062 121.707031 C 302.476562 120.710938 296.789062 119.71875 291.101562 118.726562 C 288.542969 118.277344 285.890625 117.792969 283.753906 116.316406 C 281.285156 114.605469 279.84375 111.808594 278.554688 109.097656 C 275.078125 101.769531 273.910156 92.769531 281.742188 87.761719 Z M 281.742188 87.761719 " fill-opacity="1" fill-rule="nonzero"/><path fill="#f55d4e" d="M 271.871094 114.207031 C 277.773438 111.667969 283.675781 109.125 289.578125 106.585938 C 291.390625 105.804688 293.605469 104.4375 295.054688 105.777344 C 300.523438 110.84375 306.792969 115.046875 313.554688 118.1875 C 310.75 115.972656 308.722656 113.15625 306.683594 110.226562 C 310.390625 113.9375 314.875 116.875 319.761719 118.789062 C 317.664062 116.183594 315.570312 113.574219 313.472656 110.96875 C 312.746094 110.0625 312.554688 109.167969 311.867188 108.234375 C 315.847656 111.757812 320.347656 114.695312 325.175781 116.921875 C 325.488281 117.066406 325.945312 117.167969 326.109375 116.863281 C 323.957031 114.648438 321.804688 112.433594 319.652344 110.21875 C 318.101562 108.621094 317.308594 106.820312 315.933594 105.074219 C 318.695312 106.066406 321.003906 108.132812 323.832031 108.910156 C 325.46875 109.363281 327.199219 109.355469 328.894531 109.25 C 323.585938 105.699219 318.613281 101.542969 314.28125 96.851562 C 316.472656 96.566406 318.699219 95.582031 320.402344 94.175781 C 311.804688 94.347656 303.269531 92.871094 294.992188 90.539062 C 282.351562 94.40625 269.710938 98.273438 257.066406 102.140625 C 257.101562 105.042969 258.722656 107.816406 261.027344 109.589844 C 263.332031 111.363281 266.105469 112.398438 268.832031 113.410156 C 269.601562 113.695312 271.050781 114.195312 271.871094 114.207031 Z M 271.871094 114.207031 " fill-opacity="1" fill-rule="nonzero"/><path fill="#f55d4e" d="M 295.394531 59.652344 C 296.761719 69.246094 299.171875 78.691406 302.570312 87.765625 C 308.261719 78.53125 314.675781 69.472656 316.304688 58.753906 C 316.710938 56.070312 316.847656 53.355469 316.984375 50.644531 C 312.4375 49.554688 308.835938 48.289062 304.210938 47.609375 C 304.265625 47.488281 303.699219 47.878906 303.570312 47.90625 C 303.441406 47.9375 303.355469 48.054688 303.28125 48.167969 C 300.421875 52.390625 298.253906 55.425781 295.394531 59.652344 Z M 295.394531 59.652344 " fill-opacity="1" fill-rule="nonzero"/><g clip-path="url(#0bb828c39c)"><path fill="#c6302c" d="M 289.390625 31.632812 C 288.0625 28.089844 286.828125 23.800781 289.121094 20.789062 C 289.941406 19.710938 291.128906 18.960938 292.378906 18.433594 C 295.121094 17.277344 298.777344 17.351562 300.550781 19.738281 C 301.433594 20.929688 301.679688 22.464844 302.320312 23.800781 C 303.289062 25.816406 305.214844 27.347656 307.402344 27.839844 C 309.585938 28.332031 311.988281 27.773438 313.730469 26.367188 C 313.933594 27.890625 312.726562 29.320312 311.300781 29.902344 C 309.875 30.484375 308.277344 30.417969 306.738281 30.339844 C 309.714844 31.785156 313.242188 32.0625 316.40625 31.101562 C 316.695312 35.121094 314.402344 39.292969 310.710938 40.917969 C 307.015625 42.542969 302.179688 41.265625 300.027344 37.855469 C 299.414062 36.882812 299.015625 35.785156 298.390625 34.824219 C 295.941406 31.070312 290.855469 30.304688 286.386719 29.894531 " fill-opacity="1" fill-rule="nonzero"/></g><path fill="#c6302c" d="M 282.648438 70.914062 C 282.648438 70.914062 282.808594 70.808594 283.042969 70.5625 C 283.273438 70.316406 283.5625 69.914062 283.769531 69.351562 C 283.976562 68.792969 284.097656 68.078125 284.09375 67.289062 C 284.09375 66.496094 283.964844 65.628906 283.769531 64.726562 C 283.378906 62.910156 282.917969 61.285156 282.597656 60.101562 C 282.28125 58.921875 282.082031 58.1875 282.082031 58.1875 C 282.082031 58.1875 282.375 58.886719 282.800781 60.039062 C 283.222656 61.191406 283.785156 62.796875 284.183594 64.636719 C 284.378906 65.558594 284.488281 66.46875 284.449219 67.296875 C 284.414062 68.125 284.234375 68.863281 283.960938 69.429688 C 283.695312 70 283.351562 70.386719 283.089844 70.609375 C 282.957031 70.71875 282.84375 70.796875 282.769531 70.84375 C 282.691406 70.886719 282.648438 70.914062 282.648438 70.914062 Z M 282.648438 70.914062 " fill-opacity="1" fill-rule="nonzero"/><path fill="#c6302c" d="M 271.238281 64.589844 C 271.238281 64.589844 271.300781 64.5625 271.410156 64.511719 C 271.519531 64.460938 271.667969 64.367188 271.824219 64.230469 C 272.136719 63.953125 272.449219 63.457031 272.589844 62.855469 C 272.730469 62.242188 272.722656 61.640625 272.71875 61.203125 C 272.71875 60.769531 272.714844 60.488281 272.714844 60.488281 C 272.714844 60.488281 272.816406 60.746094 272.929688 61.179688 C 273.035156 61.609375 273.160156 62.242188 273 62.949219 C 272.835938 63.664062 272.359375 64.1875 271.945312 64.402344 C 271.738281 64.511719 271.554688 64.558594 271.429688 64.574219 C 271.304688 64.589844 271.238281 64.589844 271.238281 64.589844 Z M 271.238281 64.589844 " fill-opacity="1" fill-rule="nonzero"/><path fill="#c6302c" d="M 270.691406 58.519531 C 270.691406 58.519531 270.480469 58.703125 270.15625 59.003906 C 269.832031 59.304688 269.414062 59.734375 268.980469 60.234375 C 268.550781 60.734375 268.1875 61.21875 267.941406 61.582031 C 267.691406 61.945312 267.542969 62.183594 267.542969 62.183594 C 267.542969 62.183594 267.59375 61.90625 267.753906 61.484375 C 267.914062 61.058594 268.207031 60.492188 268.660156 59.960938 C 269.117188 59.429688 269.636719 59.058594 270.03125 58.835938 C 270.425781 58.609375 270.691406 58.519531 270.691406 58.519531 Z M 270.691406 58.519531 " fill-opacity="1" fill-rule="nonzero"/><path fill="#c6302c" d="M 286.175781 47.199219 C 286.1875 47.199219 286.097656 47.214844 286.050781 47.113281 C 286.007812 47.015625 286.011719 46.871094 286.007812 46.695312 C 286.015625 46.335938 286.085938 45.796875 286.394531 45.210938 C 286.46875 45.066406 286.5625 44.917969 286.671875 44.773438 C 286.785156 44.632812 286.898438 44.480469 287.078125 44.351562 C 287.25 44.21875 287.539062 44.164062 287.773438 44.261719 C 288.007812 44.351562 288.179688 44.519531 288.320312 44.703125 C 288.589844 45.074219 288.769531 45.515625 288.84375 46.003906 C 288.882812 46.246094 288.886719 46.496094 288.863281 46.75 C 288.859375 46.8125 288.847656 46.875 288.839844 46.9375 L 288.816406 47.050781 C 288.808594 47.109375 288.792969 47.164062 288.765625 47.214844 C 288.71875 47.3125 288.628906 47.382812 288.519531 47.398438 C 288.414062 47.414062 288.304688 47.375 288.207031 47.304688 C 288.101562 47.21875 287.996094 47.132812 287.890625 47.050781 C 287.800781 46.964844 287.710938 46.882812 287.621094 46.796875 C 287.445312 46.625 287.285156 46.449219 287.136719 46.265625 C 286.835938 45.902344 286.582031 45.527344 286.363281 45.160156 C 285.933594 44.421875 285.625 43.71875 285.382812 43.128906 C 285.148438 42.539062 284.949219 42.050781 284.894531 41.6875 C 284.863281 41.511719 284.859375 41.367188 284.863281 41.273438 C 284.871094 41.179688 284.878906 41.128906 284.878906 41.128906 C 284.878906 41.128906 284.875 41.179688 284.882812 41.273438 C 284.890625 41.367188 284.910156 41.503906 284.957031 41.675781 C 285.050781 42.015625 285.289062 42.472656 285.578125 43.039062 C 285.863281 43.605469 286.214844 44.277344 286.667969 44.972656 C 286.894531 45.320312 287.152344 45.671875 287.441406 46.007812 C 287.589844 46.175781 287.746094 46.339844 287.910156 46.5 L 288.167969 46.734375 L 288.414062 46.933594 L 288.425781 46.867188 C 288.433594 46.8125 288.445312 46.761719 288.449219 46.707031 C 288.472656 46.488281 288.472656 46.269531 288.445312 46.058594 C 288.394531 45.636719 288.242188 45.234375 288.03125 44.910156 C 287.925781 44.753906 287.792969 44.625 287.652344 44.558594 C 287.511719 44.496094 287.371094 44.511719 287.234375 44.59375 C 287.101562 44.675781 286.976562 44.804688 286.867188 44.929688 C 286.753906 45.054688 286.660156 45.183594 286.578125 45.316406 C 286.242188 45.839844 286.117188 46.347656 286.074219 46.699219 C 286.058594 46.875 286.035156 47.011719 286.066406 47.105469 C 286.097656 47.207031 286.183594 47.199219 286.175781 47.199219 Z M 286.175781 47.199219 " fill-opacity="1" fill-rule="nonzero"/><path fill="#c6302c" d="M 293.859375 66.007812 C 293.859375 66.007812 294.023438 65.460938 294.261719 64.582031 C 294.5 63.699219 294.792969 62.476562 295.046875 61.113281 C 295.304688 59.75 295.472656 58.503906 295.570312 57.597656 C 295.667969 56.6875 295.710938 56.121094 295.710938 56.121094 C 295.710938 56.121094 295.773438 56.6875 295.78125 57.609375 C 295.789062 58.527344 295.722656 59.804688 295.460938 61.191406 C 295.203125 62.574219 294.800781 63.792969 294.460938 64.644531 C 294.121094 65.5 293.859375 66.007812 293.859375 66.007812 Z M 293.859375 66.007812 " fill-opacity="1" fill-rule="nonzero"/><path fill="#fcfaef" d="M 294.03125 31.695312 C 294.03125 31.695312 293.917969 31.695312 293.71875 31.695312 C 293.515625 31.703125 293.222656 31.679688 292.863281 31.621094 C 292.503906 31.566406 292.082031 31.453125 291.632812 31.277344 C 291.183594 31.089844 290.710938 30.839844 290.257812 30.507812 C 289.8125 30.167969 289.433594 29.785156 289.128906 29.410156 C 288.832031 29.03125 288.601562 28.660156 288.445312 28.332031 C 288.285156 28.003906 288.179688 27.730469 288.128906 27.535156 C 288.074219 27.34375 288.042969 27.238281 288.042969 27.238281 C 288.042969 27.238281 288.09375 27.335938 288.1875 27.511719 C 288.277344 27.6875 288.429688 27.9375 288.625 28.226562 C 288.824219 28.519531 289.085938 28.84375 289.398438 29.179688 C 289.71875 29.511719 290.089844 29.851562 290.511719 30.167969 C 290.9375 30.480469 291.367188 30.742188 291.777344 30.953125 C 292.191406 31.152344 292.578125 31.3125 292.914062 31.417969 C 293.25 31.523438 293.527344 31.597656 293.726562 31.632812 C 293.921875 31.671875 294.03125 31.695312 294.03125 31.695312 Z M 294.03125 31.695312 " fill-opacity="1" fill-rule="nonzero"/><path fill="#c6302c" d="M 307.246094 30.507812 C 307.246094 30.507812 307.101562 30.5 306.839844 30.488281 C 306.582031 30.46875 306.203125 30.441406 305.742188 30.375 C 304.820312 30.242188 303.542969 29.960938 302.226562 29.394531 C 301.566406 29.113281 300.960938 28.808594 300.433594 28.46875 C 299.90625 28.132812 299.472656 27.753906 299.175781 27.375 C 298.878906 27 298.726562 26.636719 298.660156 26.378906 C 298.628906 26.253906 298.609375 26.152344 298.605469 26.082031 C 298.597656 26.015625 298.59375 25.980469 298.59375 25.980469 C 298.59375 25.980469 298.601562 26.011719 298.621094 26.078125 C 298.640625 26.144531 298.671875 26.242188 298.722656 26.359375 C 298.824219 26.59375 299.015625 26.917969 299.335938 27.238281 C 299.964844 27.894531 301.105469 28.460938 302.390625 29.007812 C 303.675781 29.558594 304.890625 29.933594 305.785156 30.167969 C 306.230469 30.285156 306.597656 30.367188 306.851562 30.421875 C 307.105469 30.476562 307.246094 30.507812 307.246094 30.507812 Z M 307.246094 30.507812 " fill-opacity="1" fill-rule="nonzero"/><path fill="#fcfaef" d="M 275.960938 32.828125 C 275.960938 32.828125 275.925781 32.847656 275.855469 32.886719 C 275.785156 32.925781 275.6875 32.996094 275.589844 33.109375 C 275.398438 33.328125 275.199219 33.769531 275.324219 34.273438 C 275.449219 34.769531 275.925781 35.261719 276.578125 35.460938 C 276.90625 35.5625 277.269531 35.597656 277.652344 35.578125 C 278.035156 35.558594 278.441406 35.515625 278.785156 35.367188 C 279.136719 35.222656 279.359375 34.945312 279.308594 34.644531 C 279.265625 34.347656 278.984375 34.085938 278.703125 33.90625 C 278.109375 33.5625 277.457031 33.359375 276.933594 33.222656 C 276.402344 33.089844 275.957031 33.03125 275.648438 33.003906 C 275.339844 32.972656 275.167969 32.96875 275.167969 32.96875 C 275.167969 32.96875 275.339844 32.949219 275.652344 32.9375 C 275.964844 32.925781 276.417969 32.933594 276.976562 33.019531 C 277.535156 33.113281 278.1875 33.246094 278.886719 33.601562 C 279.054688 33.699219 279.226562 33.816406 279.375 33.972656 C 279.523438 34.128906 279.664062 34.328125 279.707031 34.582031 C 279.753906 34.828125 279.691406 35.101562 279.535156 35.3125 C 279.382812 35.523438 279.167969 35.65625 278.953125 35.75 C 278.515625 35.9375 278.078125 35.96875 277.664062 35.980469 C 277.246094 35.988281 276.832031 35.933594 276.464844 35.796875 C 275.71875 35.527344 275.207031 34.910156 275.117188 34.316406 C 275.03125 33.710938 275.3125 33.265625 275.542969 33.0625 C 275.660156 32.957031 275.769531 32.902344 275.84375 32.871094 C 275.921875 32.84375 275.960938 32.828125 275.960938 32.828125 Z M 275.960938 32.828125 " fill-opacity="1" fill-rule="nonzero"/><path fill="#fcfaef" d="M 254.769531 54.277344 C 254.769531 54.277344 254.925781 54.25 255.214844 54.222656 C 255.5 54.191406 255.921875 54.167969 256.441406 54.191406 C 256.960938 54.21875 257.582031 54.296875 258.25 54.480469 C 258.578125 54.574219 258.945312 54.667969 259.289062 54.910156 C 259.628906 55.144531 259.929688 55.589844 259.820312 56.105469 C 259.757812 56.359375 259.589844 56.558594 259.398438 56.6875 C 259.210938 56.816406 258.988281 56.886719 258.777344 56.902344 C 258.351562 56.933594 257.984375 56.816406 257.65625 56.707031 C 256.996094 56.484375 256.445312 56.175781 256.019531 55.871094 C 255.59375 55.570312 255.289062 55.277344 255.089844 55.066406 C 254.890625 54.855469 254.792969 54.730469 254.792969 54.730469 C 254.792969 54.730469 254.910156 54.839844 255.132812 55.019531 C 255.355469 55.199219 255.691406 55.445312 256.132812 55.695312 C 256.574219 55.945312 257.125 56.195312 257.761719 56.371094 C 258.082031 56.457031 258.417969 56.539062 258.734375 56.5 C 259.039062 56.472656 259.347656 56.273438 259.410156 56.007812 C 259.476562 55.738281 259.304688 55.414062 259.050781 55.234375 C 258.796875 55.039062 258.464844 54.929688 258.148438 54.820312 C 257.515625 54.609375 256.925781 54.476562 256.421875 54.402344 C 255.917969 54.324219 255.503906 54.296875 255.214844 54.289062 C 254.929688 54.28125 254.769531 54.277344 254.769531 54.277344 Z M 254.769531 54.277344 " fill-opacity="1" fill-rule="nonzero"/><path fill="#fcfaef" d="M 293.339844 35.898438 C 293.339844 35.898438 293.355469 35.941406 293.378906 36.023438 C 293.410156 36.105469 293.445312 36.226562 293.488281 36.386719 C 293.566406 36.707031 293.664062 37.175781 293.6875 37.769531 C 293.710938 38.363281 293.664062 39.078125 293.449219 39.84375 C 293.332031 40.222656 293.234375 40.621094 292.945312 41.019531 C 292.800781 41.210938 292.570312 41.386719 292.296875 41.433594 C 292.023438 41.488281 291.753906 41.421875 291.523438 41.300781 C 291.292969 41.175781 291.101562 41 290.964844 40.789062 C 290.824219 40.574219 290.753906 40.324219 290.738281 40.09375 C 290.695312 39.621094 290.828125 39.191406 290.984375 38.824219 C 291.3125 38.09375 291.726562 37.519531 292.109375 37.066406 C 292.492188 36.613281 292.851562 36.296875 293.105469 36.089844 C 293.363281 35.882812 293.511719 35.78125 293.511719 35.78125 C 293.511719 35.78125 293.378906 35.902344 293.152344 36.136719 C 292.925781 36.371094 292.609375 36.722656 292.273438 37.195312 C 291.941406 37.664062 291.582031 38.261719 291.3125 38.957031 C 291.183594 39.304688 291.09375 39.683594 291.136719 40.054688 C 291.160156 40.242188 291.210938 40.414062 291.3125 40.5625 C 291.414062 40.714844 291.558594 40.839844 291.71875 40.929688 C 292.054688 41.113281 292.414062 41.054688 292.628906 40.769531 C 292.851562 40.488281 292.984375 40.089844 293.109375 39.742188 C 293.347656 39.027344 293.449219 38.34375 293.476562 37.769531 C 293.507812 37.195312 293.464844 36.722656 293.421875 36.398438 C 293.398438 36.238281 293.378906 36.113281 293.363281 36.027344 C 293.347656 35.945312 293.339844 35.898438 293.339844 35.898438 Z M 293.339844 35.898438 " fill-opacity="1" fill-rule="nonzero"/><path fill="#fcfaef" d="M 272.617188 54.253906 C 272.617188 54.253906 272.59375 54.292969 272.523438 54.339844 C 272.449219 54.390625 272.328125 54.429688 272.167969 54.445312 C 271.859375 54.472656 271.402344 54.5 270.84375 54.394531 C 270.289062 54.289062 269.613281 54.019531 269.089844 53.425781 C 268.566406 52.859375 268.285156 51.867188 268.710938 51 C 268.816406 50.792969 268.949219 50.59375 269.164062 50.441406 C 269.273438 50.367188 269.410156 50.3125 269.546875 50.300781 C 269.679688 50.289062 269.800781 50.308594 269.910156 50.332031 C 270.351562 50.4375 270.703125 50.707031 270.960938 50.992188 C 271.472656 51.574219 271.734375 52.191406 271.964844 52.699219 C 272.183594 53.210938 272.316406 53.640625 272.398438 53.941406 C 272.480469 54.238281 272.511719 54.40625 272.511719 54.40625 C 272.511719 54.40625 272.449219 54.25 272.335938 53.960938 C 272.214844 53.675781 272.035156 53.269531 271.773438 52.789062 C 271.503906 52.316406 271.191406 51.726562 270.703125 51.238281 C 270.460938 50.996094 270.160156 50.796875 269.820312 50.726562 C 269.644531 50.6875 269.519531 50.695312 269.402344 50.785156 C 269.28125 50.867188 269.167969 51.023438 269.089844 51.1875 C 268.921875 51.519531 268.882812 51.902344 268.941406 52.257812 C 268.996094 52.613281 269.15625 52.933594 269.363281 53.199219 C 269.789062 53.738281 270.378906 54.039062 270.890625 54.1875 C 271.410156 54.34375 271.859375 54.371094 272.167969 54.378906 C 272.320312 54.382812 272.4375 54.363281 272.511719 54.324219 C 272.589844 54.289062 272.617188 54.253906 272.617188 54.253906 Z M 272.617188 54.253906 " fill-opacity="1" fill-rule="nonzero"/><path fill="#c6302c" d="M 264.320312 86.1875 C 264.320312 86.1875 264.28125 86.183594 264.207031 86.160156 C 264.136719 86.132812 264.027344 86.089844 263.914062 85.992188 C 263.679688 85.816406 263.433594 85.402344 263.433594 84.863281 C 263.457031 83.820312 263.78125 82.390625 264.605469 81.023438 C 265.421875 79.652344 266.542969 78.699219 267.40625 78.152344 C 267.847656 77.878906 268.21875 77.695312 268.480469 77.582031 C 268.746094 77.472656 268.894531 77.410156 268.894531 77.410156 C 268.894531 77.410156 268.757812 77.492188 268.511719 77.640625 C 268.269531 77.785156 267.925781 78.015625 267.527344 78.324219 C 266.742188 78.945312 265.742188 79.929688 264.96875 81.238281 C 264.183594 82.535156 263.769531 83.890625 263.644531 84.867188 C 263.59375 85.355469 263.761719 85.746094 263.957031 85.945312 C 264.054688 86.050781 264.148438 86.105469 264.214844 86.140625 C 264.28125 86.175781 264.320312 86.1875 264.320312 86.1875 Z M 264.320312 86.1875 " fill-opacity="1" fill-rule="nonzero"/><path fill="#c6302c" d="M 284.777344 82.769531 C 284.777344 82.769531 284.917969 82.730469 285.117188 82.644531 C 285.3125 82.554688 285.554688 82.410156 285.792969 82.222656 C 286.03125 82.035156 286.230469 81.832031 286.359375 81.660156 C 286.492188 81.488281 286.5625 81.359375 286.5625 81.359375 C 286.5625 81.359375 286.566406 81.398438 286.574219 81.464844 C 286.578125 81.53125 286.574219 81.628906 286.550781 81.746094 C 286.511719 81.984375 286.355469 82.316406 286.054688 82.554688 C 285.753906 82.789062 285.398438 82.863281 285.15625 82.847656 C 285.035156 82.84375 284.9375 82.824219 284.875 82.804688 C 284.8125 82.78125 284.777344 82.769531 284.777344 82.769531 Z M 284.777344 82.769531 " fill-opacity="1" fill-rule="nonzero"/><path fill="#c6302c" d="M 359.738281 111.441406 C 359.738281 111.441406 359.742188 111.152344 359.671875 110.613281 C 359.605469 110.078125 359.460938 109.285156 359.222656 108.28125 C 358.980469 107.277344 358.648438 106.058594 358.21875 104.652344 C 357.785156 103.253906 357.253906 101.664062 356.671875 99.910156 C 354.332031 92.894531 350.828125 83.28125 347.34375 72.539062 C 346.453125 69.863281 345.582031 67.25 344.742188 64.726562 C 344.53125 64.09375 344.316406 63.46875 344.109375 62.847656 C 343.898438 62.230469 343.6875 61.628906 343.429688 61.0625 C 342.925781 59.921875 342.179688 58.953125 341.136719 58.390625 C 340.109375 57.796875 338.976562 57.445312 337.863281 57.167969 C 336.746094 56.890625 335.636719 56.679688 334.574219 56.40625 C 332.457031 55.871094 330.5 55.300781 328.746094 54.695312 C 325.253906 53.429688 322.464844 52.34375 320.519531 51.617188 C 318.582031 50.882812 317.511719 50.476562 317.511719 50.476562 C 317.511719 50.476562 321.84375 51.972656 328.84375 54.394531 C 330.605469 54.957031 332.558594 55.492188 334.675781 55.988281 C 335.726562 56.238281 336.835938 56.429688 337.976562 56.699219 C 339.113281 56.964844 340.292969 57.308594 341.402344 57.929688 C 341.953125 58.226562 342.488281 58.648438 342.910156 59.152344 C 343.335938 59.65625 343.675781 60.226562 343.949219 60.824219 C 344.226562 61.421875 344.453125 62.039062 344.667969 62.65625 C 344.878906 63.273438 345.09375 63.894531 345.3125 64.523438 C 346.160156 67.050781 347.042969 69.664062 347.941406 72.34375 C 351.425781 83.082031 354.78125 92.738281 356.972656 99.8125 C 357.515625 101.582031 358.011719 103.179688 358.410156 104.597656 C 358.808594 106.015625 359.105469 107.246094 359.316406 108.261719 C 359.527344 109.273438 359.648438 110.070312 359.699219 110.613281 C 359.75 111.15625 359.738281 111.441406 359.738281 111.441406 Z M 359.738281 111.441406 " fill-opacity="1" fill-rule="nonzero"/><g clip-path="url(#77412ed08b)"><path fill="#c6302c" d="M 353.953125 127.316406 C 353.953125 127.316406 353.535156 127.636719 352.777344 128.21875 C 352.011719 128.792969 350.925781 129.652344 349.457031 130.554688 C 348.722656 131.003906 347.878906 131.445312 346.921875 131.808594 C 345.964844 132.175781 344.871094 132.402344 343.730469 132.496094 C 342.585938 132.59375 341.390625 132.578125 340.167969 132.59375 C 338.9375 132.613281 337.664062 132.632812 336.359375 132.652344 C 331.136719 132.703125 326.410156 132.558594 322.992188 132.398438 C 319.578125 132.234375 317.464844 132.070312 317.464844 132.070312 C 317.464844 132.070312 319.582031 132.074219 323.003906 132.082031 C 326.421875 132.085938 331.140625 132.074219 336.355469 132.023438 C 337.660156 132.011719 338.933594 132 340.164062 131.988281 C 341.398438 131.992188 342.578125 132.03125 343.691406 131.964844 C 344.804688 131.902344 345.84375 131.722656 346.777344 131.402344 C 347.714844 131.085938 348.554688 130.691406 349.300781 130.28125 C 350.785156 129.460938 351.921875 128.664062 352.71875 128.136719 C 353.515625 127.609375 353.953125 127.316406 353.953125 127.316406 Z M 353.953125 127.316406 " fill-opacity="1" fill-rule="nonzero"/></g><path fill="#c6302c" d="M 302.570312 87.765625 C 302.570312 87.765625 302.871094 87.289062 303.417969 86.429688 C 303.960938 85.566406 304.738281 84.316406 305.667969 82.75 C 307.53125 79.625 309.996094 75.242188 312.394531 70.261719 C 313.589844 67.777344 314.363281 65.277344 314.941406 62.964844 C 315.515625 60.648438 315.925781 58.53125 316.292969 56.761719 C 316.664062 54.992188 316.859375 53.546875 316.871094 52.539062 C 316.882812 52.035156 316.851562 51.644531 316.835938 51.378906 C 316.808594 51.117188 316.796875 50.976562 316.796875 50.976562 C 316.796875 50.976562 316.820312 51.113281 316.863281 51.375 C 316.898438 51.640625 316.953125 52.03125 316.96875 52.539062 C 317.019531 53.550781 316.90625 55.027344 316.609375 56.816406 C 316.320312 58.601562 315.992188 60.734375 315.472656 63.082031 C 314.949219 65.425781 314.199219 68 312.980469 70.523438 C 310.566406 75.542969 307.949219 79.863281 305.945312 82.914062 C 304.945312 84.441406 304.09375 85.652344 303.5 86.480469 C 302.902344 87.308594 302.570312 87.765625 302.570312 87.765625 Z M 302.570312 87.765625 " fill-opacity="1" fill-rule="nonzero"/><g mask="url(#2955f0d856)"><g transform="matrix(1, 0, 0, 1, 322, 68)"><g clip-path="url(#07e81f6aaa)"><g clip-path="url(#64e0461f87)"><path fill="#f55d4e" d="M 0.386719 14.75 C 0.617188 18.195312 2.628906 21.273438 4.921875 23.859375 C 7.214844 26.445312 9.863281 28.738281 11.816406 31.589844 C 13.140625 33.519531 14.53125 35.941406 16.871094 36.058594 C 17.683594 36.101562 18.488281 35.828125 19.179688 35.402344 C 20.734375 34.433594 21.703125 32.71875 22.144531 30.941406 C 22.585938 29.167969 22.558594 27.3125 22.523438 25.484375 C 22.46875 22.753906 22.378906 19.929688 21.203125 17.464844 C 19.945312 14.828125 17.503906 12.734375 16.941406 9.867188 C 16.613281 8.195312 16.976562 6.421875 16.507812 4.785156 C 15.957031 2.867188 14.253906 1.371094 12.308594 0.917969 C 5.308594 -0.710938 -0.00390625 8.878906 0.386719 14.75 Z M 0.386719 14.75 " fill-opacity="1" fill-rule="nonzero"/></g></g></g></g><path fill="#c6302c" d="M 331.308594 102.171875 C 331.308594 102.171875 331.125 101.808594 330.796875 101.152344 C 330.628906 100.824219 330.433594 100.417969 330.234375 99.9375 C 330.03125 99.453125 329.777344 98.914062 329.558594 98.292969 C 329.445312 97.980469 329.324219 97.65625 329.199219 97.320312 C 329.078125 96.980469 328.972656 96.621094 328.851562 96.25 C 328.605469 95.515625 328.40625 94.710938 328.1875 93.863281 C 327.789062 92.160156 327.457031 90.261719 327.285156 88.246094 C 327.132812 86.234375 327.15625 84.304688 327.277344 82.5625 C 327.359375 81.691406 327.425781 80.863281 327.550781 80.097656 C 327.613281 79.710938 327.65625 79.339844 327.722656 78.988281 C 327.792969 78.632812 327.859375 78.292969 327.921875 77.96875 C 328.039062 77.320312 328.203125 76.746094 328.324219 76.238281 C 328.445312 75.730469 328.574219 75.296875 328.6875 74.949219 C 328.90625 74.246094 329.027344 73.859375 329.027344 73.859375 C 329.027344 73.859375 328.949219 74.257812 328.804688 74.976562 C 328.730469 75.335938 328.644531 75.773438 328.566406 76.289062 C 328.488281 76.804688 328.375 77.382812 328.308594 78.035156 C 328.269531 78.359375 328.226562 78.695312 328.183594 79.050781 C 328.140625 79.402344 328.121094 79.773438 328.085938 80.15625 C 328.003906 80.917969 327.980469 81.738281 327.9375 82.59375 C 327.890625 84.316406 327.914062 86.207031 328.066406 88.183594 C 328.234375 90.160156 328.511719 92.03125 328.832031 93.722656 C 329.011719 94.5625 329.167969 95.367188 329.367188 96.109375 C 329.464844 96.480469 329.542969 96.839844 329.644531 97.183594 C 329.742188 97.527344 329.839844 97.855469 329.929688 98.167969 C 330.101562 98.796875 330.304688 99.351562 330.464844 99.847656 C 330.621094 100.34375 330.777344 100.765625 330.910156 101.105469 C 331.164062 101.792969 331.308594 102.171875 331.308594 102.171875 Z M 331.308594 102.171875 " fill-opacity="1" fill-rule="nonzero"/><path fill="#c6302c" d="M 336.535156 108.011719 C 336.535156 108.011719 336.472656 107.722656 336.367188 107.203125 C 336.265625 106.683594 336.097656 105.929688 335.886719 105.007812 C 335.675781 104.085938 335.394531 102.996094 335.066406 101.796875 C 334.726562 100.597656 334.332031 99.285156 333.882812 97.921875 C 333.425781 96.5625 332.957031 95.277344 332.511719 94.113281 C 332.054688 92.953125 331.625 91.910156 331.242188 91.046875 C 330.863281 90.179688 330.542969 89.480469 330.3125 89.003906 C 330.089844 88.519531 329.964844 88.253906 329.964844 88.253906 C 329.964844 88.253906 330.128906 88.5 330.421875 88.941406 C 330.714844 89.386719 331.121094 90.042969 331.59375 90.871094 C 332.066406 91.699219 332.589844 92.707031 333.117188 93.855469 C 333.636719 95.003906 334.160156 96.292969 334.625 97.675781 C 335.082031 99.0625 335.433594 100.40625 335.707031 101.640625 C 335.96875 102.875 336.15625 103.996094 336.269531 104.941406 C 336.390625 105.886719 336.457031 106.65625 336.488281 107.1875 C 336.515625 107.71875 336.535156 108.011719 336.535156 108.011719 Z M 336.535156 108.011719 " fill-opacity="1" fill-rule="nonzero"/><g fill="#fcfaef" fill-opacity="1"><g transform="translate(6.707223, 80.993197)"><g><path d="M 3.765625 0 L 21.78125 0 L 21.78125 -2.78125 L 6.78125 -2.78125 L 6.78125 -26.65625 L 3.765625 -26.65625 Z M 3.765625 0 "/></g></g></g><g fill="#fcfaef" fill-opacity="1"><g transform="translate(30.267271, 80.993197)"><g><path d="M 10.390625 -17.359375 C 12.242188 -17.359375 13.6875 -16.90625 14.71875 -16 C 15.75 -15.101562 16.265625 -13.769531 16.265625 -12 L 16.265625 -11.3125 C 15.367188 -11.5625 14.453125 -11.757812 13.515625 -11.90625 C 12.578125 -12.0625 11.472656 -12.140625 10.203125 -12.140625 C 8.960938 -12.140625 7.828125 -12 6.796875 -11.71875 C 5.765625 -11.445312 4.875 -11.039062 4.125 -10.5 C 3.382812 -9.96875 2.8125 -9.300781 2.40625 -8.5 C 2 -7.707031 1.796875 -6.789062 1.796875 -5.75 C 1.796875 -4.707031 2.003906 -3.804688 2.421875 -3.046875 C 2.835938 -2.285156 3.394531 -1.644531 4.09375 -1.125 C 4.789062 -0.601562 5.578125 -0.21875 6.453125 0.03125 C 7.328125 0.289062 8.222656 0.421875 9.140625 0.421875 C 10.890625 0.421875 12.34375 0.078125 13.5 -0.609375 C 14.65625 -1.296875 15.578125 -2.082031 16.265625 -2.96875 L 16.265625 0 L 19.078125 0 L 19.078125 -12.03125 C 19.078125 -14.644531 18.351562 -16.617188 16.90625 -17.953125 C 15.457031 -19.285156 13.390625 -19.953125 10.703125 -19.953125 C 9.253906 -19.953125 7.96875 -19.804688 6.84375 -19.515625 C 5.726562 -19.222656 4.628906 -18.820312 3.546875 -18.3125 L 4.421875 -15.921875 C 5.328125 -16.347656 6.253906 -16.691406 7.203125 -16.953125 C 8.160156 -17.222656 9.222656 -17.359375 10.390625 -17.359375 Z M 10.515625 -9.96875 C 11.734375 -9.96875 12.816406 -9.878906 13.765625 -9.703125 C 14.710938 -9.523438 15.554688 -9.335938 16.296875 -9.140625 L 16.296875 -7.234375 C 16.296875 -6.441406 16.125 -5.722656 15.78125 -5.078125 C 15.4375 -4.429688 14.96875 -3.875 14.375 -3.40625 C 13.78125 -2.9375 13.082031 -2.566406 12.28125 -2.296875 C 11.476562 -2.035156 10.617188 -1.90625 9.703125 -1.90625 C 9.046875 -1.90625 8.421875 -1.992188 7.828125 -2.171875 C 7.234375 -2.347656 6.707031 -2.609375 6.25 -2.953125 C 5.789062 -3.296875 5.425781 -3.707031 5.15625 -4.1875 C 4.894531 -4.664062 4.765625 -5.222656 4.765625 -5.859375 C 4.765625 -7.128906 5.257812 -8.128906 6.25 -8.859375 C 7.238281 -9.597656 8.660156 -9.96875 10.515625 -9.96875 Z M 10.515625 -9.96875 "/></g></g></g><g fill="#fcfaef" fill-opacity="1"><g transform="translate(52.304859, 80.993197)"><g><path d="M 20.1875 -3.34375 L 18.3125 -5.109375 C 17.53125 -4.265625 16.648438 -3.5625 15.671875 -3 C 14.691406 -2.445312 13.566406 -2.171875 12.296875 -2.171875 C 11.253906 -2.171875 10.296875 -2.363281 9.421875 -2.75 C 8.546875 -3.144531 7.785156 -3.691406 7.140625 -4.390625 C 6.492188 -5.085938 5.984375 -5.90625 5.609375 -6.84375 C 5.242188 -7.789062 5.0625 -8.796875 5.0625 -9.859375 C 5.0625 -10.929688 5.238281 -11.925781 5.59375 -12.84375 C 5.945312 -13.769531 6.441406 -14.582031 7.078125 -15.28125 C 7.710938 -15.976562 8.460938 -16.523438 9.328125 -16.921875 C 10.191406 -17.316406 11.117188 -17.515625 12.109375 -17.515625 C 13.453125 -17.515625 14.585938 -17.222656 15.515625 -16.640625 C 16.441406 -16.054688 17.300781 -15.359375 18.09375 -14.546875 L 20.03125 -16.609375 C 19.570312 -17.085938 19.078125 -17.539062 18.546875 -17.96875 C 18.015625 -18.40625 17.429688 -18.78125 16.796875 -19.09375 C 16.160156 -19.414062 15.460938 -19.664062 14.703125 -19.84375 C 13.941406 -20.019531 13.085938 -20.109375 12.140625 -20.109375 C 10.691406 -20.109375 9.351562 -19.832031 8.125 -19.28125 C 6.894531 -18.738281 5.828125 -18 4.921875 -17.0625 C 4.023438 -16.125 3.320312 -15.023438 2.8125 -13.765625 C 2.3125 -12.503906 2.0625 -11.175781 2.0625 -9.78125 C 2.0625 -8.382812 2.3125 -7.0625 2.8125 -5.8125 C 3.320312 -4.570312 4.023438 -3.488281 4.921875 -2.5625 C 5.828125 -1.644531 6.894531 -0.910156 8.125 -0.359375 C 9.351562 0.179688 10.691406 0.453125 12.140625 0.453125 C 13.992188 0.453125 15.550781 0.0976562 16.8125 -0.609375 C 18.070312 -1.316406 19.195312 -2.226562 20.1875 -3.34375 Z M 20.1875 -3.34375 "/></g></g></g><g fill="#fcfaef" fill-opacity="1"><g transform="translate(74.037956, 80.993197)"><g><path d="M 7.234375 -17.09375 L 13.484375 -17.09375 L 13.484375 -19.6875 L 7.234375 -19.6875 L 7.234375 -25.625 L 4.296875 -25.625 L 4.296875 -19.6875 L 1.5625 -19.6875 L 1.5625 -17.09375 L 4.296875 -17.09375 L 4.296875 -5.21875 C 4.296875 -4.226562 4.4375 -3.375 4.71875 -2.65625 C 5 -1.945312 5.382812 -1.367188 5.875 -0.921875 C 6.375 -0.484375 6.96875 -0.164062 7.65625 0.03125 C 8.34375 0.238281 9.078125 0.34375 9.859375 0.34375 C 10.566406 0.34375 11.207031 0.269531 11.78125 0.125 C 12.351562 -0.0078125 12.894531 -0.21875 13.40625 -0.5 L 13.40625 -3.015625 C 12.894531 -2.753906 12.414062 -2.570312 11.96875 -2.46875 C 11.53125 -2.375 11.054688 -2.328125 10.546875 -2.328125 C 9.554688 -2.328125 8.753906 -2.566406 8.140625 -3.046875 C 7.535156 -3.523438 7.234375 -4.375 7.234375 -5.59375 Z M 7.234375 -17.09375 "/></g></g></g><g fill="#fcfaef" fill-opacity="1"><g transform="translate(89.414799, 80.993197)"><g><path d="M 22.578125 -9.859375 C 22.578125 -11.253906 22.320312 -12.570312 21.8125 -13.8125 C 21.3125 -15.0625 20.601562 -16.148438 19.6875 -17.078125 C 18.769531 -18.003906 17.679688 -18.738281 16.421875 -19.28125 C 15.171875 -19.832031 13.8125 -20.109375 12.34375 -20.109375 C 10.84375 -20.109375 9.460938 -19.832031 8.203125 -19.28125 C 6.953125 -18.738281 5.867188 -18 4.953125 -17.0625 C 4.035156 -16.125 3.320312 -15.023438 2.8125 -13.765625 C 2.3125 -12.503906 2.0625 -11.175781 2.0625 -9.78125 C 2.0625 -8.382812 2.3125 -7.0625 2.8125 -5.8125 C 3.320312 -4.570312 4.035156 -3.488281 4.953125 -2.5625 C 5.867188 -1.644531 6.945312 -0.910156 8.1875 -0.359375 C 9.425781 0.179688 10.785156 0.453125 12.265625 0.453125 C 13.734375 0.453125 15.101562 0.179688 16.375 -0.359375 C 17.644531 -0.910156 18.734375 -1.65625 19.640625 -2.59375 C 20.554688 -3.53125 21.273438 -4.625 21.796875 -5.875 C 22.316406 -7.132812 22.578125 -8.460938 22.578125 -9.859375 Z M 19.578125 -9.78125 C 19.578125 -8.71875 19.394531 -7.722656 19.03125 -6.796875 C 18.675781 -5.867188 18.179688 -5.0625 17.546875 -4.375 C 16.921875 -3.6875 16.160156 -3.144531 15.265625 -2.75 C 14.378906 -2.363281 13.40625 -2.171875 12.34375 -2.171875 C 11.300781 -2.171875 10.332031 -2.375 9.4375 -2.78125 C 8.550781 -3.1875 7.785156 -3.726562 7.140625 -4.40625 C 6.492188 -5.09375 5.984375 -5.90625 5.609375 -6.84375 C 5.242188 -7.789062 5.0625 -8.796875 5.0625 -9.859375 C 5.0625 -10.929688 5.238281 -11.925781 5.59375 -12.84375 C 5.945312 -13.769531 6.4375 -14.582031 7.0625 -15.28125 C 7.6875 -15.976562 8.441406 -16.523438 9.328125 -16.921875 C 10.210938 -17.316406 11.191406 -17.515625 12.265625 -17.515625 C 13.304688 -17.515625 14.269531 -17.3125 15.15625 -16.90625 C 16.039062 -16.5 16.8125 -15.945312 17.46875 -15.25 C 18.132812 -14.550781 18.648438 -13.734375 19.015625 -12.796875 C 19.390625 -11.859375 19.578125 -10.851562 19.578125 -9.78125 Z M 19.578125 -9.78125 "/></g></g></g><g fill="#fcfaef" fill-opacity="1"><g transform="translate(114.002515, 80.993197)"><g><path d="M 22.921875 -26.65625 L 3.765625 -26.65625 L 3.765625 0 L 6.78125 0 L 6.78125 -11.609375 L 21.203125 -11.609375 L 21.203125 -14.359375 L 6.78125 -14.359375 L 6.78125 -23.875 L 22.921875 -23.875 Z M 22.921875 -26.65625 "/></g></g></g><g fill="#fcfaef" fill-opacity="1"><g transform="translate(138.970843, 80.993197)"><g><path d="M 6.46875 0 L 6.46875 -27.796875 L 3.546875 -27.796875 L 3.546875 0 Z M 6.46875 0 "/></g></g></g><g fill="#fcfaef" fill-opacity="1"><g transform="translate(148.981013, 80.993197)"><g><path d="M 22.578125 -9.859375 C 22.578125 -11.253906 22.320312 -12.570312 21.8125 -13.8125 C 21.3125 -15.0625 20.601562 -16.148438 19.6875 -17.078125 C 18.769531 -18.003906 17.679688 -18.738281 16.421875 -19.28125 C 15.171875 -19.832031 13.8125 -20.109375 12.34375 -20.109375 C 10.84375 -20.109375 9.460938 -19.832031 8.203125 -19.28125 C 6.953125 -18.738281 5.867188 -18 4.953125 -17.0625 C 4.035156 -16.125 3.320312 -15.023438 2.8125 -13.765625 C 2.3125 -12.503906 2.0625 -11.175781 2.0625 -9.78125 C 2.0625 -8.382812 2.3125 -7.0625 2.8125 -5.8125 C 3.320312 -4.570312 4.035156 -3.488281 4.953125 -2.5625 C 5.867188 -1.644531 6.945312 -0.910156 8.1875 -0.359375 C 9.425781 0.179688 10.785156 0.453125 12.265625 0.453125 C 13.734375 0.453125 15.101562 0.179688 16.375 -0.359375 C 17.644531 -0.910156 18.734375 -1.65625 19.640625 -2.59375 C 20.554688 -3.53125 21.273438 -4.625 21.796875 -5.875 C 22.316406 -7.132812 22.578125 -8.460938 22.578125 -9.859375 Z M 19.578125 -9.78125 C 19.578125 -8.71875 19.394531 -7.722656 19.03125 -6.796875 C 18.675781 -5.867188 18.179688 -5.0625 17.546875 -4.375 C 16.921875 -3.6875 16.160156 -3.144531 15.265625 -2.75 C 14.378906 -2.363281 13.40625 -2.171875 12.34375 -2.171875 C 11.300781 -2.171875 10.332031 -2.375 9.4375 -2.78125 C 8.550781 -3.1875 7.785156 -3.726562 7.140625 -4.40625 C 6.492188 -5.09375 5.984375 -5.90625 5.609375 -6.84375 C 5.242188 -7.789062 5.0625 -8.796875 5.0625 -9.859375 C 5.0625 -10.929688 5.238281 -11.925781 5.59375 -12.84375 C 5.945312 -13.769531 6.4375 -14.582031 7.0625 -15.28125 C 7.6875 -15.976562 8.441406 -16.523438 9.328125 -16.921875 C 10.210938 -17.316406 11.191406 -17.515625 12.265625 -17.515625 C 13.304688 -17.515625 14.269531 -17.3125 15.15625 -16.90625 C 16.039062 -16.5 16.8125 -15.945312 17.46875 -15.25 C 18.132812 -14.550781 18.648438 -13.734375 19.015625 -12.796875 C 19.390625 -11.859375 19.578125 -10.851562 19.578125 -9.78125 Z M 19.578125 -9.78125 "/></g></g></g><g fill="#fcfaef" fill-opacity="1"><g transform="translate(173.568729, 80.993197)"><g><path d="M 17.625 -19.765625 L 15.1875 -19.765625 L 9.90625 -3.890625 L 4.71875 -19.6875 L 1.59375 -19.6875 L 8.484375 0.15625 L 11.078125 0.15625 L 16.40625 -15.390625 L 21.703125 0.15625 L 24.25 0.15625 L 31.1875 -19.6875 L 28.140625 -19.6875 L 22.96875 -3.890625 Z M 17.625 -19.765625 "/></g></g></g><g fill="#76b1af" fill-opacity="1"><g transform="translate(9.284501, 98.174216)"><g><path d="M 0.722656 0 L 3.410156 0 L 3.410156 -4.160156 C 3.410156 -4.992188 3.863281 -5.433594 4.5 -5.433594 C 5.132812 -5.433594 5.542969 -4.992188 5.542969 -4.160156 L 5.542969 0 L 8.234375 0 L 8.234375 -4.160156 C 8.234375 -4.992188 8.699219 -5.433594 9.335938 -5.433594 C 9.972656 -5.433594 10.382812 -4.992188 10.382812 -4.160156 L 10.382812 0 L 13.070312 0 L 13.070312 -5.023438 C 13.070312 -6.804688 12.078125 -7.820312 10.453125 -7.820312 C 9.335938 -7.820312 8.558594 -7.339844 7.894531 -6.578125 C 7.484375 -7.371094 6.703125 -7.820312 5.6875 -7.820312 C 4.609375 -7.820312 3.902344 -7.242188 3.410156 -6.605469 L 3.410156 -7.652344 L 0.722656 -7.652344 Z M 0.722656 0 "/></g></g></g><g fill="#76b1af" fill-opacity="1"><g transform="translate(25.840559, 98.174216)"><g><path d="M 4.511719 0.183594 C 6.039062 0.183594 7.101562 -0.4375 7.835938 -1.371094 L 6.351562 -2.601562 C 5.800781 -2.066406 5.289062 -1.824219 4.652344 -1.824219 C 3.820312 -1.824219 3.210938 -2.25 3 -3.082031 L 8.121094 -3.082031 C 8.132812 -3.265625 8.132812 -3.464844 8.132812 -3.636719 C 8.132812 -5.882812 6.917969 -7.820312 4.273438 -7.820312 C 2.007812 -7.820312 0.410156 -6.054688 0.410156 -3.820312 L 0.410156 -3.789062 C 0.410156 -1.414062 2.109375 0.183594 4.511719 0.183594 Z M 2.957031 -4.457031 C 3.097656 -5.289062 3.578125 -5.84375 4.285156 -5.84375 C 5.023438 -5.84375 5.515625 -5.304688 5.617188 -4.457031 Z M 2.957031 -4.457031 "/></g></g></g><g fill="#76b1af" fill-opacity="1"><g transform="translate(37.222576, 98.174216)"><g><path d="M 3.265625 0.167969 C 4.355469 0.167969 5.0625 -0.410156 5.558594 -1.046875 L 5.558594 0 L 8.246094 0 L 8.246094 -7.652344 L 5.558594 -7.652344 L 5.558594 -3.507812 C 5.558594 -2.671875 5.078125 -2.222656 4.441406 -2.222656 C 3.789062 -2.222656 3.351562 -2.671875 3.351562 -3.507812 L 3.351562 -7.652344 L 0.664062 -7.652344 L 0.664062 -2.644531 C 0.664062 -0.90625 1.640625 0.167969 3.265625 0.167969 Z M 3.265625 0.167969 "/></g></g></g><g fill="#76b1af" fill-opacity="1"><g transform="translate(49.014566, 98.174216)"><g/></g></g><g fill="#76b1af" fill-opacity="1"><g transform="translate(55.759757, 98.174216)"><g><path d="M 0.777344 0 L 3.464844 0 L 3.464844 -10.324219 L 0.777344 -10.324219 Z M 0.777344 0 "/></g></g></g><g fill="#76b1af" fill-opacity="1"><g transform="translate(62.830088, 98.174216)"><g><path d="M 4.511719 0.183594 C 6.039062 0.183594 7.101562 -0.4375 7.835938 -1.371094 L 6.351562 -2.601562 C 5.800781 -2.066406 5.289062 -1.824219 4.652344 -1.824219 C 3.820312 -1.824219 3.210938 -2.25 3 -3.082031 L 8.121094 -3.082031 C 8.132812 -3.265625 8.132812 -3.464844 8.132812 -3.636719 C 8.132812 -5.882812 6.917969 -7.820312 4.273438 -7.820312 C 2.007812 -7.820312 0.410156 -6.054688 0.410156 -3.820312 L 0.410156 -3.789062 C 0.410156 -1.414062 2.109375 0.183594 4.511719 0.183594 Z M 2.957031 -4.457031 C 3.097656 -5.289062 3.578125 -5.84375 4.285156 -5.84375 C 5.023438 -5.84375 5.515625 -5.304688 5.617188 -4.457031 Z M 2.957031 -4.457031 "/></g></g></g><g fill="#76b1af" fill-opacity="1"><g transform="translate(74.212106, 98.174216)"><g><path d="M 0.722656 -8.34375 L 3.523438 -8.34375 L 3.523438 -10.324219 L 0.722656 -10.324219 Z M 0.777344 0 L 3.464844 0 L 3.464844 -7.652344 L 0.777344 -7.652344 Z M 0.777344 0 "/></g></g></g><g fill="#76b1af" fill-opacity="1"><g transform="translate(81.282437, 98.174216)"><g><path d="M 3.761719 0.15625 C 4.511719 0.15625 5.148438 -0.015625 5.628906 -0.28125 L 5.628906 -2.390625 C 5.304688 -2.234375 4.964844 -2.136719 4.609375 -2.136719 C 4.117188 -2.136719 3.875 -2.363281 3.875 -2.898438 L 3.875 -5.488281 L 5.65625 -5.488281 L 5.65625 -7.652344 L 3.875 -7.652344 L 3.875 -9.589844 L 1.1875 -9.589844 L 1.1875 -7.652344 L 0.28125 -7.652344 L 0.28125 -5.488281 L 1.1875 -5.488281 L 1.1875 -2.375 C 1.1875 -0.550781 2.148438 0.15625 3.761719 0.15625 Z M 3.761719 0.15625 "/></g></g></g><g fill="#76b1af" fill-opacity="1"><g transform="translate(90.204675, 98.174216)"><g><path d="M 4.511719 0.183594 C 6.039062 0.183594 7.101562 -0.4375 7.835938 -1.371094 L 6.351562 -2.601562 C 5.800781 -2.066406 5.289062 -1.824219 4.652344 -1.824219 C 3.820312 -1.824219 3.210938 -2.25 3 -3.082031 L 8.121094 -3.082031 C 8.132812 -3.265625 8.132812 -3.464844 8.132812 -3.636719 C 8.132812 -5.882812 6.917969 -7.820312 4.273438 -7.820312 C 2.007812 -7.820312 0.410156 -6.054688 0.410156 -3.820312 L 0.410156 -3.789062 C 0.410156 -1.414062 2.109375 0.183594 4.511719 0.183594 Z M 2.957031 -4.457031 C 3.097656 -5.289062 3.578125 -5.84375 4.285156 -5.84375 C 5.023438 -5.84375 5.515625 -5.304688 5.617188 -4.457031 Z M 2.957031 -4.457031 "/></g></g></g><g fill="#76b1af" fill-opacity="1"><g transform="translate(101.586692, 98.174216)"><g/></g></g><g fill="#76b1af" fill-opacity="1"><g transform="translate(108.331882, 98.174216)"><g><path d="M 3.761719 0.167969 C 5.628906 0.167969 6.886719 -0.707031 6.886719 -2.390625 L 6.886719 -2.417969 C 6.886719 -3.902344 5.6875 -4.425781 4.171875 -4.851562 C 3.367188 -5.09375 2.929688 -5.234375 2.929688 -5.53125 L 2.929688 -5.558594 C 2.929688 -5.769531 3.140625 -5.925781 3.550781 -5.925781 C 4.160156 -5.925781 5.023438 -5.65625 5.8125 -5.21875 L 6.734375 -6.917969 C 5.855469 -7.484375 4.695312 -7.808594 3.578125 -7.808594 C 1.8125 -7.808594 0.507812 -6.902344 0.507812 -5.277344 L 0.507812 -5.246094 C 0.507812 -3.707031 1.710938 -3.195312 3.226562 -2.800781 C 4.03125 -2.574219 4.457031 -2.445312 4.457031 -2.148438 L 4.457031 -2.121094 C 4.457031 -1.851562 4.242188 -1.710938 3.777344 -1.710938 C 2.984375 -1.710938 2.023438 -2.007812 1.144531 -2.589844 L 0.140625 -0.960938 C 1.203125 -0.199219 2.476562 0.167969 3.761719 0.167969 Z M 3.761719 0.167969 "/></g></g></g><g fill="#76b1af" fill-opacity="1"><g transform="translate(118.42746, 98.174216)"><g><path d="M 4.511719 0.183594 C 6.039062 0.183594 7.101562 -0.4375 7.835938 -1.371094 L 6.351562 -2.601562 C 5.800781 -2.066406 5.289062 -1.824219 4.652344 -1.824219 C 3.820312 -1.824219 3.210938 -2.25 3 -3.082031 L 8.121094 -3.082031 C 8.132812 -3.265625 8.132812 -3.464844 8.132812 -3.636719 C 8.132812 -5.882812 6.917969 -7.820312 4.273438 -7.820312 C 2.007812 -7.820312 0.410156 -6.054688 0.410156 -3.820312 L 0.410156 -3.789062 C 0.410156 -1.414062 2.109375 0.183594 4.511719 0.183594 Z M 2.957031 -4.457031 C 3.097656 -5.289062 3.578125 -5.84375 4.285156 -5.84375 C 5.023438 -5.84375 5.515625 -5.304688 5.617188 -4.457031 Z M 2.957031 -4.457031 "/></g></g></g><g fill="#76b1af" fill-opacity="1"><g transform="translate(129.809477, 98.174216)"><g><path d="M 0.722656 0 L 3.410156 0 L 3.410156 -4.160156 C 3.410156 -4.992188 3.863281 -5.433594 4.5 -5.433594 C 5.132812 -5.433594 5.542969 -4.992188 5.542969 -4.160156 L 5.542969 0 L 8.234375 0 L 8.234375 -4.160156 C 8.234375 -4.992188 8.699219 -5.433594 9.335938 -5.433594 C 9.972656 -5.433594 10.382812 -4.992188 10.382812 -4.160156 L 10.382812 0 L 13.070312 0 L 13.070312 -5.023438 C 13.070312 -6.804688 12.078125 -7.820312 10.453125 -7.820312 C 9.335938 -7.820312 8.558594 -7.339844 7.894531 -6.578125 C 7.484375 -7.371094 6.703125 -7.820312 5.6875 -7.820312 C 4.609375 -7.820312 3.902344 -7.242188 3.410156 -6.605469 L 3.410156 -7.652344 L 0.722656 -7.652344 Z M 0.722656 0 "/></g></g></g><g fill="#76b1af" fill-opacity="1"><g transform="translate(146.365528, 98.174216)"><g><path d="M 0.722656 2.261719 L 3.410156 2.261719 L 3.410156 -0.933594 C 3.902344 -0.355469 4.582031 0.167969 5.742188 0.167969 C 7.554688 0.167969 9.125 -1.34375 9.125 -3.832031 L 9.125 -3.863281 C 9.125 -6.308594 7.554688 -7.820312 5.730469 -7.820312 C 4.582031 -7.820312 3.933594 -7.269531 3.410156 -6.632812 L 3.410156 -7.652344 L 0.722656 -7.652344 Z M 4.910156 -2.078125 C 4.046875 -2.078125 3.351562 -2.800781 3.351562 -3.820312 L 3.351562 -3.847656 C 3.351562 -4.851562 4.046875 -5.574219 4.910156 -5.574219 C 5.785156 -5.574219 6.476562 -4.851562 6.476562 -3.847656 L 6.476562 -3.820312 C 6.476562 -2.785156 5.785156 -2.078125 4.910156 -2.078125 Z M 4.910156 -2.078125 "/></g></g></g><g fill="#76b1af" fill-opacity="1"><g transform="translate(158.751259, 98.174216)"><g><path d="M 0.722656 0 L 3.410156 0 L 3.410156 -2.375 C 3.410156 -4.144531 4.199219 -4.949219 5.601562 -4.949219 L 5.828125 -4.949219 L 5.828125 -7.78125 C 4.554688 -7.835938 3.847656 -7.15625 3.410156 -6.109375 L 3.410156 -7.652344 L 0.722656 -7.652344 Z M 0.722656 0 "/></g></g></g><g fill="#76b1af" fill-opacity="1"><g transform="translate(167.631095, 98.174216)"><g><path d="M 4.511719 0.183594 C 6.039062 0.183594 7.101562 -0.4375 7.835938 -1.371094 L 6.351562 -2.601562 C 5.800781 -2.066406 5.289062 -1.824219 4.652344 -1.824219 C 3.820312 -1.824219 3.210938 -2.25 3 -3.082031 L 8.121094 -3.082031 C 8.132812 -3.265625 8.132812 -3.464844 8.132812 -3.636719 C 8.132812 -5.882812 6.917969 -7.820312 4.273438 -7.820312 C 2.007812 -7.820312 0.410156 -6.054688 0.410156 -3.820312 L 0.410156 -3.789062 C 0.410156 -1.414062 2.109375 0.183594 4.511719 0.183594 Z M 2.957031 -4.457031 C 3.097656 -5.289062 3.578125 -5.84375 4.285156 -5.84375 C 5.023438 -5.84375 5.515625 -5.304688 5.617188 -4.457031 Z M 2.957031 -4.457031 "/></g></g></g><g fill="#76b1af" fill-opacity="1"><g transform="translate(179.01312, 98.174216)"><g/></g></g><g fill="#76b1af" fill-opacity="1"><g transform="translate(185.758303, 98.174216)"><g><path d="M 4.511719 0.183594 C 6.039062 0.183594 7.101562 -0.4375 7.835938 -1.371094 L 6.351562 -2.601562 C 5.800781 -2.066406 5.289062 -1.824219 4.652344 -1.824219 C 3.820312 -1.824219 3.210938 -2.25 3 -3.082031 L 8.121094 -3.082031 C 8.132812 -3.265625 8.132812 -3.464844 8.132812 -3.636719 C 8.132812 -5.882812 6.917969 -7.820312 4.273438 -7.820312 C 2.007812 -7.820312 0.410156 -6.054688 0.410156 -3.820312 L 0.410156 -3.789062 C 0.410156 -1.414062 2.109375 0.183594 4.511719 0.183594 Z M 2.957031 -4.457031 C 3.097656 -5.289062 3.578125 -5.84375 4.285156 -5.84375 C 5.023438 -5.84375 5.515625 -5.304688 5.617188 -4.457031 Z M 3.226562 -8.332031 L 5.121094 -8.332031 L 7.199219 -10.140625 L 4.695312 -10.949219 Z M 3.226562 -8.332031 "/></g></g></g><g fill="#76b1af" fill-opacity="1"><g transform="translate(197.140313, 98.174216)"><g/></g></g><g fill="#76b1af" fill-opacity="1"><g transform="translate(203.885496, 98.174216)"><g><path d="M 1.203125 0 L 3.875 0 L 3.875 -5.503906 L 5.585938 -5.503906 L 5.585938 -7.566406 L 3.832031 -7.566406 L 3.832031 -7.75 C 3.832031 -8.246094 4.101562 -8.472656 4.597656 -8.472656 C 4.980469 -8.472656 5.289062 -8.417969 5.601562 -8.316406 L 5.601562 -10.210938 C 5.175781 -10.339844 4.667969 -10.425781 3.847656 -10.425781 C 2.941406 -10.425781 2.320312 -10.226562 1.851562 -9.761719 C 1.398438 -9.308594 1.203125 -8.65625 1.203125 -7.78125 L 1.203125 -7.609375 L 0.3125 -7.609375 L 0.3125 -5.503906 L 1.203125 -5.503906 Z M 1.203125 0 "/></g></g></g><g fill="#76b1af" fill-opacity="1"><g transform="translate(212.426049, 98.174216)"><g><path d="M 4.625 0.183594 C 7.085938 0.183594 8.867188 -1.640625 8.867188 -3.820312 L 8.867188 -3.847656 C 8.867188 -6.027344 7.101562 -7.820312 4.652344 -7.820312 C 2.191406 -7.820312 0.410156 -5.996094 0.410156 -3.820312 L 0.410156 -3.789062 C 0.410156 -1.613281 2.179688 0.183594 4.625 0.183594 Z M 4.652344 -2.09375 C 3.707031 -2.09375 3.027344 -2.886719 3.027344 -3.820312 L 3.027344 -3.847656 C 3.027344 -4.765625 3.648438 -5.542969 4.625 -5.542969 C 5.574219 -5.542969 6.253906 -4.753906 6.253906 -3.820312 L 6.253906 -3.789062 C 6.253906 -2.871094 5.628906 -2.09375 4.652344 -2.09375 Z M 4.652344 -2.09375 "/></g></g></g><g fill="#76b1af" fill-opacity="1"><g transform="translate(224.529047, 98.174216)"><g><path d="M 0.722656 0 L 3.410156 0 L 3.410156 -2.375 C 3.410156 -4.144531 4.199219 -4.949219 5.601562 -4.949219 L 5.828125 -4.949219 L 5.828125 -7.78125 C 4.554688 -7.835938 3.847656 -7.15625 3.410156 -6.109375 L 3.410156 -7.652344 L 0.722656 -7.652344 Z M 0.722656 0 "/></g></g></g><g fill="#76b1af" fill-opacity="1"><g transform="translate(233.408884, 98.174216)"><g><path d="M 3.761719 0.15625 C 4.511719 0.15625 5.148438 -0.015625 5.628906 -0.28125 L 5.628906 -2.390625 C 5.304688 -2.234375 4.964844 -2.136719 4.609375 -2.136719 C 4.117188 -2.136719 3.875 -2.363281 3.875 -2.898438 L 3.875 -5.488281 L 5.65625 -5.488281 L 5.65625 -7.652344 L 3.875 -7.652344 L 3.875 -9.589844 L 1.1875 -9.589844 L 1.1875 -7.652344 L 0.28125 -7.652344 L 0.28125 -5.488281 L 1.1875 -5.488281 L 1.1875 -2.375 C 1.1875 -0.550781 2.148438 0.15625 3.761719 0.15625 Z M 3.761719 0.15625 "/></g></g></g><g fill="#76b1af" fill-opacity="1"><g transform="translate(242.331128, 98.174216)"><g><path d="M 4.511719 0.183594 C 6.039062 0.183594 7.101562 -0.4375 7.835938 -1.371094 L 6.351562 -2.601562 C 5.800781 -2.066406 5.289062 -1.824219 4.652344 -1.824219 C 3.820312 -1.824219 3.210938 -2.25 3 -3.082031 L 8.121094 -3.082031 C 8.132812 -3.265625 8.132812 -3.464844 8.132812 -3.636719 C 8.132812 -5.882812 6.917969 -7.820312 4.273438 -7.820312 C 2.007812 -7.820312 0.410156 -6.054688 0.410156 -3.820312 L 0.410156 -3.789062 C 0.410156 -1.414062 2.109375 0.183594 4.511719 0.183594 Z M 2.957031 -4.457031 C 3.097656 -5.289062 3.578125 -5.84375 4.285156 -5.84375 C 5.023438 -5.84375 5.515625 -5.304688 5.617188 -4.457031 Z M 2.957031 -4.457031 "/></g></g></g></svg>