<svg xmlns="http://www.w3.org/2000/svg" xmlns:xlink="http://www.w3.org/1999/xlink" width="500" zoomAndPan="magnify" viewBox="0 0 375 149.999998" height="200" preserveAspectRatio="xMidYMid meet" version="1.0"><defs><filter x="0%" y="0%" width="100%" height="100%" id="2f666b31ed"><feColorMatrix values="0 0 0 0 1 0 0 0 0 1 0 0 0 0 1 0 0 0 1 0" color-interpolation-filters="sRGB"/></filter><clipPath id="0c33976f80"><path d="M 282 2.179688 L 321 2.179688 L 321 33 L 282 33 Z M 282 2.179688 " clip-rule="nonzero"/></clipPath><clipPath id="e1710438bf"><path d="M 321 140 L 368 140 L 368 147.679688 L 321 147.679688 Z M 321 140 " clip-rule="nonzero"/></clipPath><mask id="33d640ff10"><g filter="url(#2f666b31ed)"><rect x="-37.5" width="450" fill="#000000" y="-15" height="179.999997" fill-opacity="0.4196"/></g></mask><clipPath id="9e888daf89"><path d="M 0.359375 1 L 28.921875 1 L 28.921875 45.839844 L 0.359375 45.839844 Z M 0.359375 1 " clip-rule="nonzero"/></clipPath><clipPath id="3b324f3ea5"><rect x="0" width="29" y="0" height="46"/></clipPath><clipPath id="7b21b49513"><path d="M 155.167969 75 L 178 75 L 178 117.851562 L 155.167969 117.851562 Z M 155.167969 75 " clip-rule="nonzero"/></clipPath></defs><path fill="#c6302c" d="M 257.503906 57.539062 C 252.65625 59.445312 246.910156 58.902344 242.507812 56.121094 C 241.085938 55.222656 239.707031 53.941406 239.535156 52.273438 C 239.363281 50.605469 241.105469 48.804688 242.636719 49.5 C 239.140625 46.058594 238.09375 40.386719 240.128906 35.929688 C 240.292969 35.570312 240.507812 35.1875 240.878906 35.046875 C 241.300781 34.882812 241.773438 35.089844 242.226562 35.0625 C 243 35.011719 243.550781 34.308594 243.941406 33.644531 C 245.613281 30.828125 246.40625 27.585938 247.851562 24.648438 C 249.296875 21.710938 251.699219 18.910156 254.9375 18.386719 C 259.535156 17.644531 263.675781 21.664062 268.328125 21.742188 C 269.402344 18.449219 272.980469 16.691406 276.339844 15.804688 C 279.457031 14.984375 282.683594 14.59375 285.90625 14.648438 C 286.992188 14.667969 288.113281 14.746094 289.089844 15.222656 C 290.800781 16.054688 291.757812 17.976562 291.941406 19.863281 C 292.121094 21.75 291.660156 23.632812 291.199219 25.472656 C 293.671875 24.597656 296.929688 23.933594 298.496094 26.03125 C 299.542969 27.433594 299.222656 29.394531 298.789062 31.09375 C 297.824219 34.863281 296.332031 38.40625 294.820312 42.011719 C 293.488281 45.195312 290.496094 46.800781 287.609375 48.390625 C 284.136719 50.304688 280.226562 51.253906 276.367188 52.179688 C 270.636719 53.554688 262.988281 55.382812 257.503906 57.539062 Z M 257.503906 57.539062 " fill-opacity="1" fill-rule="nonzero"/><path fill="#f55d4e" d="M 278.984375 123.835938 C 279.429688 125.261719 279.769531 126.566406 280.402344 128.074219 C 281.789062 131.378906 284.871094 133.621094 287.828125 135.660156 C 289.765625 136.996094 292.105469 138.195312 294.402344 138.710938 C 290.828125 139.757812 287.132812 140.230469 283.429688 140.644531 C 288.484375 141.878906 293.8125 142.515625 299.011719 142.285156 C 304.851562 144.183594 310.8125 146.871094 316.957031 146.871094 C 326.886719 146.871094 337.203125 146.828125 347.328125 146.804688 C 342.960938 138.460938 340.195312 129.332031 339.527344 119.734375 C 319.5 121.8125 299.101562 122.425781 278.984375 123.835938 Z M 278.984375 123.835938 " fill-opacity="1" fill-rule="nonzero"/><path fill="#fcfaef" d="M 373.890625 115.929688 C 371.828125 107.0625 368.902344 98.421875 365.980469 89.796875 C 362.433594 79.324219 358.886719 68.851562 355.339844 58.382812 C 354.945312 57.222656 354.527344 56.019531 353.65625 55.15625 C 352.777344 54.285156 351.554688 53.875 350.378906 53.492188 C 340.761719 50.355469 331.144531 47.222656 321.53125 44.085938 C 315.355469 47.617188 309.132812 51.023438 302.78125 54.222656 C 291.375 59.96875 279.933594 65.734375 269.300781 72.800781 C 267.335938 74.105469 265.375 75.476562 263.855469 77.28125 C 262.285156 79.152344 261.261719 81.40625 260.113281 83.558594 C 256.003906 91.292969 250.167969 98.027344 246.269531 105.867188 C 245.625 107.160156 245.058594 108.777344 245.882812 109.964844 C 246.3125 110.578125 247.035156 110.921875 247.742188 111.171875 C 248.953125 111.59375 250.726562 111.300781 251.992188 111.503906 C 260.523438 112.878906 268.726562 114.710938 277.0625 116.984375 C 277.25 118.867188 277.890625 120.671875 278.527344 122.453125 C 278.699219 122.933594 278.847656 123.390625 278.984375 123.835938 C 299.101562 122.425781 319.5 121.8125 339.527344 119.734375 C 340.195312 129.332031 342.960938 138.460938 347.328125 146.804688 C 350.789062 146.796875 354.226562 146.792969 357.621094 146.792969 C 366.550781 143.589844 374.316406 135.785156 375.074219 126.359375 C 375.355469 122.859375 374.6875 119.351562 373.890625 115.929688 Z M 373.890625 115.929688 " fill-opacity="1" fill-rule="nonzero"/><path fill="#f55d4e" d="M 250.503906 54.621094 C 254.457031 57.390625 258.4375 60.179688 261.835938 63.605469 C 263.753906 65.539062 265.5625 67.875 265.6875 70.59375 C 267.304688 69.152344 268.195312 67.921875 269.628906 66.304688 C 275.28125 69.050781 280.496094 71.863281 286.574219 73.472656 C 286.441406 73.367188 286.707031 73.574219 286.574219 73.472656 C 286.980469 73.191406 287.09375 73.078125 287.367188 72.664062 C 289.699219 69.167969 291.511719 65.332031 292.730469 61.3125 C 295.9375 60.542969 298.734375 60.300781 301.976562 60.929688 C 303.109375 59.296875 304.210938 57.109375 304.390625 55.132812 C 304.851562 50.003906 305.671875 45.503906 304.742188 40.4375 C 299.390625 40.410156 293.914062 40.058594 289.242188 39.890625 C 289.242188 39.890625 288.992188 38.527344 288.757812 37.429688 C 288.417969 35.839844 287.183594 33.757812 286.066406 32.578125 C 284.652344 31.082031 282.527344 30.230469 280.484375 30.5 C 278.4375 30.765625 276.550781 32.203125 275.902344 34.15625 C 275.683594 34.8125 275.601562 35.527344 275.757812 36.199219 C 276.105469 37.71875 277.539062 38.71875 278.921875 39.449219 C 277.390625 38.738281 275.742188 39.515625 274.410156 40.550781 C 273.074219 41.582031 272.394531 43.386719 272.707031 45.039062 C 272.773438 45.390625 272.882812 45.746094 272.8125 46.09375 C 272.699219 46.671875 272.136719 47.046875 271.59375 47.289062 C 269.722656 48.113281 267.597656 48.066406 265.558594 48.234375 C 265.277344 48.253906 264.960938 48.304688 264.808594 48.539062 C 264.6875 48.726562 264.714844 48.964844 264.71875 49.1875 C 264.726562 50.9375 262.894531 52.070312 261.257812 52.691406 C 258.003906 53.925781 253.984375 54.609375 250.503906 54.621094 Z M 250.503906 54.621094 " fill-opacity="1" fill-rule="nonzero"/><path fill="#91cdca" d="M 279.046875 73.289062 C 281.511719 74.621094 283.441406 76.910156 284.421875 80.453125 C 284.625 81.179688 284.796875 81.941406 285.25 82.546875 C 285.820312 83.3125 286.769531 83.71875 287.71875 83.839844 C 288.664062 83.957031 289.621094 83.820312 290.566406 83.6875 C 290.449219 84.304688 290.195312 84.894531 289.832031 85.40625 C 290.101562 90.03125 288.308594 95.261719 284.632812 98.097656 C 281.050781 100.867188 276.410156 101.785156 271.957031 102.625 C 269.140625 103.152344 266.324219 105.511719 263.507812 106.042969 C 260.929688 106.527344 258.097656 105.144531 255.816406 103.851562 C 254.742188 103.242188 253.902344 102.300781 253.15625 101.316406 C 249.386719 96.351562 247.898438 88.523438 250.621094 82.726562 C 254.789062 73.871094 270.085938 68.441406 279.046875 73.289062 Z M 279.046875 73.289062 " fill-opacity="1" fill-rule="nonzero"/><path fill="#4f8987" d="M 276.382812 91.023438 C 280.46875 88.417969 285.3125 87.308594 290.066406 86.324219 C 290.535156 86.226562 291.03125 86.132812 291.484375 86.285156 C 292.5 86.632812 292.726562 88 292.445312 89.03125 C 292.164062 90.066406 291.558594 91.03125 291.554688 92.097656 C 291.546875 93.6875 292.910156 95.011719 294.414062 95.546875 C 295.914062 96.085938 297.554688 96.03125 299.148438 96.105469 C 302.53125 96.261719 305.886719 97.027344 309 98.351562 C 311.367188 99.359375 313.601562 100.6875 316.042969 101.496094 C 319.859375 102.761719 324.027344 102.707031 327.820312 104.035156 C 331.25 105.234375 334.183594 107.496094 337.050781 109.722656 C 338.601562 110.925781 340.148438 112.128906 341.699219 113.328125 C 344.058594 115.160156 346.578125 117.230469 347.207031 120.144531 C 347.835938 123.039062 346.425781 125.945312 345.058594 128.574219 C 344.488281 129.667969 343.902344 130.78125 343.03125 131.65625 C 342.296875 132.390625 341.386719 132.929688 340.460938 133.402344 C 337.316406 135.011719 333.847656 135.988281 330.320312 136.257812 C 325.882812 136.597656 321.445312 135.828125 317.058594 135.066406 C 314.617188 134.636719 312.175781 134.210938 309.730469 133.785156 C 302.554688 132.535156 295.375 131.28125 288.199219 130.03125 C 284.964844 129.464844 281.621094 128.855469 278.925781 126.996094 C 275.808594 124.84375 273.984375 121.316406 272.363281 117.902344 C 267.972656 108.667969 266.5 97.332031 276.382812 91.023438 Z M 276.382812 91.023438 " fill-opacity="1" fill-rule="nonzero"/><path fill="#f55d4e" d="M 263.925781 124.339844 C 271.375 121.136719 278.824219 117.9375 286.273438 114.734375 C 288.5625 113.75 291.359375 112.03125 293.183594 113.71875 C 300.089844 120.097656 307.996094 125.394531 316.535156 129.351562 C 312.992188 126.5625 310.4375 123.015625 307.863281 119.320312 C 312.539062 124 318.199219 127.699219 324.367188 130.109375 C 321.722656 126.824219 319.074219 123.542969 316.429688 120.257812 C 315.511719 119.117188 315.269531 117.992188 314.402344 116.816406 C 319.425781 121.253906 325.105469 124.953125 331.199219 127.761719 C 331.597656 127.941406 332.171875 128.066406 332.378906 127.683594 C 329.664062 124.894531 326.945312 122.101562 324.230469 119.3125 C 322.273438 117.300781 321.273438 115.03125 319.535156 112.832031 C 323.019531 114.082031 325.933594 116.683594 329.503906 117.667969 C 331.570312 118.234375 333.753906 118.226562 335.890625 118.09375 C 329.191406 113.621094 322.917969 108.382812 317.453125 102.472656 C 320.21875 102.117188 323.027344 100.875 325.175781 99.105469 C 314.324219 99.320312 303.554688 97.457031 293.105469 94.519531 C 277.152344 99.390625 261.199219 104.261719 245.246094 109.132812 C 245.285156 112.792969 247.332031 116.285156 250.238281 118.519531 C 253.148438 120.753906 256.648438 122.058594 260.089844 123.335938 C 261.0625 123.695312 262.890625 124.324219 263.925781 124.339844 Z M 263.925781 124.339844 " fill-opacity="1" fill-rule="nonzero"/><path fill="#f55d4e" d="M 293.613281 55.609375 C 295.339844 67.695312 298.378906 79.59375 302.667969 91.027344 C 309.851562 79.394531 317.949219 67.984375 320.003906 54.476562 C 320.515625 51.097656 320.6875 47.679688 320.863281 44.265625 C 315.125 42.890625 310.578125 41.296875 304.742188 40.4375 C 304.8125 40.285156 304.097656 40.777344 303.933594 40.816406 C 303.769531 40.855469 303.660156 41.003906 303.566406 41.140625 C 299.960938 46.464844 297.222656 50.285156 293.613281 55.609375 Z M 293.613281 55.609375 " fill-opacity="1" fill-rule="nonzero"/><g clip-path="url(#0c33976f80)"><path fill="#c6302c" d="M 286.035156 20.3125 C 284.363281 15.847656 282.804688 10.445312 285.699219 6.652344 C 286.734375 5.292969 288.234375 4.347656 289.808594 3.683594 C 293.269531 2.226562 297.882812 2.320312 300.121094 5.328125 C 301.234375 6.828125 301.546875 8.761719 302.355469 10.445312 C 303.578125 12.984375 306.011719 14.914062 308.769531 15.535156 C 311.527344 16.15625 314.554688 15.449219 316.753906 13.679688 C 317.011719 15.597656 315.492188 17.402344 313.691406 18.132812 C 311.890625 18.867188 309.875 18.78125 307.933594 18.683594 C 311.6875 20.507812 316.136719 20.855469 320.132812 19.640625 C 320.5 24.707031 317.605469 29.960938 312.941406 32.011719 C 308.28125 34.058594 302.175781 32.449219 299.460938 28.152344 C 298.6875 26.925781 298.1875 25.546875 297.394531 24.332031 C 294.308594 19.601562 287.886719 18.640625 282.246094 18.125 " fill-opacity="1" fill-rule="nonzero"/></g><path fill="#c6302c" d="M 277.53125 69.796875 C 277.53125 69.796875 277.730469 69.664062 278.027344 69.355469 C 278.316406 69.042969 278.683594 68.539062 278.941406 67.828125 C 279.207031 67.125 279.359375 66.226562 279.355469 65.234375 C 279.351562 64.234375 279.1875 63.140625 278.945312 62 C 278.449219 59.71875 277.871094 57.667969 277.464844 56.179688 C 277.0625 54.691406 276.8125 53.765625 276.8125 53.765625 C 276.8125 53.765625 277.179688 54.648438 277.71875 56.097656 C 278.25 57.550781 278.960938 59.570312 279.464844 61.890625 C 279.714844 63.054688 279.851562 64.195312 279.804688 65.242188 C 279.757812 66.285156 279.527344 67.21875 279.1875 67.929688 C 278.851562 68.648438 278.414062 69.132812 278.085938 69.414062 C 277.917969 69.554688 277.777344 69.648438 277.679688 69.707031 C 277.582031 69.765625 277.53125 69.796875 277.53125 69.796875 Z M 277.53125 69.796875 " fill-opacity="1" fill-rule="nonzero"/><path fill="#c6302c" d="M 263.125 61.832031 C 263.125 61.832031 263.207031 61.800781 263.34375 61.734375 C 263.484375 61.667969 263.671875 61.550781 263.867188 61.375 C 264.261719 61.03125 264.65625 60.40625 264.835938 59.644531 C 265.011719 58.875 265 58.117188 264.996094 57.566406 C 264.992188 57.019531 264.992188 56.664062 264.992188 56.664062 C 264.992188 56.664062 265.121094 56.988281 265.261719 57.535156 C 265.394531 58.074219 265.554688 58.875 265.351562 59.765625 C 265.144531 60.664062 264.542969 61.324219 264.019531 61.59375 C 263.757812 61.730469 263.53125 61.792969 263.371094 61.8125 C 263.210938 61.832031 263.125 61.832031 263.125 61.832031 Z M 263.125 61.832031 " fill-opacity="1" fill-rule="nonzero"/><path fill="#c6302c" d="M 262.4375 54.183594 C 262.4375 54.183594 262.167969 54.414062 261.761719 54.792969 C 261.355469 55.171875 260.824219 55.714844 260.277344 56.34375 C 259.738281 56.976562 259.28125 57.582031 258.964844 58.042969 C 258.652344 58.5 258.464844 58.800781 258.464844 58.800781 C 258.464844 58.800781 258.527344 58.453125 258.730469 57.917969 C 258.933594 57.382812 259.300781 56.667969 259.875 56 C 260.449219 55.332031 261.105469 54.863281 261.601562 54.582031 C 262.101562 54.300781 262.4375 54.183594 262.4375 54.183594 Z M 262.4375 54.183594 " fill-opacity="1" fill-rule="nonzero"/><path fill="#c6302c" d="M 281.980469 39.921875 C 281.992188 39.921875 281.878906 39.945312 281.820312 39.8125 C 281.765625 39.691406 281.773438 39.511719 281.769531 39.285156 C 281.777344 38.835938 281.863281 38.15625 282.253906 37.417969 C 282.351562 37.234375 282.46875 37.046875 282.605469 36.867188 C 282.746094 36.6875 282.890625 36.5 283.117188 36.335938 C 283.335938 36.167969 283.703125 36.097656 283.996094 36.222656 C 284.289062 36.335938 284.511719 36.546875 284.6875 36.78125 C 285.023438 37.246094 285.257812 37.804688 285.347656 38.414062 C 285.398438 38.722656 285.402344 39.039062 285.371094 39.355469 C 285.367188 39.4375 285.351562 39.515625 285.339844 39.59375 L 285.316406 39.734375 C 285.300781 39.808594 285.28125 39.882812 285.25 39.941406 C 285.191406 40.066406 285.074219 40.15625 284.941406 40.175781 C 284.808594 40.195312 284.667969 40.148438 284.542969 40.058594 C 284.410156 39.949219 284.277344 39.839844 284.144531 39.734375 C 284.03125 39.628906 283.914062 39.523438 283.804688 39.417969 C 283.585938 39.199219 283.378906 38.976562 283.191406 38.75 C 282.8125 38.292969 282.492188 37.820312 282.21875 37.355469 C 281.671875 36.421875 281.285156 35.539062 280.980469 34.792969 C 280.679688 34.050781 280.433594 33.4375 280.363281 32.980469 C 280.324219 32.757812 280.320312 32.578125 280.324219 32.457031 C 280.332031 32.339844 280.339844 32.277344 280.339844 32.277344 C 280.339844 32.277344 280.339844 32.339844 280.347656 32.457031 C 280.359375 32.574219 280.382812 32.75 280.441406 32.964844 C 280.558594 33.394531 280.863281 33.96875 281.222656 34.683594 C 281.585938 35.398438 282.027344 36.242188 282.601562 37.117188 C 282.886719 37.554688 283.210938 37.996094 283.578125 38.421875 C 283.765625 38.632812 283.960938 38.839844 284.167969 39.042969 L 284.492188 39.335938 L 284.804688 39.589844 L 284.820312 39.507812 C 284.832031 39.4375 284.84375 39.371094 284.851562 39.300781 C 284.878906 39.027344 284.878906 38.753906 284.84375 38.484375 C 284.78125 37.953125 284.589844 37.449219 284.324219 37.039062 C 284.191406 36.84375 284.023438 36.679688 283.84375 36.597656 C 283.667969 36.519531 283.488281 36.535156 283.316406 36.640625 C 283.144531 36.742188 282.992188 36.910156 282.851562 37.0625 C 282.710938 37.222656 282.589844 37.386719 282.484375 37.550781 C 282.0625 38.210938 281.90625 38.851562 281.851562 39.292969 C 281.832031 39.511719 281.804688 39.6875 281.84375 39.804688 C 281.878906 39.929688 281.992188 39.925781 281.980469 39.921875 Z M 281.980469 39.921875 " fill-opacity="1" fill-rule="nonzero"/><path fill="#c6302c" d="M 291.675781 63.617188 C 291.675781 63.617188 291.882812 62.929688 292.183594 61.820312 C 292.484375 60.707031 292.855469 59.167969 293.179688 57.453125 C 293.5 55.734375 293.714844 54.164062 293.835938 53.019531 C 293.960938 51.878906 294.015625 51.164062 294.015625 51.164062 C 294.015625 51.164062 294.09375 51.875 294.101562 53.035156 C 294.113281 54.195312 294.027344 55.804688 293.699219 57.550781 C 293.371094 59.292969 292.867188 60.824219 292.4375 61.902344 C 292.007812 62.980469 291.675781 63.617188 291.675781 63.617188 Z M 291.675781 63.617188 " fill-opacity="1" fill-rule="nonzero"/><path fill="#fcfaef" d="M 291.894531 20.390625 C 291.894531 20.390625 291.753906 20.390625 291.5 20.394531 C 291.242188 20.398438 290.875 20.371094 290.421875 20.300781 C 289.96875 20.230469 289.4375 20.085938 288.867188 19.863281 C 288.300781 19.628906 287.703125 19.3125 287.132812 18.894531 C 286.566406 18.46875 286.089844 17.988281 285.707031 17.515625 C 285.332031 17.035156 285.039062 16.566406 284.84375 16.152344 C 284.644531 15.742188 284.511719 15.398438 284.445312 15.152344 C 284.375 14.910156 284.335938 14.773438 284.335938 14.773438 C 284.335938 14.773438 284.402344 14.898438 284.519531 15.121094 C 284.632812 15.34375 284.824219 15.65625 285.074219 16.023438 C 285.320312 16.390625 285.652344 16.796875 286.046875 17.222656 C 286.449219 17.640625 286.917969 18.066406 287.449219 18.46875 C 287.988281 18.863281 288.535156 19.1875 289.050781 19.453125 C 289.570312 19.710938 290.058594 19.910156 290.484375 20.042969 C 290.90625 20.175781 291.261719 20.269531 291.507812 20.3125 C 291.753906 20.363281 291.894531 20.390625 291.894531 20.390625 Z M 291.894531 20.390625 " fill-opacity="1" fill-rule="nonzero"/><path fill="#c6302c" d="M 308.570312 18.894531 C 308.570312 18.894531 308.390625 18.886719 308.0625 18.871094 C 307.734375 18.847656 307.257812 18.8125 306.675781 18.726562 C 305.511719 18.5625 303.902344 18.207031 302.238281 17.496094 C 301.40625 17.140625 300.640625 16.753906 299.972656 16.328125 C 299.308594 15.902344 298.761719 15.425781 298.390625 14.949219 C 298.011719 14.476562 297.820312 14.015625 297.738281 13.695312 C 297.695312 13.535156 297.675781 13.40625 297.667969 13.320312 C 297.65625 13.234375 297.652344 13.191406 297.652344 13.191406 C 297.652344 13.191406 297.664062 13.234375 297.6875 13.316406 C 297.710938 13.398438 297.753906 13.519531 297.816406 13.667969 C 297.945312 13.964844 298.183594 14.371094 298.589844 14.773438 C 299.382812 15.605469 300.824219 16.316406 302.445312 17.007812 C 304.066406 17.699219 305.597656 18.171875 306.726562 18.46875 C 307.289062 18.617188 307.753906 18.714844 308.070312 18.789062 C 308.390625 18.855469 308.570312 18.894531 308.570312 18.894531 Z M 308.570312 18.894531 " fill-opacity="1" fill-rule="nonzero"/><path fill="#fcfaef" d="M 269.089844 21.820312 C 269.089844 21.820312 269.042969 21.84375 268.953125 21.890625 C 268.867188 21.945312 268.742188 22.03125 268.621094 22.171875 C 268.375 22.445312 268.125 23.003906 268.285156 23.636719 C 268.441406 24.265625 269.042969 24.886719 269.867188 25.136719 C 270.28125 25.261719 270.742188 25.304688 271.222656 25.285156 C 271.707031 25.257812 272.21875 25.203125 272.652344 25.015625 C 273.097656 24.835938 273.375 24.488281 273.3125 24.109375 C 273.261719 23.734375 272.90625 23.402344 272.546875 23.179688 C 271.796875 22.742188 270.976562 22.488281 270.316406 22.316406 C 269.644531 22.148438 269.082031 22.074219 268.695312 22.039062 C 268.304688 22.003906 268.085938 21.996094 268.085938 21.996094 C 268.085938 21.996094 268.304688 21.96875 268.695312 21.957031 C 269.089844 21.945312 269.667969 21.949219 270.371094 22.058594 C 271.074219 22.175781 271.898438 22.347656 272.777344 22.792969 C 272.992188 22.917969 273.207031 23.0625 273.398438 23.261719 C 273.585938 23.457031 273.761719 23.707031 273.816406 24.027344 C 273.875 24.339844 273.792969 24.683594 273.597656 24.945312 C 273.40625 25.214844 273.136719 25.382812 272.867188 25.5 C 272.3125 25.738281 271.757812 25.773438 271.238281 25.792969 C 270.710938 25.800781 270.191406 25.730469 269.722656 25.558594 C 268.78125 25.21875 268.136719 24.441406 268.023438 23.691406 C 267.914062 22.933594 268.269531 22.371094 268.558594 22.113281 C 268.710938 21.980469 268.847656 21.910156 268.941406 21.871094 C 269.039062 21.835938 269.089844 21.820312 269.089844 21.820312 Z M 269.089844 21.820312 " fill-opacity="1" fill-rule="nonzero"/><path fill="#fcfaef" d="M 242.34375 48.84375 C 242.34375 48.84375 242.539062 48.808594 242.902344 48.769531 C 243.265625 48.734375 243.796875 48.703125 244.453125 48.734375 C 245.109375 48.765625 245.890625 48.867188 246.734375 49.09375 C 247.148438 49.214844 247.613281 49.332031 248.050781 49.636719 C 248.476562 49.933594 248.855469 50.492188 248.714844 51.144531 C 248.640625 51.460938 248.425781 51.714844 248.1875 51.875 C 247.949219 52.039062 247.664062 52.125 247.398438 52.148438 C 246.863281 52.1875 246.398438 52.039062 245.988281 51.902344 C 245.152344 51.621094 244.457031 51.230469 243.921875 50.847656 C 243.382812 50.46875 242.996094 50.101562 242.746094 49.835938 C 242.496094 49.570312 242.375 49.410156 242.375 49.410156 C 242.375 49.410156 242.523438 49.546875 242.804688 49.773438 C 243.085938 50 243.507812 50.3125 244.0625 50.625 C 244.621094 50.941406 245.316406 51.253906 246.121094 51.476562 C 246.523438 51.585938 246.949219 51.6875 247.347656 51.640625 C 247.730469 51.605469 248.121094 51.355469 248.199219 51.019531 C 248.28125 50.679688 248.066406 50.273438 247.746094 50.046875 C 247.425781 49.800781 247.003906 49.660156 246.605469 49.523438 C 245.808594 49.257812 245.0625 49.09375 244.425781 48.996094 C 243.792969 48.902344 243.269531 48.867188 242.90625 48.851562 C 242.542969 48.847656 242.34375 48.84375 242.34375 48.84375 Z M 242.34375 48.84375 " fill-opacity="1" fill-rule="nonzero"/><path fill="#fcfaef" d="M 291.019531 25.6875 C 291.019531 25.6875 291.039062 25.742188 291.074219 25.84375 C 291.109375 25.949219 291.152344 26.101562 291.207031 26.304688 C 291.308594 26.703125 291.433594 27.296875 291.460938 28.042969 C 291.492188 28.789062 291.429688 29.695312 291.160156 30.65625 C 291.011719 31.132812 290.886719 31.636719 290.523438 32.136719 C 290.339844 32.378906 290.050781 32.601562 289.707031 32.660156 C 289.363281 32.726562 289.015625 32.644531 288.726562 32.492188 C 288.441406 32.335938 288.195312 32.117188 288.023438 31.847656 C 287.847656 31.578125 287.757812 31.261719 287.738281 30.972656 C 287.683594 30.378906 287.851562 29.835938 288.046875 29.375 C 288.460938 28.453125 288.984375 27.730469 289.46875 27.160156 C 289.953125 26.589844 290.40625 26.1875 290.726562 25.925781 C 291.050781 25.667969 291.242188 25.539062 291.242188 25.539062 C 291.242188 25.539062 291.070312 25.695312 290.785156 25.988281 C 290.496094 26.285156 290.097656 26.726562 289.675781 27.320312 C 289.257812 27.914062 288.804688 28.667969 288.464844 29.542969 C 288.300781 29.976562 288.1875 30.453125 288.242188 30.921875 C 288.269531 31.15625 288.335938 31.375 288.464844 31.558594 C 288.589844 31.75 288.773438 31.914062 288.976562 32.027344 C 289.402344 32.253906 289.851562 32.183594 290.125 31.824219 C 290.402344 31.472656 290.574219 30.964844 290.730469 30.527344 C 291.03125 29.628906 291.160156 28.769531 291.195312 28.042969 C 291.234375 27.320312 291.179688 26.726562 291.125 26.320312 C 291.097656 26.117188 291.070312 25.957031 291.050781 25.851562 C 291.03125 25.742188 291.019531 25.6875 291.019531 25.6875 Z M 291.019531 25.6875 " fill-opacity="1" fill-rule="nonzero"/><path fill="#fcfaef" d="M 264.871094 48.8125 C 264.871094 48.8125 264.839844 48.859375 264.75 48.921875 C 264.660156 48.980469 264.503906 49.03125 264.304688 49.050781 C 263.914062 49.085938 263.335938 49.121094 262.628906 48.988281 C 261.929688 48.855469 261.074219 48.515625 260.417969 47.769531 C 259.753906 47.054688 259.398438 45.804688 259.9375 44.714844 C 260.074219 44.449219 260.242188 44.199219 260.511719 44.007812 C 260.644531 43.914062 260.820312 43.84375 260.992188 43.832031 C 261.160156 43.816406 261.3125 43.839844 261.449219 43.871094 C 262.007812 44.003906 262.449219 44.34375 262.777344 44.699219 C 263.425781 45.433594 263.753906 46.210938 264.042969 46.851562 C 264.320312 47.496094 264.488281 48.039062 264.59375 48.414062 C 264.695312 48.792969 264.738281 49.003906 264.738281 49.003906 C 264.738281 49.003906 264.65625 48.804688 264.511719 48.441406 C 264.363281 48.082031 264.132812 47.570312 263.804688 46.964844 C 263.464844 46.371094 263.066406 45.625 262.453125 45.007812 C 262.144531 44.707031 261.769531 44.453125 261.339844 44.367188 C 261.113281 44.320312 260.960938 44.328125 260.8125 44.4375 C 260.660156 44.546875 260.515625 44.742188 260.414062 44.949219 C 260.207031 45.363281 260.15625 45.851562 260.226562 46.292969 C 260.296875 46.742188 260.5 47.144531 260.761719 47.484375 C 261.296875 48.164062 262.042969 48.542969 262.691406 48.730469 C 263.34375 48.921875 263.914062 48.957031 264.300781 48.96875 C 264.492188 48.972656 264.644531 48.945312 264.738281 48.898438 C 264.832031 48.855469 264.871094 48.8125 264.871094 48.8125 Z M 264.871094 48.8125 " fill-opacity="1" fill-rule="nonzero"/><path fill="#c6302c" d="M 254.398438 89.039062 C 254.398438 89.039062 254.347656 89.035156 254.257812 89.003906 C 254.164062 88.972656 254.027344 88.914062 253.882812 88.796875 C 253.585938 88.574219 253.277344 88.050781 253.277344 87.371094 C 253.304688 86.054688 253.71875 84.253906 254.757812 82.535156 C 255.785156 80.804688 257.203125 79.605469 258.292969 78.914062 C 258.847656 78.574219 259.316406 78.339844 259.648438 78.195312 C 259.980469 78.058594 260.167969 77.984375 260.167969 77.984375 C 260.167969 77.984375 259.996094 78.085938 259.6875 78.269531 C 259.378906 78.457031 258.949219 78.746094 258.445312 79.132812 C 257.453125 79.917969 256.195312 81.15625 255.214844 82.804688 C 254.222656 84.4375 253.699219 86.144531 253.542969 87.375 C 253.480469 87.992188 253.691406 88.484375 253.941406 88.734375 C 254.058594 88.863281 254.179688 88.9375 254.265625 88.980469 C 254.351562 89.027344 254.398438 89.039062 254.398438 89.039062 Z M 254.398438 89.039062 " fill-opacity="1" fill-rule="nonzero"/><path fill="#c6302c" d="M 280.214844 84.734375 C 280.214844 84.734375 280.394531 84.683594 280.640625 84.574219 C 280.890625 84.464844 281.195312 84.28125 281.5 84.046875 C 281.800781 83.808594 282.046875 83.554688 282.214844 83.335938 C 282.378906 83.121094 282.46875 82.957031 282.46875 82.957031 C 282.46875 82.957031 282.472656 83.007812 282.480469 83.085938 C 282.488281 83.171875 282.484375 83.296875 282.457031 83.445312 C 282.402344 83.746094 282.207031 84.160156 281.828125 84.460938 C 281.449219 84.761719 280.996094 84.851562 280.691406 84.835938 C 280.539062 84.828125 280.417969 84.804688 280.335938 84.777344 C 280.261719 84.75 280.214844 84.734375 280.214844 84.734375 Z M 280.214844 84.734375 " fill-opacity="1" fill-rule="nonzero"/><path fill="#c6302c" d="M 374.824219 120.851562 C 374.824219 120.851562 374.824219 120.492188 374.738281 119.8125 C 374.652344 119.132812 374.472656 118.140625 374.167969 116.875 C 373.863281 115.609375 373.445312 114.070312 372.902344 112.304688 C 372.355469 110.539062 371.683594 108.539062 370.949219 106.328125 C 368 97.488281 363.574219 85.378906 359.175781 71.847656 C 358.050781 68.476562 356.957031 65.183594 355.894531 62.003906 C 355.625 61.207031 355.359375 60.417969 355.09375 59.636719 C 354.832031 58.859375 354.5625 58.105469 354.238281 57.386719 C 353.601562 55.953125 352.660156 54.730469 351.34375 54.023438 C 350.046875 53.273438 348.617188 52.832031 347.210938 52.480469 C 345.804688 52.132812 344.402344 51.867188 343.058594 51.523438 C 340.390625 50.847656 337.921875 50.125 335.703125 49.363281 C 331.296875 47.773438 327.777344 46.402344 325.324219 45.488281 C 322.878906 44.5625 321.527344 44.050781 321.527344 44.050781 C 321.527344 44.050781 326.996094 45.9375 335.832031 48.988281 C 338.050781 49.699219 340.519531 50.367188 343.191406 50.996094 C 344.519531 51.3125 345.917969 51.554688 347.355469 51.890625 C 348.789062 52.226562 350.28125 52.660156 351.679688 53.441406 C 352.375 53.816406 353.050781 54.347656 353.582031 54.980469 C 354.121094 55.613281 354.550781 56.335938 354.894531 57.085938 C 355.246094 57.839844 355.527344 58.617188 355.800781 59.398438 C 356.070312 60.171875 356.339844 60.957031 356.613281 61.746094 C 357.6875 64.929688 358.796875 68.222656 359.933594 71.597656 C 364.332031 85.128906 368.5625 97.292969 371.328125 106.203125 C 372.015625 108.433594 372.640625 110.445312 373.144531 112.230469 C 373.644531 114.015625 374.023438 115.570312 374.289062 116.847656 C 374.558594 118.125 374.707031 119.125 374.773438 119.808594 C 374.835938 120.492188 374.824219 120.851562 374.824219 120.851562 Z M 374.824219 120.851562 " fill-opacity="1" fill-rule="nonzero"/><g clip-path="url(#e1710438bf)"><path fill="#c6302c" d="M 367.519531 140.851562 C 367.519531 140.851562 366.992188 141.257812 366.035156 141.988281 C 365.070312 142.714844 363.699219 143.796875 361.84375 144.933594 C 360.917969 145.5 359.855469 146.058594 358.644531 146.511719 C 357.4375 146.976562 356.058594 147.257812 354.617188 147.375 C 353.175781 147.5 351.664062 147.484375 350.121094 147.5 C 348.570312 147.523438 346.960938 147.550781 345.316406 147.574219 C 338.726562 147.640625 332.761719 147.457031 328.449219 147.253906 C 324.132812 147.050781 321.472656 146.839844 321.472656 146.839844 C 321.472656 146.839844 324.144531 146.847656 328.457031 146.855469 C 332.773438 146.863281 338.730469 146.84375 345.308594 146.78125 C 346.957031 146.765625 348.5625 146.753906 350.117188 146.738281 C 351.675781 146.742188 353.164062 146.792969 354.566406 146.707031 C 355.972656 146.628906 357.28125 146.402344 358.464844 146 C 359.644531 145.605469 360.707031 145.105469 361.644531 144.589844 C 363.523438 143.554688 364.957031 142.550781 365.960938 141.886719 C 366.964844 141.21875 367.519531 140.851562 367.519531 140.851562 Z M 367.519531 140.851562 " fill-opacity="1" fill-rule="nonzero"/></g><path fill="#c6302c" d="M 302.667969 91.027344 C 302.667969 91.027344 303.050781 90.429688 303.738281 89.34375 C 304.425781 88.257812 305.410156 86.679688 306.582031 84.710938 C 308.929688 80.773438 312.042969 75.25 315.070312 68.976562 C 316.578125 65.847656 317.550781 62.695312 318.28125 59.78125 C 319.007812 56.867188 319.523438 54.199219 319.988281 51.96875 C 320.457031 49.742188 320.703125 47.917969 320.71875 46.648438 C 320.730469 46.015625 320.699219 45.523438 320.675781 45.191406 C 320.640625 44.855469 320.625 44.683594 320.625 44.683594 C 320.625 44.683594 320.65625 44.855469 320.710938 45.1875 C 320.753906 45.519531 320.820312 46.011719 320.84375 46.648438 C 320.910156 47.925781 320.761719 49.785156 320.390625 52.039062 C 320.027344 54.289062 319.609375 56.972656 318.953125 59.933594 C 318.292969 62.882812 317.34375 66.125 315.8125 69.304688 C 312.761719 75.628906 309.460938 81.070312 306.929688 84.914062 C 305.667969 86.839844 304.597656 88.363281 303.84375 89.410156 C 303.085938 90.453125 302.667969 91.027344 302.667969 91.027344 Z M 302.667969 91.027344 " fill-opacity="1" fill-rule="nonzero"/><g mask="url(#33d640ff10)"><g transform="matrix(1, 0, 0, 1, 327, 66)"><g clip-path="url(#3b324f3ea5)"><g clip-path="url(#9e888daf89)"><path fill="#f55d4e" d="M 0.683594 18.710938 C 0.96875 23.050781 3.507812 26.925781 6.402344 30.183594 C 9.296875 33.445312 12.640625 36.332031 15.109375 39.921875 C 16.777344 42.351562 18.53125 45.40625 21.484375 45.554688 C 22.507812 45.605469 23.527344 45.265625 24.398438 44.726562 C 26.363281 43.507812 27.582031 41.34375 28.140625 39.105469 C 28.695312 36.871094 28.664062 34.535156 28.621094 32.230469 C 28.550781 28.792969 28.4375 25.234375 26.953125 22.128906 C 25.367188 18.808594 22.28125 16.171875 21.574219 12.558594 C 21.160156 10.453125 21.617188 8.21875 21.023438 6.152344 C 20.332031 3.742188 18.179688 1.855469 15.726562 1.285156 C 6.894531 -0.765625 0.191406 11.3125 0.683594 18.710938 Z M 0.683594 18.710938 " fill-opacity="1" fill-rule="nonzero"/></g></g></g></g><path fill="#c6302c" d="M 338.9375 109.179688 C 338.9375 109.179688 338.707031 108.71875 338.296875 107.894531 C 338.085938 107.480469 337.835938 106.96875 337.585938 106.359375 C 337.328125 105.753906 337.007812 105.070312 336.734375 104.289062 C 336.589844 103.898438 336.4375 103.488281 336.277344 103.0625 C 336.125 102.636719 335.992188 102.183594 335.84375 101.71875 C 335.53125 100.789062 335.277344 99.773438 335 98.707031 C 334.496094 96.566406 334.078125 94.171875 333.863281 91.636719 C 333.667969 89.097656 333.699219 86.667969 333.851562 84.472656 C 333.953125 83.375 334.039062 82.332031 334.199219 81.367188 C 334.273438 80.882812 334.332031 80.414062 334.414062 79.96875 C 334.503906 79.523438 334.585938 79.097656 334.667969 78.6875 C 334.816406 77.871094 335.019531 77.144531 335.175781 76.507812 C 335.328125 75.867188 335.492188 75.320312 335.632812 74.878906 C 335.90625 74 336.0625 73.507812 336.0625 73.507812 C 336.0625 73.507812 335.960938 74.011719 335.78125 74.917969 C 335.6875 75.367188 335.578125 75.921875 335.480469 76.570312 C 335.382812 77.21875 335.242188 77.949219 335.15625 78.769531 C 335.105469 79.175781 335.050781 79.601562 334.996094 80.046875 C 334.941406 80.492188 334.917969 80.960938 334.871094 81.441406 C 334.769531 82.402344 334.738281 83.433594 334.683594 84.515625 C 334.625 86.683594 334.65625 89.0625 334.847656 91.554688 C 335.058594 94.046875 335.410156 96.402344 335.816406 98.53125 C 336.042969 99.59375 336.238281 100.605469 336.492188 101.539062 C 336.613281 102.003906 336.714844 102.460938 336.839844 102.890625 C 336.964844 103.324219 337.085938 103.738281 337.203125 104.132812 C 337.417969 104.925781 337.671875 105.625 337.875 106.25 C 338.074219 106.875 338.269531 107.402344 338.4375 107.832031 C 338.757812 108.699219 338.9375 109.179688 338.9375 109.179688 Z M 338.9375 109.179688 " fill-opacity="1" fill-rule="nonzero"/><path fill="#c6302c" d="M 345.535156 116.535156 C 345.535156 116.535156 345.460938 116.167969 345.324219 115.515625 C 345.195312 114.859375 344.988281 113.914062 344.71875 112.75 C 344.453125 111.589844 344.097656 110.21875 343.683594 108.703125 C 343.253906 107.191406 342.757812 105.542969 342.1875 103.824219 C 341.613281 102.109375 341.019531 100.488281 340.457031 99.023438 C 339.882812 97.5625 339.339844 96.25 338.859375 95.160156 C 338.375 94.070312 337.976562 93.1875 337.683594 92.585938 C 337.402344 91.980469 337.242188 91.640625 337.242188 91.640625 C 337.242188 91.640625 337.449219 91.953125 337.820312 92.511719 C 338.191406 93.070312 338.703125 93.894531 339.296875 94.941406 C 339.898438 95.980469 340.554688 97.253906 341.222656 98.699219 C 341.882812 100.148438 342.542969 101.769531 343.125 103.511719 C 343.703125 105.257812 344.148438 106.953125 344.492188 108.503906 C 344.824219 110.0625 345.058594 111.472656 345.203125 112.667969 C 345.351562 113.859375 345.441406 114.824219 345.476562 115.496094 C 345.515625 116.164062 345.535156 116.535156 345.535156 116.535156 Z M 345.535156 116.535156 " fill-opacity="1" fill-rule="nonzero"/><path fill="#fcfaef" d="M 48.726562 69.519531 C 43.675781 69.519531 39.914062 68.402344 37.441406 66.167969 C 35.035156 63.867188 33.835938 60.382812 33.835938 55.710938 L 33.835938 23.355469 L 38.574219 23.355469 L 38.574219 55.710938 C 38.574219 59.109375 39.398438 61.617188 41.046875 63.234375 C 42.695312 64.882812 45.253906 65.707031 48.726562 65.707031 L 63.5625 65.707031 L 63.5625 69.519531 Z M 48.726562 69.519531 " fill-opacity="1" fill-rule="nonzero"/><path fill="#fcfaef" d="M 95.558594 63.902344 C 95.558594 64.691406 95.679688 65.363281 95.917969 65.910156 C 96.230469 66.394531 96.777344 66.960938 97.570312 67.613281 L 94.632812 70.238281 C 93.53125 69.621094 92.707031 68.917969 92.160156 68.128906 C 91.644531 67.335938 91.335938 66.308594 91.230469 65.035156 C 90.097656 66.71875 88.550781 68.007812 86.59375 68.898438 C 84.601562 69.792969 82.371094 70.238281 79.894531 70.238281 C 76.5625 70.238281 74.003906 69.46875 72.21875 67.921875 C 70.398438 66.339844 69.488281 64.074219 69.488281 61.121094 C 69.488281 58.40625 70.433594 56.277344 72.324219 54.730469 C 74.210938 53.1875 77.0625 52.207031 80.875 51.792969 L 86.027344 51.175781 C 87.503906 51.003906 88.585938 50.78125 89.273438 50.507812 C 90.027344 50.265625 90.527344 49.90625 90.765625 49.425781 C 91.042969 48.875 91.164062 48.136719 91.128906 47.210938 C 90.714844 43.121094 87.847656 41.078125 82.523438 41.078125 C 80.566406 41.078125 78.882812 41.421875 77.472656 42.109375 C 76.066406 42.691406 74.863281 43.671875 73.867188 45.046875 L 70.828125 42.828125 C 72.890625 39.464844 76.789062 37.78125 82.523438 37.78125 C 86.75 37.78125 89.960938 38.691406 92.160156 40.511719 C 94.425781 42.296875 95.558594 44.890625 95.558594 48.292969 Z M 80.875 66.789062 C 83.964844 66.789062 86.457031 65.996094 88.347656 64.417969 C 90.234375 62.835938 91.179688 60.742188 91.179688 58.132812 L 91.179688 52.824219 C 90.664062 53.203125 90.027344 53.511719 89.273438 53.753906 C 88.519531 53.925781 87.488281 54.078125 86.183594 54.214844 L 81.289062 54.730469 C 78.78125 55.039062 76.875 55.746094 75.566406 56.84375 C 74.296875 57.910156 73.660156 59.316406 73.660156 61.070312 C 73.660156 64.882812 76.066406 66.789062 80.875 66.789062 Z M 80.875 66.789062 " fill-opacity="1" fill-rule="evenodd"/><path fill="#fcfaef" d="M 117.457031 70.238281 C 113.164062 70.238281 109.847656 69.242188 107.511719 67.25 C 105.175781 65.292969 104.007812 62.441406 104.007812 58.699219 L 104.007812 49.320312 C 104.007812 45.679688 105.195312 42.847656 107.5625 40.820312 C 109.933594 38.792969 113.265625 37.78125 117.558594 37.78125 C 120.136719 37.78125 122.367188 38.210938 124.257812 39.070312 C 126.144531 39.894531 127.777344 41.164062 129.152344 42.882812 L 126.113281 45.457031 C 124.875 43.945312 123.605469 42.882812 122.300781 42.261719 C 120.960938 41.644531 119.378906 41.335938 117.558594 41.335938 C 114.675781 41.335938 112.425781 42.039062 110.808594 43.449219 C 109.230469 44.855469 108.441406 46.8125 108.441406 49.320312 L 108.441406 58.699219 C 108.441406 61.242188 109.210938 63.214844 110.757812 64.625 C 112.339844 65.996094 114.570312 66.683594 117.457031 66.683594 C 119.449219 66.683594 121.164062 66.359375 122.609375 65.707031 C 124.050781 65.054688 125.289062 64.039062 126.316406 62.664062 L 129.359375 65.242188 C 128.085938 66.960938 126.472656 68.230469 124.515625 69.054688 C 122.589844 69.84375 120.238281 70.238281 117.457031 70.238281 Z M 117.457031 70.238281 " fill-opacity="1" fill-rule="nonzero"/><path fill="#fcfaef" d="M 141.363281 42.109375 L 141.363281 60.554688 C 141.363281 64.46875 143.082031 66.425781 146.515625 66.425781 L 150.277344 66.425781 L 150.277344 69.929688 L 146.515625 69.929688 C 143.21875 69.929688 140.796875 69.175781 139.25 67.664062 C 137.738281 66.117188 136.984375 63.746094 136.984375 60.554688 L 136.984375 31.339844 C 136.984375 30.550781 136.828125 29.914062 136.519531 29.433594 C 136.246094 28.882812 135.710938 28.28125 134.921875 27.628906 L 137.910156 25.003906 C 139.214844 25.757812 140.109375 26.617188 140.589844 27.578125 C 141.105469 28.507812 141.363281 29.792969 141.363281 31.441406 L 141.363281 38.5 L 150.277344 38.5 L 150.277344 42.109375 Z M 141.363281 42.109375 " fill-opacity="1" fill-rule="nonzero"/><path fill="#fcfaef" d="M 169.699219 70.238281 C 165.578125 70.238281 162.351562 69.210938 160.015625 67.148438 C 157.710938 65.019531 156.5625 62.066406 156.5625 58.285156 L 156.5625 49.734375 C 156.5625 45.957031 157.710938 43.035156 160.015625 40.976562 C 162.351562 38.84375 165.578125 37.78125 169.699219 37.78125 C 173.820312 37.78125 177.035156 38.84375 179.335938 40.976562 C 181.671875 43.035156 182.839844 45.957031 182.839844 49.734375 L 182.839844 58.285156 C 182.839844 62.066406 181.671875 65.019531 179.335938 67.148438 C 177.035156 69.210938 173.820312 70.238281 169.699219 70.238281 Z M 169.699219 66.683594 C 172.484375 66.683594 174.613281 65.964844 176.089844 64.519531 C 177.636719 63.042969 178.40625 60.964844 178.40625 58.285156 L 178.40625 49.734375 C 178.40625 47.054688 177.636719 44.992188 176.089844 43.550781 C 174.613281 42.074219 172.484375 41.335938 169.699219 41.335938 C 166.917969 41.335938 164.753906 42.074219 163.207031 43.550781 C 161.730469 44.992188 160.992188 47.054688 160.992188 49.734375 L 160.992188 58.285156 C 160.992188 60.964844 161.730469 63.042969 163.207031 64.519531 C 164.753906 65.964844 166.917969 66.683594 169.699219 66.683594 Z M 169.699219 66.683594 " fill-opacity="1" fill-rule="evenodd"/><path fill="#fcfaef" d="M 170.699219 113.359375 C 166.542969 113.359375 163.3125 112.3125 161.011719 110.214844 C 158.710938 108.121094 157.558594 105.183594 157.558594 101.40625 L 157.558594 92.851562 C 157.558594 89.039062 158.710938 86.101562 161.011719 84.042969 C 163.3125 81.949219 166.542969 80.898438 170.699219 80.898438 C 174.820312 80.898438 178.03125 81.949219 180.332031 84.042969 C 182.632812 86.101562 183.785156 89.039062 183.785156 92.851562 L 183.785156 101.40625 C 183.785156 105.183594 182.632812 108.121094 180.332031 110.214844 C 178.03125 112.3125 174.820312 113.359375 170.699219 113.359375 Z M 170.699219 109.753906 C 173.445312 109.753906 175.574219 109.03125 177.085938 107.589844 C 178.632812 106.144531 179.40625 104.085938 179.40625 101.40625 L 179.40625 92.851562 C 179.40625 90.140625 178.632812 88.0625 177.085938 86.617188 C 175.574219 85.175781 173.445312 84.453125 170.699219 84.453125 C 167.914062 84.453125 165.75 85.175781 164.207031 86.617188 C 162.730469 88.0625 161.992188 90.140625 161.992188 92.851562 C 161.992188 95.53125 161.992188 101.40625 161.992188 101.40625 C 161.992188 104.085938 162.730469 106.144531 164.207031 107.589844 C 165.75 109.03125 167.914062 109.753906 170.699219 109.753906 Z M 170.699219 109.753906 " fill-opacity="1" fill-rule="evenodd"/><path fill="#fcfaef" d="M 191.410156 82.34375 L 195.429688 82.34375 L 201.558594 109.496094 C 202.589844 109.253906 203.328125 108.5 203.777344 107.226562 L 211.089844 85.175781 L 218.460938 107.226562 C 218.699219 107.914062 218.976562 108.429688 219.285156 108.773438 C 219.628906 109.152344 220.058594 109.375 220.570312 109.441406 L 226.753906 82.34375 L 230.671875 82.34375 L 223.613281 113.359375 L 221.707031 113.359375 C 220.089844 113.359375 218.785156 113 217.789062 112.277344 C 216.828125 111.519531 216.105469 110.386719 215.625 108.875 L 211.089844 94.605469 L 206.507812 108.875 C 205.992188 110.492188 205.269531 111.640625 204.34375 112.328125 C 203.414062 113.015625 202.125 113.359375 200.476562 113.359375 L 198.570312 113.359375 Z M 191.410156 82.34375 " fill-opacity="1" fill-rule="nonzero"/><g clip-path="url(#7b21b49513)"><path fill="#fcfaef" d="M 175.542969 133.96875 C 174.046875 133.96875 142.308594 124.953125 141.792969 123.664062 C 140.246094 122.890625 139.21875 121.34375 138.652344 117.480469 C 138.136719 113.566406 138.652344 81.722656 138.652344 81.722656 C 138.652344 80.898438 138.496094 80.230469 138.1875 79.714844 C 137.945312 79.199219 137.429688 78.632812 136.640625 78.015625 L 139.527344 75.386719 C 140.902344 76.140625 141.828125 77 142.308594 77.960938 C 142.824219 78.890625 143.082031 80.179688 143.082031 81.828125 L 144.164062 117.480469 C 144.164062 118.253906 144.679688 119.695312 144.679688 119.695312 C 144.679688 119.695312 145.453125 120.726562 145.96875 120.984375 C 146.480469 121.242188 175.285156 127.269531 176.828125 128.558594 C 178.375 129.847656 177.035156 133.96875 175.542969 133.96875 Z M 175.542969 133.96875 " fill-opacity="1" fill-rule="nonzero"/></g><path fill="#fcfaef" d="M 162.441406 125.167969 C 156.378906 125.167969 151.863281 123.824219 148.894531 121.144531 C 146.007812 118.382812 144.5625 114.195312 144.5625 108.585938 L 144.5625 69.734375 L 150.253906 69.734375 L 150.253906 108.585938 C 150.253906 112.667969 151.246094 115.679688 153.222656 117.617188 C 155.203125 119.597656 158.277344 120.589844 162.441406 120.589844 L 180.257812 120.589844 L 180.257812 125.167969 Z M 162.441406 125.167969 " fill-opacity="1" fill-rule="nonzero"/><path fill="#fcfaef" d="M 105.21875 85.992188 C 105.21875 80.566406 106.652344 76.558594 109.527344 73.964844 C 112.4375 71.292969 116.867188 69.957031 122.808594 69.957031 L 141.296875 69.957031 L 141.296875 74.445312 L 122.808594 74.445312 C 118.699219 74.445312 115.648438 75.382812 113.65625 77.257812 C 111.699219 79.132812 110.722656 82.042969 110.722656 85.992188 L 110.722656 96.105469 L 137.410156 96.105469 L 137.410156 100.53125 L 110.722656 100.53125 L 110.722656 123.566406 L 105.21875 123.566406 Z M 105.21875 85.992188 " fill-opacity="1" fill-rule="nonzero"/></svg>