<svg xmlns="http://www.w3.org/2000/svg" xmlns:xlink="http://www.w3.org/1999/xlink" width="500" zoomAndPan="magnify" viewBox="0 0 375 374.999991" height="500" preserveAspectRatio="xMidYMid meet" version="1.0"><defs><g/></defs><path fill="#c6302c" d="M 222.949219 151.328125 C 207.238281 157.515625 188.613281 155.75 174.347656 146.722656 C 169.742188 143.804688 165.28125 139.640625 164.71875 134.222656 C 164.15625 128.808594 169.800781 122.964844 174.761719 125.222656 C 163.441406 114.039062 160.050781 95.628906 166.640625 81.152344 C 167.171875 79.980469 167.867188 78.742188 169.070312 78.28125 C 170.441406 77.753906 171.972656 78.425781 173.4375 78.332031 C 175.945312 78.171875 177.726562 75.886719 179 73.726562 C 184.410156 64.582031 186.984375 54.050781 191.664062 44.511719 C 196.347656 34.972656 204.132812 25.878906 214.632812 24.175781 C 229.523438 21.765625 242.9375 34.820312 258.023438 35.082031 C 261.496094 24.382812 273.097656 18.679688 283.984375 15.796875 C 294.074219 13.128906 304.539062 11.859375 314.976562 12.042969 C 318.503906 12.105469 322.128906 12.359375 325.296875 13.902344 C 330.839844 16.601562 333.9375 22.847656 334.53125 28.976562 C 335.125 35.101562 333.621094 41.21875 332.132812 47.191406 C 340.140625 44.347656 350.699219 42.195312 355.773438 49.003906 C 359.171875 53.5625 358.128906 59.933594 356.722656 65.441406 C 353.601562 77.691406 348.769531 89.1875 343.867188 100.90625 C 339.546875 111.238281 329.851562 116.453125 320.503906 121.617188 C 309.25 127.839844 296.570312 130.914062 284.066406 133.921875 C 265.496094 138.390625 240.71875 144.332031 222.949219 151.328125 Z M 222.949219 151.328125 " fill-opacity="1" fill-rule="nonzero"/><path fill="#f55d4e" d="M 292.554688 366.628906 C 293.992188 371.269531 295.089844 375.496094 297.140625 380.394531 C 301.636719 391.132812 311.621094 398.410156 321.207031 405.03125 C 327.484375 409.367188 335.070312 413.269531 342.515625 414.933594 C 330.925781 418.339844 318.960938 419.875 306.953125 421.21875 C 323.328125 425.230469 340.597656 427.300781 357.441406 426.550781 C 376.371094 432.707031 395.691406 441.445312 415.601562 441.445312 C 447.773438 441.445312 481.203125 441.296875 514.019531 441.222656 C 499.863281 414.128906 490.894531 384.476562 488.742188 353.308594 C 423.835938 360.058594 357.742188 362.054688 292.554688 366.628906 Z M 292.554688 366.628906 " fill-opacity="1" fill-rule="nonzero"/><path fill="#fcfaef" d="M 600.085938 340.953125 C 593.402344 312.160156 583.921875 284.097656 574.453125 256.09375 C 562.960938 222.082031 551.464844 188.074219 539.96875 154.0625 C 538.695312 150.300781 537.335938 146.390625 534.519531 143.589844 C 531.671875 140.765625 527.710938 139.429688 523.898438 138.183594 C 492.738281 128.003906 461.574219 117.820312 430.414062 107.640625 C 410.414062 119.101562 390.246094 130.171875 369.664062 140.5625 C 332.695312 159.21875 295.628906 177.9375 261.167969 200.886719 C 254.800781 205.128906 248.445312 209.585938 243.53125 215.445312 C 238.4375 221.519531 235.117188 228.835938 231.402344 235.835938 C 218.082031 260.941406 199.167969 282.820312 186.535156 308.28125 C 184.453125 312.476562 182.613281 317.734375 185.285156 321.578125 C 186.675781 323.578125 189.015625 324.691406 191.316406 325.5 C 195.234375 326.875 200.984375 325.921875 205.085938 326.582031 C 232.734375 331.050781 259.3125 337 286.328125 344.382812 C 286.933594 350.496094 289.011719 356.355469 291.070312 362.144531 C 291.625 363.703125 292.105469 365.183594 292.554688 366.628906 C 357.742188 362.054688 423.835938 360.058594 488.742188 353.308594 C 490.894531 384.476562 499.863281 414.128906 514.019531 441.222656 C 525.230469 441.199219 536.375 441.179688 547.367188 441.179688 C 576.296875 430.789062 601.46875 405.433594 603.925781 374.828125 C 604.839844 363.453125 602.667969 352.070312 600.085938 340.953125 Z M 600.085938 340.953125 " fill-opacity="1" fill-rule="nonzero"/><path fill="#f55d4e" d="M 200.261719 141.847656 C 213.074219 150.847656 225.964844 159.910156 236.976562 171.03125 C 243.199219 177.3125 249.054688 184.898438 249.46875 193.722656 C 254.703125 189.046875 257.589844 185.046875 262.238281 179.792969 C 280.550781 188.714844 297.449219 197.84375 317.140625 203.074219 C 316.710938 202.738281 317.570312 203.410156 317.140625 203.074219 C 318.460938 202.160156 318.824219 201.789062 319.714844 200.453125 C 327.265625 189.097656 333.140625 176.632812 337.085938 163.585938 C 347.492188 161.082031 356.546875 160.296875 367.054688 162.335938 C 370.726562 157.035156 374.296875 149.933594 374.875 143.511719 C 376.371094 126.855469 379.027344 112.242188 376.011719 95.792969 C 358.679688 95.699219 340.929688 94.5625 325.785156 94.015625 C 325.785156 94.015625 324.976562 89.585938 324.21875 86.027344 C 323.121094 80.867188 319.125 74.101562 315.5 70.261719 C 310.917969 65.402344 304.035156 62.648438 297.40625 63.511719 C 290.777344 64.378906 284.664062 69.050781 282.558594 75.390625 C 281.851562 77.523438 281.585938 79.839844 282.089844 82.03125 C 283.226562 86.960938 287.871094 90.203125 292.347656 92.578125 C 287.382812 90.273438 282.042969 92.796875 277.722656 96.15625 C 273.40625 99.511719 271.191406 105.371094 272.214844 110.738281 C 272.429688 111.875 272.777344 113.027344 272.554688 114.160156 C 272.179688 116.039062 270.363281 117.261719 268.605469 118.035156 C 262.535156 120.71875 255.65625 120.570312 249.039062 121.105469 C 248.136719 121.179688 247.109375 121.339844 246.617188 122.097656 C 246.226562 122.703125 246.316406 123.484375 246.320312 124.207031 C 246.34375 129.886719 240.417969 133.570312 235.101562 135.589844 C 224.566406 139.597656 211.535156 141.816406 200.261719 141.847656 Z M 200.261719 141.847656 " fill-opacity="1" fill-rule="nonzero"/><path fill="#91cdca" d="M 292.757812 202.480469 C 300.734375 206.804688 306.996094 214.238281 310.175781 225.742188 C 310.828125 228.105469 311.382812 230.582031 312.851562 232.550781 C 314.699219 235.027344 317.777344 236.351562 320.847656 236.738281 C 323.917969 237.125 327.023438 236.683594 330.085938 236.242188 C 329.703125 238.25 328.882812 240.171875 327.699219 241.835938 C 328.582031 256.855469 322.757812 273.828125 310.851562 283.046875 C 299.242188 292.035156 284.210938 295.019531 269.777344 297.742188 C 260.652344 299.464844 251.527344 307.128906 242.40625 308.847656 C 234.046875 310.425781 224.867188 305.933594 217.472656 301.734375 C 213.992188 299.757812 211.269531 296.691406 208.851562 293.5 C 196.644531 277.371094 191.8125 251.949219 200.644531 233.132812 C 214.148438 204.371094 263.714844 186.738281 292.757812 202.480469 Z M 292.757812 202.480469 " fill-opacity="1" fill-rule="nonzero"/><path fill="#4f8987" d="M 284.121094 260.074219 C 297.363281 251.605469 313.058594 248.003906 328.453125 244.808594 C 329.976562 244.492188 331.585938 244.183594 333.058594 244.6875 C 336.347656 245.8125 337.074219 250.253906 336.167969 253.605469 C 335.257812 256.957031 333.296875 260.089844 333.277344 263.5625 C 333.253906 268.726562 337.675781 273.019531 342.542969 274.761719 C 347.410156 276.507812 352.71875 276.332031 357.886719 276.570312 C 368.851562 277.078125 379.722656 279.5625 389.816406 283.871094 C 397.488281 287.140625 404.722656 291.457031 412.636719 294.085938 C 425.003906 298.191406 438.503906 298.007812 450.796875 302.324219 C 461.910156 306.226562 471.421875 313.574219 480.714844 320.800781 C 485.734375 324.703125 490.753906 328.605469 495.773438 332.511719 C 503.421875 338.457031 511.578125 345.183594 513.625 354.644531 C 515.660156 364.046875 511.089844 373.484375 506.652344 382.019531 C 504.804688 385.574219 502.914062 389.191406 500.085938 392.03125 C 497.707031 394.417969 494.761719 396.160156 491.761719 397.695312 C 481.570312 402.917969 470.328125 406.09375 458.90625 406.96875 C 444.523438 408.074219 430.136719 405.582031 415.929688 403.097656 C 408.011719 401.714844 400.097656 400.328125 392.183594 398.945312 C 368.921875 394.878906 345.664062 390.8125 322.40625 386.746094 C 311.933594 384.914062 301.09375 382.9375 292.355469 376.890625 C 282.257812 369.898438 276.355469 358.449219 271.09375 347.359375 C 256.871094 317.375 252.101562 280.5625 284.121094 260.074219 Z M 284.121094 260.074219 " fill-opacity="1" fill-rule="nonzero"/><path fill="#f55d4e" d="M 243.757812 368.269531 C 267.894531 357.871094 292.035156 347.472656 316.175781 337.078125 C 323.589844 333.882812 332.644531 328.296875 338.566406 333.78125 C 360.933594 354.496094 386.566406 371.695312 414.226562 384.542969 C 402.757812 375.492188 394.464844 363.964844 386.125 351.972656 C 401.285156 367.160156 419.621094 379.171875 439.609375 387.007812 C 431.035156 376.339844 422.460938 365.675781 413.890625 355.007812 C 410.917969 351.308594 410.132812 347.65625 407.320312 343.832031 C 423.597656 358.246094 442 370.265625 461.75 379.375 C 463.035156 379.96875 464.90625 380.375 465.570312 379.125 C 456.769531 370.066406 447.96875 361.003906 439.167969 351.941406 C 432.824219 345.410156 429.582031 338.042969 423.953125 330.890625 C 435.246094 334.957031 444.6875 343.40625 456.257812 346.597656 C 462.953125 348.441406 470.019531 348.417969 476.953125 347.988281 C 455.246094 333.453125 434.910156 316.449219 417.203125 297.257812 C 426.167969 296.09375 435.261719 292.070312 442.226562 286.3125 C 407.0625 287.007812 372.164062 280.96875 338.3125 271.429688 C 286.613281 287.25 234.914062 303.070312 183.214844 318.886719 C 183.351562 330.773438 189.980469 342.113281 199.40625 349.367188 C 208.828125 356.625 220.171875 360.863281 231.328125 365.003906 C 234.476562 366.171875 240.398438 368.210938 243.757812 368.269531 Z M 243.757812 368.269531 " fill-opacity="1" fill-rule="nonzero"/><path fill="#f55d4e" d="M 339.957031 145.0625 C 345.542969 184.3125 355.398438 222.953125 369.296875 260.085938 C 392.574219 222.300781 418.808594 185.25 425.46875 141.386719 C 427.132812 130.414062 427.691406 119.308594 428.25 108.222656 C 409.664062 103.753906 394.921875 98.585938 376.011719 95.792969 C 376.242188 95.300781 373.925781 96.894531 373.398438 97.019531 C 372.867188 97.140625 372.515625 97.628906 372.210938 98.078125 C 360.523438 115.363281 351.644531 127.777344 339.957031 145.0625 Z M 339.957031 145.0625 " fill-opacity="1" fill-rule="nonzero"/><path fill="#c6302c" d="M 315.402344 30.433594 C 309.980469 15.933594 304.929688 -1.605469 314.308594 -13.929688 C 317.664062 -18.339844 322.519531 -21.410156 327.625 -23.566406 C 338.839844 -28.300781 353.792969 -27.996094 361.039062 -18.226562 C 364.648438 -13.355469 365.660156 -7.078125 368.285156 -1.613281 C 372.246094 6.636719 380.125 12.90625 389.066406 14.917969 C 398.003906 16.933594 407.816406 14.644531 414.9375 8.890625 C 415.769531 15.128906 410.847656 20.976562 405.015625 23.359375 C 399.179688 25.738281 392.648438 25.457031 386.355469 25.140625 C 398.519531 31.0625 412.941406 32.199219 425.886719 28.253906 C 427.074219 44.703125 417.699219 61.769531 402.589844 68.425781 C 387.480469 75.078125 367.703125 69.84375 358.902344 55.890625 C 356.398438 51.914062 354.773438 47.429688 352.207031 43.492188 C 342.203125 28.128906 321.390625 25 303.121094 23.328125 " fill-opacity="1" fill-rule="nonzero"/><path fill="#c6302c" d="M 287.835938 191.132812 C 287.835938 191.132812 288.492188 190.703125 289.445312 189.699219 C 290.386719 188.695312 291.570312 187.046875 292.410156 184.746094 C 293.269531 182.457031 293.757812 179.546875 293.75 176.3125 C 293.742188 173.074219 293.210938 169.523438 292.421875 165.820312 C 290.8125 158.402344 288.9375 151.742188 287.628906 146.90625 C 286.324219 142.074219 285.511719 139.070312 285.511719 139.070312 C 285.511719 139.070312 286.707031 141.9375 288.449219 146.648438 C 290.171875 151.359375 292.472656 157.929688 294.105469 165.464844 C 294.914062 169.234375 295.359375 172.949219 295.203125 176.34375 C 295.050781 179.730469 294.3125 182.761719 293.203125 185.078125 C 292.121094 187.410156 290.707031 188.984375 289.632812 189.894531 C 289.089844 190.347656 288.636719 190.65625 288.320312 190.847656 C 288.003906 191.035156 287.835938 191.132812 287.835938 191.132812 Z M 287.835938 191.132812 " fill-opacity="1" fill-rule="nonzero"/><path fill="#c6302c" d="M 241.160156 165.265625 C 241.160156 165.265625 241.429688 165.164062 241.875 164.949219 C 242.320312 164.738281 242.925781 164.359375 243.5625 163.792969 C 244.835938 162.667969 246.125 160.636719 246.699219 158.164062 C 247.269531 155.664062 247.234375 153.210938 247.226562 151.417969 C 247.214844 149.636719 247.207031 148.488281 247.207031 148.488281 C 247.207031 148.488281 247.625 149.542969 248.082031 151.3125 C 248.515625 153.066406 249.027344 155.664062 248.378906 158.554688 C 247.703125 161.476562 245.75 163.621094 244.058594 164.492188 C 243.214844 164.945312 242.46875 165.144531 241.957031 165.207031 C 241.441406 165.273438 241.160156 165.265625 241.160156 165.265625 Z M 241.160156 165.265625 " fill-opacity="1" fill-rule="nonzero"/><path fill="#c6302c" d="M 238.933594 140.433594 C 238.933594 140.433594 238.0625 141.179688 236.746094 142.410156 C 235.421875 143.644531 233.699219 145.402344 231.9375 147.449219 C 230.179688 149.503906 228.699219 151.46875 227.679688 152.960938 C 226.660156 154.449219 226.054688 155.421875 226.054688 155.421875 C 226.054688 155.421875 226.257812 154.292969 226.917969 152.558594 C 227.574219 150.824219 228.769531 148.5 230.628906 146.332031 C 232.492188 144.164062 234.613281 142.632812 236.226562 141.722656 C 237.847656 140.804688 238.933594 140.433594 238.933594 140.433594 Z M 238.933594 140.433594 " fill-opacity="1" fill-rule="nonzero"/><path fill="#c6302c" d="M 302.265625 94.117188 C 302.300781 94.121094 301.929688 94.1875 301.746094 93.761719 C 301.5625 93.367188 301.585938 92.785156 301.574219 92.050781 C 301.597656 90.585938 301.882812 88.378906 303.148438 85.984375 C 303.460938 85.386719 303.835938 84.785156 304.285156 84.195312 C 304.742188 83.613281 305.207031 82.996094 305.949219 82.476562 C 306.65625 81.929688 307.839844 81.699219 308.792969 82.097656 C 309.742188 82.472656 310.457031 83.15625 311.027344 83.910156 C 312.125 85.425781 312.871094 87.238281 313.171875 89.226562 C 313.328125 90.214844 313.347656 91.242188 313.25 92.277344 C 313.230469 92.539062 313.1875 92.796875 313.148438 93.054688 L 313.0625 93.507812 C 313.023438 93.746094 312.957031 93.984375 312.855469 94.183594 C 312.660156 94.582031 312.289062 94.871094 311.847656 94.9375 C 311.417969 95.003906 310.964844 94.847656 310.5625 94.558594 C 310.128906 94.203125 309.699219 93.855469 309.269531 93.507812 C 308.898438 93.160156 308.53125 92.820312 308.164062 92.480469 C 307.457031 91.773438 306.792969 91.046875 306.179688 90.308594 C 304.957031 88.820312 303.917969 87.285156 303.03125 85.777344 C 301.261719 82.753906 300.011719 79.882812 299.019531 77.464844 C 298.046875 75.050781 297.238281 73.058594 297.011719 71.578125 C 296.890625 70.84375 296.878906 70.265625 296.898438 69.878906 C 296.914062 69.488281 296.945312 69.289062 296.945312 69.289062 C 296.945312 69.289062 296.941406 69.492188 296.972656 69.875 C 297 70.261719 297.078125 70.824219 297.273438 71.519531 C 297.648438 72.921875 298.636719 74.78125 299.804688 77.109375 C 300.984375 79.425781 302.414062 82.167969 304.265625 85.011719 C 305.195312 86.433594 306.242188 87.867188 307.441406 89.246094 C 308.039062 89.933594 308.679688 90.605469 309.351562 91.257812 L 310.398438 92.210938 L 311.40625 93.03125 L 311.40625 93.035156 L 311.410156 93.03125 L 311.460938 92.769531 C 311.496094 92.542969 311.535156 92.324219 311.554688 92.101562 C 311.652344 91.210938 311.652344 90.316406 311.539062 89.453125 C 311.328125 87.722656 310.710938 86.078125 309.847656 84.757812 C 309.417969 84.121094 308.875 83.585938 308.300781 83.324219 C 307.726562 83.066406 307.148438 83.121094 306.59375 83.460938 C 306.035156 83.789062 305.539062 84.332031 305.082031 84.835938 C 304.625 85.347656 304.234375 85.882812 303.894531 86.414062 C 302.523438 88.554688 302.023438 90.640625 301.84375 92.070312 C 301.773438 92.785156 301.6875 93.359375 301.8125 93.734375 C 301.933594 94.144531 302.292969 94.125 302.265625 94.117188 Z M 302.265625 94.117188 " fill-opacity="1" fill-rule="nonzero"/><path fill="#c6302c" d="M 333.675781 171.066406 C 333.675781 171.066406 334.351562 168.835938 335.324219 165.230469 C 336.300781 161.621094 337.492188 156.617188 338.542969 151.042969 C 339.582031 145.46875 340.285156 140.371094 340.679688 136.65625 C 341.082031 132.941406 341.257812 130.621094 341.257812 130.621094 C 341.257812 130.621094 341.511719 132.9375 341.542969 136.703125 C 341.574219 140.464844 341.296875 145.695312 340.238281 151.359375 C 339.171875 157.027344 337.535156 162 336.144531 165.496094 C 334.75 169 333.675781 171.066406 333.675781 171.066406 Z M 333.675781 171.066406 " fill-opacity="1" fill-rule="nonzero"/><path fill="#fcfaef" d="M 334.378906 30.6875 C 334.378906 30.6875 333.921875 30.691406 333.101562 30.699219 C 332.277344 30.71875 331.078125 30.628906 329.613281 30.390625 C 328.140625 30.164062 326.417969 29.695312 324.570312 28.972656 C 322.742188 28.214844 320.804688 27.183594 318.953125 25.828125 C 317.121094 24.445312 315.578125 22.882812 314.332031 21.347656 C 313.113281 19.789062 312.171875 18.273438 311.535156 16.929688 C 310.886719 15.59375 310.460938 14.472656 310.242188 13.675781 C 310.015625 12.886719 309.886719 12.449219 309.886719 12.449219 C 309.886719 12.449219 310.105469 12.851562 310.492188 13.574219 C 310.855469 14.300781 311.472656 15.3125 312.28125 16.5 C 313.082031 17.695312 314.160156 19.023438 315.433594 20.402344 C 316.738281 21.753906 318.261719 23.144531 319.984375 24.445312 C 321.726562 25.726562 323.492188 26.785156 325.164062 27.648438 C 326.851562 28.476562 328.433594 29.128906 329.8125 29.550781 C 331.179688 29.988281 332.328125 30.289062 333.128906 30.429688 C 333.929688 30.59375 334.378906 30.6875 334.378906 30.6875 Z M 334.378906 30.6875 " fill-opacity="1" fill-rule="nonzero"/><path fill="#c6302c" d="M 388.421875 25.828125 C 388.421875 25.828125 387.832031 25.800781 386.769531 25.753906 C 385.710938 25.675781 384.167969 25.566406 382.277344 25.285156 C 378.503906 24.746094 373.289062 23.589844 367.898438 21.28125 C 365.203125 20.128906 362.726562 18.875 360.5625 17.492188 C 358.40625 16.113281 356.632812 14.558594 355.429688 13.015625 C 354.203125 11.480469 353.585938 9.988281 353.320312 8.945312 C 353.183594 8.421875 353.113281 8.011719 353.089844 7.726562 C 353.054688 7.449219 353.035156 7.300781 353.035156 7.300781 C 353.035156 7.300781 353.078125 7.445312 353.160156 7.714844 C 353.230469 7.984375 353.367188 8.375 353.574219 8.859375 C 353.988281 9.824219 354.765625 11.144531 356.078125 12.449219 C 358.644531 15.144531 363.316406 17.460938 368.574219 19.699219 C 373.824219 21.949219 378.792969 23.488281 382.445312 24.441406 C 384.269531 24.925781 385.769531 25.25 386.808594 25.484375 C 387.84375 25.707031 388.421875 25.828125 388.421875 25.828125 Z M 388.421875 25.828125 " fill-opacity="1" fill-rule="nonzero"/><path fill="#fcfaef" d="M 260.488281 35.328125 C 260.488281 35.328125 260.335938 35.40625 260.042969 35.558594 C 259.765625 35.730469 259.363281 36.007812 258.964844 36.476562 C 258.175781 37.363281 257.359375 39.175781 257.875 41.234375 C 258.382812 43.273438 260.335938 45.289062 263.003906 46.09375 C 264.34375 46.503906 265.839844 46.648438 267.398438 46.582031 C 268.964844 46.492188 270.621094 46.324219 272.03125 45.707031 C 273.476562 45.121094 274.375 43.992188 274.171875 42.757812 C 274.003906 41.550781 272.851562 40.472656 271.691406 39.738281 C 269.261719 38.324219 266.597656 37.503906 264.460938 36.945312 C 262.285156 36.394531 260.464844 36.160156 259.207031 36.039062 C 257.941406 35.925781 257.238281 35.902344 257.238281 35.902344 C 257.238281 35.902344 257.9375 35.816406 259.214844 35.773438 C 260.492188 35.730469 262.355469 35.75 264.636719 36.101562 C 266.921875 36.488281 269.585938 37.039062 272.441406 38.496094 C 273.136719 38.894531 273.832031 39.367188 274.449219 40.003906 C 275.050781 40.640625 275.625 41.460938 275.800781 42.496094 C 275.992188 43.511719 275.730469 44.628906 275.101562 45.484375 C 274.476562 46.347656 273.597656 46.898438 272.722656 47.285156 C 270.925781 48.050781 269.132812 48.175781 267.445312 48.226562 C 265.738281 48.253906 264.050781 48.027344 262.539062 47.46875 C 259.484375 46.367188 257.394531 43.835938 257.03125 41.414062 C 256.675781 38.941406 257.832031 37.121094 258.769531 36.289062 C 259.253906 35.851562 259.703125 35.628906 260.007812 35.492188 C 260.324219 35.382812 260.488281 35.328125 260.488281 35.328125 Z M 260.488281 35.328125 " fill-opacity="1" fill-rule="nonzero"/><path fill="#fcfaef" d="M 173.8125 123.085938 C 173.8125 123.085938 174.457031 122.972656 175.632812 122.851562 C 176.808594 122.730469 178.527344 122.628906 180.652344 122.730469 C 182.777344 122.832031 185.3125 123.160156 188.050781 123.90625 C 189.394531 124.292969 190.890625 124.679688 192.304688 125.667969 C 193.691406 126.632812 194.925781 128.445312 194.464844 130.558594 C 194.222656 131.59375 193.523438 132.414062 192.75 132.9375 C 191.976562 133.464844 191.0625 133.746094 190.203125 133.816406 C 188.457031 133.949219 186.957031 133.464844 185.625 133.027344 C 182.917969 132.109375 180.664062 130.84375 178.925781 129.605469 C 177.183594 128.363281 175.933594 127.171875 175.121094 126.308594 C 174.3125 125.445312 173.914062 124.929688 173.914062 124.929688 C 173.914062 124.929688 174.394531 125.375 175.304688 126.113281 C 176.21875 126.847656 177.585938 127.855469 179.390625 128.878906 C 181.191406 129.902344 183.445312 130.921875 186.054688 131.640625 C 187.363281 131.996094 188.742188 132.328125 190.035156 132.179688 C 191.277344 132.058594 192.542969 131.246094 192.789062 130.15625 C 193.0625 129.054688 192.359375 127.734375 191.332031 126.996094 C 190.28125 126.199219 188.921875 125.742188 187.628906 125.292969 C 185.046875 124.429688 182.628906 123.898438 180.570312 123.585938 C 178.511719 123.273438 176.816406 123.160156 175.640625 123.117188 C 174.464844 123.097656 173.8125 123.085938 173.8125 123.085938 Z M 173.8125 123.085938 " fill-opacity="1" fill-rule="nonzero"/><path fill="#fcfaef" d="M 331.554688 47.890625 C 331.554688 47.890625 331.613281 48.066406 331.722656 48.402344 C 331.835938 48.734375 331.984375 49.234375 332.15625 49.886719 C 332.488281 51.1875 332.886719 53.117188 332.980469 55.542969 C 333.078125 57.964844 332.875 60.898438 332 64.027344 C 331.519531 65.574219 331.121094 67.203125 329.945312 68.835938 C 329.351562 69.617188 328.414062 70.34375 327.292969 70.535156 C 326.179688 70.753906 325.0625 70.484375 324.121094 69.992188 C 323.191406 69.476562 322.398438 68.765625 321.84375 67.890625 C 321.265625 67.015625 320.984375 65.988281 320.910156 65.050781 C 320.742188 63.117188 321.277344 61.367188 321.917969 59.863281 C 323.261719 56.875 324.949219 54.519531 326.519531 52.664062 C 328.089844 50.816406 329.558594 49.515625 330.601562 48.667969 C 331.648438 47.820312 332.265625 47.40625 332.265625 47.40625 C 332.265625 47.40625 331.714844 47.90625 330.785156 48.867188 C 329.859375 49.828125 328.5625 51.261719 327.199219 53.195312 C 325.84375 55.117188 324.371094 57.5625 323.265625 60.40625 C 322.742188 61.820312 322.371094 63.371094 322.550781 64.882812 C 322.640625 65.652344 322.855469 66.355469 323.269531 66.960938 C 323.671875 67.582031 324.273438 68.105469 324.933594 68.472656 C 326.304688 69.21875 327.765625 68.980469 328.652344 67.8125 C 329.554688 66.671875 330.101562 65.035156 330.609375 63.605469 C 331.589844 60.683594 332 57.894531 332.117188 55.542969 C 332.242188 53.1875 332.0625 51.261719 331.890625 49.941406 C 331.800781 49.277344 331.71875 48.765625 331.648438 48.417969 C 331.585938 48.070312 331.554688 47.890625 331.554688 47.890625 Z M 331.554688 47.890625 " fill-opacity="1" fill-rule="nonzero"/><path fill="#fcfaef" d="M 246.8125 122.984375 C 246.8125 122.984375 246.710938 123.144531 246.417969 123.339844 C 246.125 123.535156 245.621094 123.699219 244.976562 123.765625 C 243.710938 123.882812 241.839844 123.996094 239.550781 123.554688 C 237.292969 123.125 234.519531 122.023438 232.386719 119.601562 C 230.234375 117.28125 229.089844 113.214844 230.832031 109.675781 C 231.269531 108.816406 231.8125 108.011719 232.691406 107.386719 C 233.125 107.082031 233.691406 106.855469 234.246094 106.808594 C 234.792969 106.757812 235.289062 106.832031 235.730469 106.945312 C 237.539062 107.371094 238.972656 108.476562 240.027344 109.632812 C 242.132812 112.015625 243.199219 114.546875 244.136719 116.613281 C 245.03125 118.714844 245.574219 120.476562 245.910156 121.699219 C 246.246094 122.925781 246.382812 123.609375 246.382812 123.609375 C 246.382812 123.609375 246.125 122.957031 245.65625 121.785156 C 245.167969 120.621094 244.429688 118.953125 243.359375 116.984375 C 242.261719 115.054688 240.96875 112.640625 238.980469 110.640625 C 237.980469 109.65625 236.761719 108.835938 235.371094 108.550781 C 234.644531 108.398438 234.144531 108.429688 233.664062 108.785156 C 233.171875 109.132812 232.703125 109.769531 232.375 110.441406 C 231.699219 111.792969 231.53125 113.371094 231.769531 114.8125 C 231.992188 116.261719 232.648438 117.578125 233.503906 118.671875 C 235.238281 120.878906 237.652344 122.109375 239.75 122.71875 C 241.871094 123.34375 243.710938 123.453125 244.964844 123.496094 C 245.589844 123.511719 246.078125 123.425781 246.382812 123.273438 C 246.6875 123.128906 246.8125 122.984375 246.8125 122.984375 Z M 246.8125 122.984375 " fill-opacity="1" fill-rule="nonzero"/><path fill="#c6302c" d="M 212.882812 253.628906 C 212.882812 253.628906 212.71875 253.609375 212.417969 253.511719 C 212.125 253.410156 211.683594 253.226562 211.210938 252.835938 C 210.25 252.113281 209.25 250.414062 209.242188 248.210938 C 209.339844 243.941406 210.675781 238.089844 214.042969 232.5 C 217.375 226.890625 221.964844 222.992188 225.5 220.75 C 227.296875 219.640625 228.820312 218.882812 229.894531 218.417969 C 230.976562 217.972656 231.574219 217.726562 231.574219 217.726562 C 231.574219 217.726562 231.019531 218.058594 230.019531 218.65625 C 229.023438 219.261719 227.628906 220.195312 225.996094 221.453125 C 222.773438 224.003906 218.699219 228.03125 215.523438 233.386719 C 212.3125 238.6875 210.621094 244.226562 210.105469 248.222656 C 209.90625 250.226562 210.589844 251.820312 211.394531 252.640625 C 211.78125 253.0625 212.175781 253.300781 212.449219 253.441406 C 212.722656 253.582031 212.882812 253.628906 212.882812 253.628906 Z M 212.882812 253.628906 " fill-opacity="1" fill-rule="nonzero"/><path fill="#c6302c" d="M 296.535156 239.652344 C 296.535156 239.652344 297.117188 239.484375 297.921875 239.128906 C 298.734375 238.773438 299.71875 238.175781 300.699219 237.410156 C 301.671875 236.636719 302.480469 235.8125 303.011719 235.109375 C 303.546875 234.410156 303.839844 233.878906 303.839844 233.878906 C 303.839844 233.878906 303.855469 234.035156 303.878906 234.300781 C 303.90625 234.574219 303.890625 234.972656 303.796875 235.464844 C 303.625 236.4375 302.996094 237.785156 301.765625 238.761719 C 300.535156 239.730469 299.074219 240.027344 298.085938 239.972656 C 297.589844 239.949219 297.195312 239.875 296.933594 239.785156 C 296.683594 239.699219 296.535156 239.652344 296.535156 239.652344 Z M 296.535156 239.652344 " fill-opacity="1" fill-rule="nonzero"/><path fill="#c6302c" d="M 369.296875 260.085938 C 369.296875 260.085938 370.53125 258.136719 372.765625 254.617188 C 374.988281 251.089844 378.175781 245.96875 381.976562 239.570312 C 389.589844 226.785156 399.679688 208.847656 409.480469 188.46875 C 414.371094 178.316406 417.527344 168.078125 419.894531 158.613281 C 422.242188 149.148438 423.917969 140.488281 425.425781 133.238281 C 426.945312 126.003906 427.742188 120.089844 427.78125 115.964844 C 427.832031 113.90625 427.71875 112.308594 427.648438 111.222656 C 427.539062 110.140625 427.484375 109.574219 427.484375 109.574219 C 427.484375 109.574219 427.578125 110.136719 427.761719 111.210938 C 427.902344 112.289062 428.121094 113.886719 428.195312 115.960938 C 428.402344 120.109375 427.925781 126.144531 426.726562 133.460938 C 425.542969 140.773438 424.195312 149.496094 422.066406 159.105469 C 419.929688 168.683594 416.855469 179.21875 411.882812 189.539062 C 402.003906 210.074219 391.304688 227.746094 383.109375 240.234375 C 379.011719 246.484375 375.542969 251.4375 373.109375 254.835938 C 370.65625 258.214844 369.296875 260.085938 369.296875 260.085938 Z M 369.296875 260.085938 " fill-opacity="1" fill-rule="nonzero"/><g fill="#fcfaef" fill-opacity="1"><g transform="translate(9.142972, 198.174275)"><g><path d="M 2.953125 0 L 17.078125 0 L 17.078125 -2.1875 L 5.3125 -2.1875 L 5.3125 -20.90625 L 2.953125 -20.90625 Z M 2.953125 0 "/></g></g></g><g fill="#fcfaef" fill-opacity="1"><g transform="translate(27.618645, 198.174275)"><g><path d="M 8.15625 -13.609375 C 9.601562 -13.609375 10.726562 -13.253906 11.53125 -12.546875 C 12.34375 -11.847656 12.75 -10.800781 12.75 -9.40625 L 12.75 -8.875 C 12.050781 -9.070312 11.332031 -9.226562 10.59375 -9.34375 C 9.863281 -9.46875 9 -9.53125 8 -9.53125 C 7.03125 -9.53125 6.140625 -9.421875 5.328125 -9.203125 C 4.523438 -8.984375 3.828125 -8.660156 3.234375 -8.234375 C 2.648438 -7.816406 2.195312 -7.296875 1.875 -6.671875 C 1.5625 -6.046875 1.40625 -5.328125 1.40625 -4.515625 C 1.40625 -3.691406 1.566406 -2.984375 1.890625 -2.390625 C 2.222656 -1.796875 2.660156 -1.289062 3.203125 -0.875 C 3.753906 -0.46875 4.375 -0.164062 5.0625 0.03125 C 5.75 0.226562 6.453125 0.328125 7.171875 0.328125 C 8.535156 0.328125 9.671875 0.0625 10.578125 -0.46875 C 11.484375 -1.007812 12.207031 -1.628906 12.75 -2.328125 L 12.75 0 L 14.953125 0 L 14.953125 -9.4375 C 14.953125 -11.488281 14.382812 -13.035156 13.25 -14.078125 C 12.125 -15.117188 10.503906 -15.640625 8.390625 -15.640625 C 7.253906 -15.640625 6.25 -15.523438 5.375 -15.296875 C 4.5 -15.066406 3.632812 -14.753906 2.78125 -14.359375 L 3.46875 -12.484375 C 4.175781 -12.816406 4.90625 -13.085938 5.65625 -13.296875 C 6.40625 -13.503906 7.238281 -13.609375 8.15625 -13.609375 Z M 8.234375 -7.828125 C 9.191406 -7.828125 10.039062 -7.753906 10.78125 -7.609375 C 11.53125 -7.472656 12.195312 -7.328125 12.78125 -7.171875 L 12.78125 -5.671875 C 12.78125 -5.054688 12.644531 -4.492188 12.375 -3.984375 C 12.101562 -3.472656 11.734375 -3.035156 11.265625 -2.671875 C 10.796875 -2.304688 10.25 -2.019531 9.625 -1.8125 C 9 -1.601562 8.328125 -1.5 7.609375 -1.5 C 7.097656 -1.5 6.609375 -1.566406 6.140625 -1.703125 C 5.671875 -1.835938 5.253906 -2.039062 4.890625 -2.3125 C 4.535156 -2.582031 4.253906 -2.90625 4.046875 -3.28125 C 3.835938 -3.664062 3.734375 -4.101562 3.734375 -4.59375 C 3.734375 -5.59375 4.117188 -6.378906 4.890625 -6.953125 C 5.671875 -7.535156 6.785156 -7.828125 8.234375 -7.828125 Z M 8.234375 -7.828125 "/></g></g></g><g fill="#fcfaef" fill-opacity="1"><g transform="translate(44.900412, 198.174275)"><g><path d="M 15.828125 -2.625 L 14.359375 -4 C 13.742188 -3.34375 13.050781 -2.796875 12.28125 -2.359375 C 11.519531 -1.921875 10.640625 -1.703125 9.640625 -1.703125 C 8.828125 -1.703125 8.078125 -1.851562 7.390625 -2.15625 C 6.703125 -2.46875 6.101562 -2.894531 5.59375 -3.4375 C 5.09375 -3.988281 4.695312 -4.632812 4.40625 -5.375 C 4.113281 -6.113281 3.96875 -6.898438 3.96875 -7.734375 C 3.96875 -8.566406 4.109375 -9.347656 4.390625 -10.078125 C 4.671875 -10.804688 5.054688 -11.441406 5.546875 -11.984375 C 6.046875 -12.535156 6.632812 -12.960938 7.3125 -13.265625 C 7.988281 -13.578125 8.71875 -13.734375 9.5 -13.734375 C 10.550781 -13.734375 11.4375 -13.503906 12.15625 -13.046875 C 12.882812 -12.585938 13.5625 -12.039062 14.1875 -11.40625 L 15.703125 -13.015625 C 15.347656 -13.398438 14.960938 -13.757812 14.546875 -14.09375 C 14.128906 -14.425781 13.671875 -14.71875 13.171875 -14.96875 C 12.671875 -15.21875 12.117188 -15.410156 11.515625 -15.546875 C 10.921875 -15.691406 10.257812 -15.765625 9.53125 -15.765625 C 8.394531 -15.765625 7.34375 -15.550781 6.375 -15.125 C 5.40625 -14.695312 4.566406 -14.113281 3.859375 -13.375 C 3.160156 -12.632812 2.609375 -11.769531 2.203125 -10.78125 C 1.804688 -9.800781 1.609375 -8.765625 1.609375 -7.671875 C 1.609375 -6.578125 1.804688 -5.539062 2.203125 -4.5625 C 2.609375 -3.59375 3.160156 -2.742188 3.859375 -2.015625 C 4.566406 -1.285156 5.40625 -0.707031 6.375 -0.28125 C 7.34375 0.144531 8.394531 0.359375 9.53125 0.359375 C 10.976562 0.359375 12.191406 0.0820312 13.171875 -0.46875 C 14.160156 -1.03125 15.046875 -1.75 15.828125 -2.625 Z M 15.828125 -2.625 "/></g></g></g><g fill="#fcfaef" fill-opacity="1"><g transform="translate(61.943399, 198.174275)"><g><path d="M 5.671875 -13.40625 L 10.5625 -13.40625 L 10.5625 -15.4375 L 5.671875 -15.4375 L 5.671875 -20.09375 L 3.375 -20.09375 L 3.375 -15.4375 L 1.21875 -15.4375 L 1.21875 -13.40625 L 3.375 -13.40625 L 3.375 -4.09375 C 3.375 -3.3125 3.484375 -2.640625 3.703125 -2.078125 C 3.921875 -1.523438 4.222656 -1.070312 4.609375 -0.71875 C 5.003906 -0.375 5.46875 -0.125 6 0.03125 C 6.539062 0.1875 7.117188 0.265625 7.734375 0.265625 C 8.285156 0.265625 8.785156 0.207031 9.234375 0.09375 C 9.679688 -0.0078125 10.109375 -0.171875 10.515625 -0.390625 L 10.515625 -2.359375 C 10.109375 -2.160156 9.734375 -2.019531 9.390625 -1.9375 C 9.046875 -1.863281 8.671875 -1.828125 8.265625 -1.828125 C 7.492188 -1.828125 6.867188 -2.015625 6.390625 -2.390625 C 5.910156 -2.765625 5.671875 -3.429688 5.671875 -4.390625 Z M 5.671875 -13.40625 "/></g></g></g><g fill="#fcfaef" fill-opacity="1"><g transform="translate(74.001843, 198.174275)"><g><path d="M 17.703125 -7.734375 C 17.703125 -8.828125 17.503906 -9.859375 17.109375 -10.828125 C 16.710938 -11.804688 16.15625 -12.660156 15.4375 -13.390625 C 14.71875 -14.117188 13.863281 -14.695312 12.875 -15.125 C 11.894531 -15.550781 10.828125 -15.765625 9.671875 -15.765625 C 8.492188 -15.765625 7.410156 -15.550781 6.421875 -15.125 C 5.441406 -14.695312 4.59375 -14.113281 3.875 -13.375 C 3.164062 -12.632812 2.609375 -11.769531 2.203125 -10.78125 C 1.804688 -9.800781 1.609375 -8.765625 1.609375 -7.671875 C 1.609375 -6.578125 1.804688 -5.539062 2.203125 -4.5625 C 2.609375 -3.59375 3.164062 -2.742188 3.875 -2.015625 C 4.59375 -1.285156 5.441406 -0.707031 6.421875 -0.28125 C 7.398438 0.144531 8.460938 0.359375 9.609375 0.359375 C 10.765625 0.359375 11.835938 0.144531 12.828125 -0.28125 C 13.828125 -0.707031 14.6875 -1.289062 15.40625 -2.03125 C 16.125 -2.769531 16.6875 -3.628906 17.09375 -4.609375 C 17.5 -5.597656 17.703125 -6.640625 17.703125 -7.734375 Z M 15.34375 -7.671875 C 15.34375 -6.835938 15.203125 -6.054688 14.921875 -5.328125 C 14.648438 -4.597656 14.265625 -3.960938 13.765625 -3.421875 C 13.265625 -2.890625 12.664062 -2.46875 11.96875 -2.15625 C 11.269531 -1.851562 10.503906 -1.703125 9.671875 -1.703125 C 8.859375 -1.703125 8.101562 -1.859375 7.40625 -2.171875 C 6.707031 -2.492188 6.101562 -2.921875 5.59375 -3.453125 C 5.09375 -3.992188 4.695312 -4.632812 4.40625 -5.375 C 4.113281 -6.113281 3.96875 -6.898438 3.96875 -7.734375 C 3.96875 -8.566406 4.109375 -9.347656 4.390625 -10.078125 C 4.671875 -10.804688 5.050781 -11.441406 5.53125 -11.984375 C 6.019531 -12.535156 6.613281 -12.960938 7.3125 -13.265625 C 8.007812 -13.578125 8.773438 -13.734375 9.609375 -13.734375 C 10.429688 -13.734375 11.1875 -13.570312 11.875 -13.25 C 12.570312 -12.9375 13.179688 -12.503906 13.703125 -11.953125 C 14.222656 -11.410156 14.625 -10.769531 14.90625 -10.03125 C 15.195312 -9.289062 15.34375 -8.503906 15.34375 -7.671875 Z M 15.34375 -7.671875 "/></g></g></g><g fill="#fcfaef" fill-opacity="1"><g transform="translate(93.283408, 198.174275)"><g><path d="M 17.96875 -20.90625 L 2.953125 -20.90625 L 2.953125 0 L 5.3125 0 L 5.3125 -9.109375 L 16.625 -9.109375 L 16.625 -11.25 L 5.3125 -11.25 L 5.3125 -18.71875 L 17.96875 -18.71875 Z M 17.96875 -20.90625 "/></g></g></g><g fill="#fcfaef" fill-opacity="1"><g transform="translate(112.863447, 198.174275)"><g><path d="M 5.078125 0 L 5.078125 -21.796875 L 2.78125 -21.796875 L 2.78125 0 Z M 5.078125 0 "/></g></g></g><g fill="#fcfaef" fill-opacity="1"><g transform="translate(120.713372, 198.174275)"><g><path d="M 17.703125 -7.734375 C 17.703125 -8.828125 17.503906 -9.859375 17.109375 -10.828125 C 16.710938 -11.804688 16.15625 -12.660156 15.4375 -13.390625 C 14.71875 -14.117188 13.863281 -14.695312 12.875 -15.125 C 11.894531 -15.550781 10.828125 -15.765625 9.671875 -15.765625 C 8.492188 -15.765625 7.410156 -15.550781 6.421875 -15.125 C 5.441406 -14.695312 4.59375 -14.113281 3.875 -13.375 C 3.164062 -12.632812 2.609375 -11.769531 2.203125 -10.78125 C 1.804688 -9.800781 1.609375 -8.765625 1.609375 -7.671875 C 1.609375 -6.578125 1.804688 -5.539062 2.203125 -4.5625 C 2.609375 -3.59375 3.164062 -2.742188 3.875 -2.015625 C 4.59375 -1.285156 5.441406 -0.707031 6.421875 -0.28125 C 7.398438 0.144531 8.460938 0.359375 9.609375 0.359375 C 10.765625 0.359375 11.835938 0.144531 12.828125 -0.28125 C 13.828125 -0.707031 14.6875 -1.289062 15.40625 -2.03125 C 16.125 -2.769531 16.6875 -3.628906 17.09375 -4.609375 C 17.5 -5.597656 17.703125 -6.640625 17.703125 -7.734375 Z M 15.34375 -7.671875 C 15.34375 -6.835938 15.203125 -6.054688 14.921875 -5.328125 C 14.648438 -4.597656 14.265625 -3.960938 13.765625 -3.421875 C 13.265625 -2.890625 12.664062 -2.46875 11.96875 -2.15625 C 11.269531 -1.851562 10.503906 -1.703125 9.671875 -1.703125 C 8.859375 -1.703125 8.101562 -1.859375 7.40625 -2.171875 C 6.707031 -2.492188 6.101562 -2.921875 5.59375 -3.453125 C 5.09375 -3.992188 4.695312 -4.632812 4.40625 -5.375 C 4.113281 -6.113281 3.96875 -6.898438 3.96875 -7.734375 C 3.96875 -8.566406 4.109375 -9.347656 4.390625 -10.078125 C 4.671875 -10.804688 5.050781 -11.441406 5.53125 -11.984375 C 6.019531 -12.535156 6.613281 -12.960938 7.3125 -13.265625 C 8.007812 -13.578125 8.773438 -13.734375 9.609375 -13.734375 C 10.429688 -13.734375 11.1875 -13.570312 11.875 -13.25 C 12.570312 -12.9375 13.179688 -12.503906 13.703125 -11.953125 C 14.222656 -11.410156 14.625 -10.769531 14.90625 -10.03125 C 15.195312 -9.289062 15.34375 -8.503906 15.34375 -7.671875 Z M 15.34375 -7.671875 "/></g></g></g><g fill="#fcfaef" fill-opacity="1"><g transform="translate(139.994937, 198.174275)"><g><path d="M 13.828125 -15.5 L 11.90625 -15.5 L 7.765625 -3.046875 L 3.703125 -15.4375 L 1.25 -15.4375 L 6.65625 0.125 L 8.6875 0.125 L 12.875 -12.0625 L 17.015625 0.125 L 19.015625 0.125 L 24.453125 -15.4375 L 22.0625 -15.4375 L 18 -3.046875 Z M 13.828125 -15.5 "/></g></g></g><g fill="#76B1AF" fill-opacity="1"><g transform="translate(11.164061, 211.647541)"><g><path d="M 0.566406 0 L 2.671875 0 L 2.671875 -3.261719 C 2.671875 -3.914062 3.027344 -4.257812 3.527344 -4.257812 C 4.027344 -4.257812 4.347656 -3.914062 4.347656 -3.261719 L 4.347656 0 L 6.457031 0 L 6.457031 -3.261719 C 6.457031 -3.914062 6.820312 -4.257812 7.320312 -4.257812 C 7.820312 -4.257812 8.140625 -3.914062 8.140625 -3.261719 L 8.140625 0 L 10.25 0 L 10.25 -3.9375 C 10.25 -5.335938 9.472656 -6.132812 8.199219 -6.132812 C 7.320312 -6.132812 6.710938 -5.757812 6.191406 -5.15625 C 5.867188 -5.777344 5.257812 -6.132812 4.460938 -6.132812 C 3.617188 -6.132812 3.0625 -5.679688 2.671875 -5.179688 L 2.671875 -6 L 0.566406 -6 Z M 0.566406 0 "/></g></g></g><g fill="#76B1AF" fill-opacity="1"><g transform="translate(24.147239, 211.647541)"><g><path d="M 3.539062 0.144531 C 4.738281 0.144531 5.570312 -0.34375 6.144531 -1.074219 L 4.980469 -2.042969 C 4.546875 -1.621094 4.148438 -1.429688 3.648438 -1.429688 C 2.996094 -1.429688 2.519531 -1.765625 2.351562 -2.417969 L 6.367188 -2.417969 C 6.378906 -2.5625 6.378906 -2.71875 6.378906 -2.851562 C 6.378906 -4.613281 5.425781 -6.132812 3.351562 -6.132812 C 1.574219 -6.132812 0.320312 -4.746094 0.320312 -2.996094 L 0.320312 -2.972656 C 0.320312 -1.109375 1.652344 0.144531 3.539062 0.144531 Z M 2.316406 -3.492188 C 2.429688 -4.148438 2.804688 -4.582031 3.359375 -4.582031 C 3.9375 -4.582031 4.324219 -4.160156 4.402344 -3.492188 Z M 2.316406 -3.492188 "/></g></g></g><g fill="#76B1AF" fill-opacity="1"><g transform="translate(33.072961, 211.647541)"><g><path d="M 2.5625 0.132812 C 3.417969 0.132812 3.972656 -0.320312 4.359375 -0.820312 L 4.359375 0 L 6.46875 0 L 6.46875 -6 L 4.359375 -6 L 4.359375 -2.75 C 4.359375 -2.097656 3.980469 -1.742188 3.484375 -1.742188 C 2.972656 -1.742188 2.628906 -2.097656 2.628906 -2.75 L 2.628906 -6 L 0.519531 -6 L 0.519531 -2.074219 C 0.519531 -0.710938 1.285156 0.132812 2.5625 0.132812 Z M 2.5625 0.132812 "/></g></g></g><g fill="#76B1AF" fill-opacity="1"><g transform="translate(42.320181, 211.647541)"><g/></g></g><g fill="#76B1AF" fill-opacity="1"><g transform="translate(47.609726, 211.647541)"><g><path d="M 0.609375 0 L 2.71875 0 L 2.71875 -8.097656 L 0.609375 -8.097656 Z M 0.609375 0 "/></g></g></g><g fill="#76B1AF" fill-opacity="1"><g transform="translate(53.154245, 211.647541)"><g><path d="M 3.539062 0.144531 C 4.738281 0.144531 5.570312 -0.34375 6.144531 -1.074219 L 4.980469 -2.042969 C 4.546875 -1.621094 4.148438 -1.429688 3.648438 -1.429688 C 2.996094 -1.429688 2.519531 -1.765625 2.351562 -2.417969 L 6.367188 -2.417969 C 6.378906 -2.5625 6.378906 -2.71875 6.378906 -2.851562 C 6.378906 -4.613281 5.425781 -6.132812 3.351562 -6.132812 C 1.574219 -6.132812 0.320312 -4.746094 0.320312 -2.996094 L 0.320312 -2.972656 C 0.320312 -1.109375 1.652344 0.144531 3.539062 0.144531 Z M 2.316406 -3.492188 C 2.429688 -4.148438 2.804688 -4.582031 3.359375 -4.582031 C 3.9375 -4.582031 4.324219 -4.160156 4.402344 -3.492188 Z M 2.316406 -3.492188 "/></g></g></g><g fill="#76B1AF" fill-opacity="1"><g transform="translate(62.079966, 211.647541)"><g><path d="M 0.566406 -6.542969 L 2.761719 -6.542969 L 2.761719 -8.097656 L 0.566406 -8.097656 Z M 0.609375 0 L 2.71875 0 L 2.71875 -6 L 0.609375 -6 Z M 0.609375 0 "/></g></g></g><g fill="#76B1AF" fill-opacity="1"><g transform="translate(67.624485, 211.647541)"><g><path d="M 2.949219 0.121094 C 3.539062 0.121094 4.039062 -0.0117188 4.414062 -0.222656 L 4.414062 -1.875 C 4.160156 -1.753906 3.894531 -1.675781 3.617188 -1.675781 C 3.226562 -1.675781 3.039062 -1.851562 3.039062 -2.273438 L 3.039062 -4.304688 L 4.4375 -4.304688 L 4.4375 -6 L 3.039062 -6 L 3.039062 -7.519531 L 0.933594 -7.519531 L 0.933594 -6 L 0.222656 -6 L 0.222656 -4.304688 L 0.933594 -4.304688 L 0.933594 -1.863281 C 0.933594 -0.433594 1.6875 0.121094 2.949219 0.121094 Z M 2.949219 0.121094 "/></g></g></g><g fill="#76B1AF" fill-opacity="1"><g transform="translate(74.62126, 211.647541)"><g><path d="M 3.539062 0.144531 C 4.738281 0.144531 5.570312 -0.34375 6.144531 -1.074219 L 4.980469 -2.042969 C 4.546875 -1.621094 4.148438 -1.429688 3.648438 -1.429688 C 2.996094 -1.429688 2.519531 -1.765625 2.351562 -2.417969 L 6.367188 -2.417969 C 6.378906 -2.5625 6.378906 -2.71875 6.378906 -2.851562 C 6.378906 -4.613281 5.425781 -6.132812 3.351562 -6.132812 C 1.574219 -6.132812 0.320312 -4.746094 0.320312 -2.996094 L 0.320312 -2.972656 C 0.320312 -1.109375 1.652344 0.144531 3.539062 0.144531 Z M 2.316406 -3.492188 C 2.429688 -4.148438 2.804688 -4.582031 3.359375 -4.582031 C 3.9375 -4.582031 4.324219 -4.160156 4.402344 -3.492188 Z M 2.316406 -3.492188 "/></g></g></g><g fill="#76B1AF" fill-opacity="1"><g transform="translate(83.546981, 211.647541)"><g/></g></g><g fill="#76B1AF" fill-opacity="1"><g transform="translate(88.836526, 211.647541)"><g><path d="M 2.949219 0.132812 C 4.414062 0.132812 5.402344 -0.554688 5.402344 -1.875 L 5.402344 -1.898438 C 5.402344 -3.0625 4.460938 -3.472656 3.273438 -3.804688 C 2.640625 -3.992188 2.296875 -4.105469 2.296875 -4.335938 L 2.296875 -4.359375 C 2.296875 -4.527344 2.460938 -4.648438 2.785156 -4.648438 C 3.261719 -4.648438 3.9375 -4.4375 4.558594 -4.09375 L 5.28125 -5.425781 C 4.59375 -5.867188 3.683594 -6.125 2.804688 -6.125 C 1.417969 -6.125 0.398438 -5.414062 0.398438 -4.136719 L 0.398438 -4.117188 C 0.398438 -2.90625 1.34375 -2.507812 2.527344 -2.195312 C 3.160156 -2.019531 3.492188 -1.917969 3.492188 -1.6875 L 3.492188 -1.664062 C 3.492188 -1.453125 3.328125 -1.34375 2.960938 -1.34375 C 2.339844 -1.34375 1.585938 -1.574219 0.898438 -2.03125 L 0.109375 -0.753906 C 0.941406 -0.15625 1.941406 0.132812 2.949219 0.132812 Z M 2.949219 0.132812 "/></g></g></g><g fill="#76B1AF" fill-opacity="1"><g transform="translate(96.753428, 211.647541)"><g><path d="M 3.539062 0.144531 C 4.738281 0.144531 5.570312 -0.34375 6.144531 -1.074219 L 4.980469 -2.042969 C 4.546875 -1.621094 4.148438 -1.429688 3.648438 -1.429688 C 2.996094 -1.429688 2.519531 -1.765625 2.351562 -2.417969 L 6.367188 -2.417969 C 6.378906 -2.5625 6.378906 -2.71875 6.378906 -2.851562 C 6.378906 -4.613281 5.425781 -6.132812 3.351562 -6.132812 C 1.574219 -6.132812 0.320312 -4.746094 0.320312 -2.996094 L 0.320312 -2.972656 C 0.320312 -1.109375 1.652344 0.144531 3.539062 0.144531 Z M 2.316406 -3.492188 C 2.429688 -4.148438 2.804688 -4.582031 3.359375 -4.582031 C 3.9375 -4.582031 4.324219 -4.160156 4.402344 -3.492188 Z M 2.316406 -3.492188 "/></g></g></g><g fill="#76B1AF" fill-opacity="1"><g transform="translate(105.679149, 211.647541)"><g><path d="M 0.566406 0 L 2.671875 0 L 2.671875 -3.261719 C 2.671875 -3.914062 3.027344 -4.257812 3.527344 -4.257812 C 4.027344 -4.257812 4.347656 -3.914062 4.347656 -3.261719 L 4.347656 0 L 6.457031 0 L 6.457031 -3.261719 C 6.457031 -3.914062 6.820312 -4.257812 7.320312 -4.257812 C 7.820312 -4.257812 8.140625 -3.914062 8.140625 -3.261719 L 8.140625 0 L 10.25 0 L 10.25 -3.9375 C 10.25 -5.335938 9.472656 -6.132812 8.199219 -6.132812 C 7.320312 -6.132812 6.710938 -5.757812 6.191406 -5.15625 C 5.867188 -5.777344 5.257812 -6.132812 4.460938 -6.132812 C 3.617188 -6.132812 3.0625 -5.679688 2.671875 -5.179688 L 2.671875 -6 L 0.566406 -6 Z M 0.566406 0 "/></g></g></g><g fill="#76B1AF" fill-opacity="1"><g transform="translate(118.662322, 211.647541)"><g><path d="M 0.566406 1.773438 L 2.671875 1.773438 L 2.671875 -0.730469 C 3.0625 -0.277344 3.59375 0.132812 4.503906 0.132812 C 5.921875 0.132812 7.15625 -1.054688 7.15625 -3.007812 L 7.15625 -3.027344 C 7.15625 -4.945312 5.921875 -6.132812 4.492188 -6.132812 C 3.59375 -6.132812 3.082031 -5.703125 2.671875 -5.203125 L 2.671875 -6 L 0.566406 -6 Z M 3.847656 -1.628906 C 3.171875 -1.628906 2.628906 -2.195312 2.628906 -2.996094 L 2.628906 -3.015625 C 2.628906 -3.804688 3.171875 -4.371094 3.847656 -4.371094 C 4.535156 -4.371094 5.082031 -3.804688 5.082031 -3.015625 L 5.082031 -2.996094 C 5.082031 -2.183594 4.535156 -1.628906 3.847656 -1.628906 Z M 3.847656 -1.628906 "/></g></g></g><g fill="#76B1AF" fill-opacity="1"><g transform="translate(128.375151, 211.647541)"><g><path d="M 0.566406 0 L 2.671875 0 L 2.671875 -1.863281 C 2.671875 -3.25 3.292969 -3.882812 4.394531 -3.882812 L 4.570312 -3.882812 L 4.570312 -6.101562 C 3.570312 -6.144531 3.015625 -5.613281 2.671875 -4.792969 L 2.671875 -6 L 0.566406 -6 Z M 0.566406 0 "/></g></g></g><g fill="#76B1AF" fill-opacity="1"><g transform="translate(135.338674, 211.647541)"><g><path d="M 3.539062 0.144531 C 4.738281 0.144531 5.570312 -0.34375 6.144531 -1.074219 L 4.980469 -2.042969 C 4.546875 -1.621094 4.148438 -1.429688 3.648438 -1.429688 C 2.996094 -1.429688 2.519531 -1.765625 2.351562 -2.417969 L 6.367188 -2.417969 C 6.378906 -2.5625 6.378906 -2.71875 6.378906 -2.851562 C 6.378906 -4.613281 5.425781 -6.132812 3.351562 -6.132812 C 1.574219 -6.132812 0.320312 -4.746094 0.320312 -2.996094 L 0.320312 -2.972656 C 0.320312 -1.109375 1.652344 0.144531 3.539062 0.144531 Z M 2.316406 -3.492188 C 2.429688 -4.148438 2.804688 -4.582031 3.359375 -4.582031 C 3.9375 -4.582031 4.324219 -4.160156 4.402344 -3.492188 Z M 2.316406 -3.492188 "/></g></g></g><g fill="#76B1AF" fill-opacity="1"><g transform="translate(144.264402, 211.647541)"><g/></g></g><g fill="#76B1AF" fill-opacity="1"><g transform="translate(149.553941, 211.647541)"><g><path d="M 3.539062 0.144531 C 4.738281 0.144531 5.570312 -0.34375 6.144531 -1.074219 L 4.980469 -2.042969 C 4.546875 -1.621094 4.148438 -1.429688 3.648438 -1.429688 C 2.996094 -1.429688 2.519531 -1.765625 2.351562 -2.417969 L 6.367188 -2.417969 C 6.378906 -2.5625 6.378906 -2.71875 6.378906 -2.851562 C 6.378906 -4.613281 5.425781 -6.132812 3.351562 -6.132812 C 1.574219 -6.132812 0.320312 -4.746094 0.320312 -2.996094 L 0.320312 -2.972656 C 0.320312 -1.109375 1.652344 0.144531 3.539062 0.144531 Z M 2.316406 -3.492188 C 2.429688 -4.148438 2.804688 -4.582031 3.359375 -4.582031 C 3.9375 -4.582031 4.324219 -4.160156 4.402344 -3.492188 Z M 2.527344 -6.535156 L 4.015625 -6.535156 L 5.644531 -7.953125 L 3.683594 -8.585938 Z M 2.527344 -6.535156 "/></g></g></g><g fill="#76B1AF" fill-opacity="1"><g transform="translate(158.479656, 211.647541)"><g/></g></g><g fill="#76B1AF" fill-opacity="1"><g transform="translate(163.769195, 211.647541)"><g><path d="M 0.941406 0 L 3.039062 0 L 3.039062 -4.316406 L 4.382812 -4.316406 L 4.382812 -5.933594 L 3.007812 -5.933594 L 3.007812 -6.078125 C 3.007812 -6.46875 3.21875 -6.644531 3.605469 -6.644531 C 3.90625 -6.644531 4.148438 -6.601562 4.394531 -6.523438 L 4.394531 -8.007812 C 4.058594 -8.109375 3.660156 -8.175781 3.015625 -8.175781 C 2.308594 -8.175781 1.820312 -8.019531 1.453125 -7.652344 C 1.097656 -7.300781 0.941406 -6.789062 0.941406 -6.101562 L 0.941406 -5.96875 L 0.242188 -5.96875 L 0.242188 -4.316406 L 0.941406 -4.316406 Z M 0.941406 0 "/></g></g></g><g fill="#76B1AF" fill-opacity="1"><g transform="translate(170.466655, 211.647541)"><g><path d="M 3.628906 0.144531 C 5.558594 0.144531 6.953125 -1.285156 6.953125 -2.996094 L 6.953125 -3.015625 C 6.953125 -4.726562 5.570312 -6.132812 3.648438 -6.132812 C 1.71875 -6.132812 0.320312 -4.703125 0.320312 -2.996094 L 0.320312 -2.972656 C 0.320312 -1.265625 1.707031 0.144531 3.628906 0.144531 Z M 3.648438 -1.640625 C 2.90625 -1.640625 2.375 -2.261719 2.375 -2.996094 L 2.375 -3.015625 C 2.375 -3.738281 2.863281 -4.347656 3.628906 -4.347656 C 4.371094 -4.347656 4.902344 -3.726562 4.902344 -2.996094 L 4.902344 -2.972656 C 4.902344 -2.25 4.414062 -1.640625 3.648438 -1.640625 Z M 3.648438 -1.640625 "/></g></g></g><g fill="#76B1AF" fill-opacity="1"><g transform="translate(179.957766, 211.647541)"><g><path d="M 0.566406 0 L 2.671875 0 L 2.671875 -1.863281 C 2.671875 -3.25 3.292969 -3.882812 4.394531 -3.882812 L 4.570312 -3.882812 L 4.570312 -6.101562 C 3.570312 -6.144531 3.015625 -5.613281 2.671875 -4.792969 L 2.671875 -6 L 0.566406 -6 Z M 0.566406 0 "/></g></g></g><g fill="#76B1AF" fill-opacity="1"><g transform="translate(186.92129, 211.647541)"><g><path d="M 2.949219 0.121094 C 3.539062 0.121094 4.039062 -0.0117188 4.414062 -0.222656 L 4.414062 -1.875 C 4.160156 -1.753906 3.894531 -1.675781 3.617188 -1.675781 C 3.226562 -1.675781 3.039062 -1.851562 3.039062 -2.273438 L 3.039062 -4.304688 L 4.4375 -4.304688 L 4.4375 -6 L 3.039062 -6 L 3.039062 -7.519531 L 0.933594 -7.519531 L 0.933594 -6 L 0.222656 -6 L 0.222656 -4.304688 L 0.933594 -4.304688 L 0.933594 -1.863281 C 0.933594 -0.433594 1.6875 0.121094 2.949219 0.121094 Z M 2.949219 0.121094 "/></g></g></g><g fill="#76B1AF" fill-opacity="1"><g transform="translate(193.91807, 211.647541)"><g><path d="M 3.539062 0.144531 C 4.738281 0.144531 5.570312 -0.34375 6.144531 -1.074219 L 4.980469 -2.042969 C 4.546875 -1.621094 4.148438 -1.429688 3.648438 -1.429688 C 2.996094 -1.429688 2.519531 -1.765625 2.351562 -2.417969 L 6.367188 -2.417969 C 6.378906 -2.5625 6.378906 -2.71875 6.378906 -2.851562 C 6.378906 -4.613281 5.425781 -6.132812 3.351562 -6.132812 C 1.574219 -6.132812 0.320312 -4.746094 0.320312 -2.996094 L 0.320312 -2.972656 C 0.320312 -1.109375 1.652344 0.144531 3.539062 0.144531 Z M 2.316406 -3.492188 C 2.429688 -4.148438 2.804688 -4.582031 3.359375 -4.582031 C 3.9375 -4.582031 4.324219 -4.160156 4.402344 -3.492188 Z M 2.316406 -3.492188 "/></g></g></g></svg>